G04 #@! TF.GenerationSoftware,KiCad,Pcbnew,(6.0.10-0)*
G04 #@! TF.CreationDate,2023-01-27T16:31:16+09:00*
G04 #@! TF.ProjectId,MEZ6502LED,4d455a36-3530-4324-9c45-442e6b696361,A*
G04 #@! TF.SameCoordinates,PX5ee3fe0PY8f872a0*
G04 #@! TF.FileFunction,Copper,L1,Top*
G04 #@! TF.FilePolarity,Positive*
%FSLAX46Y46*%
G04 Gerber Fmt 4.6, Leading zero omitted, Abs format (unit mm)*
G04 Created by KiCad (PCBNEW (6.0.10-0)) date 2023-01-27 16:31:16*
%MOMM*%
%LPD*%
G01*
G04 APERTURE LIST*
G04 #@! TA.AperFunction,ComponentPad*
%ADD10R,1.600000X1.600000*%
G04 #@! TD*
G04 #@! TA.AperFunction,ComponentPad*
%ADD11O,1.600000X1.600000*%
G04 #@! TD*
G04 #@! TA.AperFunction,ComponentPad*
%ADD12C,1.600000*%
G04 #@! TD*
G04 #@! TA.AperFunction,ComponentPad*
%ADD13R,1.700000X1.700000*%
G04 #@! TD*
G04 #@! TA.AperFunction,ComponentPad*
%ADD14O,1.700000X1.700000*%
G04 #@! TD*
G04 #@! TA.AperFunction,ViaPad*
%ADD15C,0.605000*%
G04 #@! TD*
G04 #@! TA.AperFunction,Conductor*
%ADD16C,0.400000*%
G04 #@! TD*
G04 #@! TA.AperFunction,Conductor*
%ADD17C,0.200000*%
G04 #@! TD*
G04 #@! TA.AperFunction,Conductor*
%ADD18C,0.500000*%
G04 #@! TD*
G04 #@! TA.AperFunction,Conductor*
%ADD19C,0.152400*%
G04 #@! TD*
G04 APERTURE END LIST*
D10*
X53975000Y74930000D03*
D11*
X53975000Y72390000D03*
X53975000Y69850000D03*
X53975000Y67310000D03*
X53975000Y64770000D03*
X53975000Y62230000D03*
X53975000Y59690000D03*
X53975000Y57150000D03*
X53975000Y54610000D03*
X53975000Y52070000D03*
X53975000Y49530000D03*
X53975000Y46990000D03*
X53975000Y44450000D03*
X53975000Y41910000D03*
X53975000Y39370000D03*
X53975000Y36830000D03*
X53975000Y34290000D03*
X53975000Y31750000D03*
X53975000Y29210000D03*
X53975000Y26670000D03*
X69215000Y26670000D03*
X69215000Y29210000D03*
X69215000Y31750000D03*
X69215000Y34290000D03*
X69215000Y36830000D03*
X69215000Y39370000D03*
X69215000Y41910000D03*
X69215000Y44450000D03*
X69215000Y46990000D03*
X69215000Y49530000D03*
X69215000Y52070000D03*
X69215000Y54610000D03*
X69215000Y57150000D03*
X69215000Y59690000D03*
X69215000Y62230000D03*
X69215000Y64770000D03*
X69215000Y67310000D03*
X69215000Y69850000D03*
X69215000Y72390000D03*
X69215000Y74930000D03*
D12*
X57785000Y19685000D03*
D11*
X67945000Y19685000D03*
D12*
X57785000Y22860000D03*
D11*
X67945000Y22860000D03*
D12*
X55245000Y16510000D03*
D11*
X45085000Y16510000D03*
D12*
X55245000Y19685000D03*
D11*
X45085000Y19685000D03*
D12*
X55270000Y22860000D03*
D11*
X45110000Y22860000D03*
D13*
X1905000Y12695000D03*
D14*
X1905000Y10155000D03*
X1905000Y7615000D03*
X1905000Y5075000D03*
X1905000Y2535000D03*
D13*
X48260000Y74930000D03*
D14*
X48260000Y72390000D03*
X48260000Y69850000D03*
X48260000Y67310000D03*
X48260000Y64770000D03*
X48260000Y62230000D03*
X48260000Y59690000D03*
X48260000Y57150000D03*
X48260000Y54610000D03*
X48260000Y52070000D03*
X48260000Y49530000D03*
X48260000Y46990000D03*
X48260000Y44450000D03*
X48260000Y41910000D03*
X48260000Y39370000D03*
X48260000Y36830000D03*
X48260000Y34290000D03*
X48260000Y31750000D03*
X48260000Y29210000D03*
X48260000Y26670000D03*
D12*
X45065000Y57150000D03*
X42565000Y57150000D03*
D13*
X74930000Y74930000D03*
D14*
X74930000Y72390000D03*
X74930000Y69850000D03*
X74930000Y67310000D03*
X74930000Y64770000D03*
X74930000Y62230000D03*
X74930000Y59690000D03*
X74930000Y57150000D03*
X74930000Y54610000D03*
X74930000Y52070000D03*
X74930000Y49530000D03*
X74930000Y46990000D03*
X74930000Y44450000D03*
X74930000Y41910000D03*
X74930000Y39370000D03*
X74930000Y36830000D03*
X74930000Y34290000D03*
X74930000Y31750000D03*
X74930000Y29210000D03*
X74930000Y26670000D03*
D13*
X69215000Y12695000D03*
D14*
X69215000Y10155000D03*
X69215000Y7615000D03*
X69215000Y5075000D03*
X69215000Y2535000D03*
D13*
X71755000Y74930000D03*
D14*
X71755000Y72390000D03*
X71755000Y69850000D03*
X71755000Y67310000D03*
X71755000Y64770000D03*
X71755000Y62230000D03*
X71755000Y59690000D03*
X71755000Y57150000D03*
X71755000Y54610000D03*
X71755000Y52070000D03*
X71755000Y49530000D03*
X71755000Y46990000D03*
X71755000Y44450000D03*
X71755000Y41910000D03*
X71755000Y39370000D03*
X71755000Y36830000D03*
X71755000Y34290000D03*
X71755000Y31750000D03*
X71755000Y29210000D03*
X71755000Y26670000D03*
D13*
X51435000Y74930000D03*
D14*
X51435000Y72390000D03*
X51435000Y69850000D03*
X51435000Y67310000D03*
X51435000Y64770000D03*
X51435000Y62230000D03*
X51435000Y59690000D03*
X51435000Y57150000D03*
X51435000Y54610000D03*
X51435000Y52070000D03*
X51435000Y49530000D03*
X51435000Y46990000D03*
X51435000Y44450000D03*
X51435000Y41910000D03*
X51435000Y39370000D03*
X51435000Y36830000D03*
X51435000Y34290000D03*
X51435000Y31750000D03*
X51435000Y29210000D03*
X51435000Y26670000D03*
D15*
X39370000Y36830000D03*
X42545000Y25400000D03*
X42545000Y31750000D03*
X42545000Y52705000D03*
X66040000Y11430000D03*
X66040000Y1270000D03*
X65405000Y33020000D03*
X57785000Y33020000D03*
X56515000Y52070000D03*
X64770000Y50800000D03*
X64770000Y43815000D03*
X57150000Y47625000D03*
X57785000Y43815000D03*
X57785000Y39370000D03*
X65405000Y39370000D03*
X57785000Y55880000D03*
X65405000Y74930000D03*
X65405000Y58420000D03*
X57785000Y67310000D03*
X65405000Y67310000D03*
X57785000Y74930000D03*
X81915000Y26035000D03*
X38735000Y8255000D03*
X38100000Y11430000D03*
X38735000Y3810000D03*
X38100000Y1270000D03*
X38100000Y13970000D03*
X39370000Y76200000D03*
X81915000Y76200000D03*
X4445000Y6350000D03*
X4445000Y3810000D03*
X59121900Y50045124D03*
X57995371Y49446629D03*
X67351000Y48768000D03*
X63246000Y41074600D03*
X60880800Y42291000D03*
X60880800Y45814200D03*
X60439100Y49062700D03*
X60880100Y46698900D03*
X60188186Y40857869D03*
D16*
X43180000Y24130000D02*
X43180000Y5715000D01*
X50165000Y25400000D02*
X44450000Y25400000D01*
X44450000Y25400000D02*
X43180000Y24130000D01*
X43180000Y5715000D02*
X40000000Y2535000D01*
X51435000Y26670000D02*
X50165000Y25400000D01*
X40000000Y2535000D02*
X1905000Y2535000D01*
X51435000Y29210000D02*
X50232919Y29210000D01*
X50232919Y29210000D02*
X48895319Y27872400D01*
X48895319Y27872400D02*
X42477400Y27872400D01*
X42477400Y27872400D02*
X41275000Y26670000D01*
X41275000Y26670000D02*
X41275000Y8255000D01*
X41275000Y8255000D02*
X38095000Y5075000D01*
X38095000Y5075000D02*
X1905000Y5075000D01*
X51435000Y36830000D02*
X49960451Y36830000D01*
X49960451Y36830000D02*
X48690451Y35560000D01*
X48690451Y35560000D02*
X40640000Y35560000D01*
X40640000Y35560000D02*
X39370000Y34290000D01*
X39370000Y34290000D02*
X39370000Y10795000D01*
X39370000Y10795000D02*
X36190000Y7615000D01*
X36190000Y7615000D02*
X1905000Y7615000D01*
D17*
X53975000Y74930000D02*
X52705000Y76200000D01*
X52705000Y76200000D02*
X49530000Y76200000D01*
X49530000Y76200000D02*
X48260000Y74930000D01*
D18*
X51435000Y49530000D02*
X52705000Y50800000D01*
X52705000Y50800000D02*
X52705000Y55879600D01*
X52705000Y55879600D02*
X52823000Y55997600D01*
X52773000Y55947600D02*
X52705400Y55880000D01*
X52705400Y55880000D02*
X49530000Y55880000D01*
X49530000Y55880000D02*
X48260000Y57150000D01*
D19*
X69215000Y46990000D02*
X68961000Y46990000D01*
X68961000Y46990000D02*
X68090000Y46119000D01*
X68090000Y46119000D02*
X61460000Y46119000D01*
X61460000Y46119000D02*
X60880100Y46698900D01*
X60880800Y45814200D02*
X68104800Y45814200D01*
X68104800Y45814200D02*
X69215000Y44704000D01*
X69215000Y44704000D02*
X69215000Y44450000D01*
X73912400Y61151300D02*
X75484900Y61151300D01*
X55003600Y44970600D02*
X55003600Y42938600D01*
X75484900Y61151300D02*
X76321700Y60314500D01*
X76321700Y49333300D02*
X75102400Y48114000D01*
X72833700Y62230000D02*
X73912400Y61151300D01*
X60785341Y48226800D02*
X59714104Y48226800D01*
X59714104Y48226800D02*
X56826304Y45339000D01*
X75102400Y48114000D02*
X67253911Y48114000D01*
X71755000Y62230000D02*
X72833700Y62230000D01*
X55003600Y42938600D02*
X53975000Y41910000D01*
X67253911Y48114000D02*
X66447511Y48920400D01*
X76321700Y60314500D02*
X76321700Y49333300D01*
X61478941Y48920400D02*
X60785341Y48226800D01*
X66447511Y48920400D02*
X61478941Y48920400D01*
X56826304Y45339000D02*
X55372000Y45339000D01*
X55372000Y45339000D02*
X55003600Y44970600D01*
X66893800Y49225200D02*
X61352689Y49225200D01*
X56700052Y45643800D02*
X55168800Y45643800D01*
X61352689Y49225200D02*
X60659089Y48531600D01*
X60659089Y48531600D02*
X59587852Y48531600D01*
X67351000Y48768000D02*
X66893800Y49225200D01*
X59587852Y48531600D02*
X56700052Y45643800D01*
X55168800Y45643800D02*
X53975000Y44450000D01*
X51435000Y72390000D02*
X52513700Y72390000D01*
X52513700Y72390000D02*
X53592400Y71311300D01*
X53592400Y71311300D02*
X53968361Y71311300D01*
X53968361Y71311300D02*
X55003600Y70276061D01*
X55003600Y70276061D02*
X55003600Y69075400D01*
X76989700Y32213600D02*
X74930000Y30153900D01*
X55421900Y68657100D02*
X66358576Y68657100D01*
X55003600Y69075400D02*
X55421900Y68657100D01*
X66358576Y68657100D02*
X68975676Y66040000D01*
X68975676Y66040000D02*
X75251400Y66040000D01*
X75251400Y66040000D02*
X76989700Y64301700D01*
X76989700Y64301700D02*
X76989700Y32213600D01*
X74930000Y30153900D02*
X74930000Y29210000D01*
X51435000Y67310000D02*
X52513700Y67310000D01*
X74930000Y35304629D02*
X74930000Y34290000D01*
X52513700Y67310000D02*
X53556000Y68352300D01*
X53556000Y68352300D02*
X66232324Y68352300D01*
X66232324Y68352300D02*
X68186400Y66398224D01*
X68186400Y66398224D02*
X68186400Y64343939D01*
X68186400Y64343939D02*
X69221439Y63308900D01*
X69221439Y63308900D02*
X75376471Y63308900D01*
X75376471Y63308900D02*
X76631900Y62053471D01*
X76631900Y62053471D02*
X76631900Y37006529D01*
X76631900Y37006529D02*
X74930000Y35304629D01*
X47181400Y67756771D02*
X47181400Y59246400D01*
X50356300Y69850000D02*
X49277600Y68771300D01*
X51435000Y69850000D02*
X50356300Y69850000D01*
X49277600Y68771300D02*
X48195929Y68771300D01*
X48195929Y68771300D02*
X47181400Y67756771D01*
X47181400Y59246400D02*
X46113600Y58178600D01*
X46113600Y58178600D02*
X44638939Y58178600D01*
X44638939Y58178600D02*
X44012000Y57551661D01*
X44012000Y56748339D02*
X44638939Y56121400D01*
X44012000Y57551661D02*
X44012000Y56748339D01*
X44638939Y56121400D02*
X46113600Y56121400D01*
X46113600Y56121400D02*
X47181400Y55053600D01*
X47181400Y55053600D02*
X47181400Y46543229D01*
X47181400Y46543229D02*
X47813229Y45911400D01*
X47813229Y45911400D02*
X48706771Y45911400D01*
X48706771Y45911400D02*
X50038000Y44580171D01*
X50038000Y44580171D02*
X50038000Y38862000D01*
X50038000Y38862000D02*
X50686500Y38213500D01*
X50686500Y38213500D02*
X53022552Y38213500D01*
X53022552Y38213500D02*
X53377452Y37858600D01*
X53377452Y37858600D02*
X67170400Y37858600D01*
X68186400Y36842600D02*
X68186400Y32778600D01*
X67170400Y37858600D02*
X68186400Y36842600D01*
X68186400Y32778600D02*
X69215000Y31750000D01*
X69215000Y52070000D02*
X62695200Y52070000D01*
X56573800Y45948600D02*
X52476400Y45948600D01*
X52476400Y45948600D02*
X51435000Y46990000D01*
X62695200Y52070000D02*
X56573800Y45948600D01*
X60188186Y40857869D02*
X62714900Y40857869D01*
X62714900Y40857869D02*
X62714900Y40854611D01*
X62714900Y40854611D02*
X63026011Y40543500D01*
X63026011Y40543500D02*
X63465989Y40543500D01*
X63465989Y40543500D02*
X64222889Y41300400D01*
X64222889Y41300400D02*
X67284600Y41300400D01*
X67284600Y41300400D02*
X68186400Y40398600D01*
X68186400Y40398600D02*
X68186400Y37273652D01*
X68186400Y37273652D02*
X68491200Y36968852D01*
X68491200Y36968852D02*
X68491200Y36830000D01*
X68491200Y36830000D02*
X69215000Y36830000D01*
X69215000Y39370000D02*
X69215000Y39801052D01*
X69215000Y39801052D02*
X67410852Y41605200D01*
X67410852Y41605200D02*
X60607189Y41605200D01*
X60302389Y41910000D02*
X55429661Y41910000D01*
X60607189Y41605200D02*
X60302389Y41910000D01*
X55429661Y41910000D02*
X54351061Y40831400D01*
X50356400Y41463229D02*
X50356400Y43371400D01*
X54351061Y40831400D02*
X50988229Y40831400D01*
X50988229Y40831400D02*
X50356400Y41463229D01*
X50356400Y43371400D02*
X51435000Y44450000D01*
X63246000Y41074600D02*
X63020200Y41300400D01*
X52513700Y39370000D02*
X51435000Y39370000D01*
X63020200Y41300400D02*
X60480937Y41300400D01*
X60480937Y41300400D02*
X60176137Y41605200D01*
X60176137Y41605200D02*
X55555913Y41605200D01*
X55555913Y41605200D02*
X54477313Y40526600D01*
X54477313Y40526600D02*
X53670300Y40526600D01*
X53670300Y40526600D02*
X52513700Y39370000D01*
X60880800Y42291000D02*
X61261800Y41910000D01*
X61261800Y41910000D02*
X69215000Y41910000D01*
X61229048Y52679600D02*
X67665600Y52679600D01*
X67665600Y52679600D02*
X68186400Y53200400D01*
X57995371Y49446629D02*
X57995371Y49765960D01*
X57995371Y49765960D02*
X58902411Y50673000D01*
X58902411Y50673000D02*
X59222448Y50673000D01*
X59222448Y50673000D02*
X61229048Y52679600D01*
X68788939Y55638600D02*
X70726400Y55638600D01*
X68186400Y55036061D02*
X68788939Y55638600D01*
X70726400Y55638600D02*
X71755000Y54610000D01*
X68186400Y53200400D02*
X68186400Y55036061D01*
X69215000Y57150000D02*
X69215000Y56376100D01*
X69215000Y56376100D02*
X68664335Y56376100D01*
X68664335Y56376100D02*
X67576800Y55288565D01*
X67576800Y55288565D02*
X67576800Y53452904D01*
X67576800Y53452904D02*
X67413096Y53289200D01*
X67413096Y53289200D02*
X60976544Y53289200D01*
X60976544Y53289200D02*
X58969944Y51282600D01*
X58969944Y51282600D02*
X58649907Y51282600D01*
X58649907Y51282600D02*
X55466707Y48099400D01*
X55466707Y48099400D02*
X51019029Y48099400D01*
X51019029Y48099400D02*
X50356400Y47436771D01*
X50356400Y47436771D02*
X50356400Y46290600D01*
X50356400Y46290600D02*
X51118400Y45528600D01*
X51118400Y45528600D02*
X51881771Y45528600D01*
X51881771Y45528600D02*
X52513600Y44896771D01*
X52513600Y44896771D02*
X52513600Y42988600D01*
X52513600Y42988600D02*
X51435000Y41910000D01*
X71755000Y57150000D02*
X70676300Y57150000D01*
X70676300Y57150000D02*
X69597600Y56071300D01*
X61102796Y52984400D02*
X59096196Y50977800D01*
X69597600Y56071300D02*
X68790587Y56071300D01*
X67881600Y55162313D02*
X67881600Y53326652D01*
X68790587Y56071300D02*
X67881600Y55162313D01*
X67881600Y53326652D02*
X67539348Y52984400D01*
X67539348Y52984400D02*
X61102796Y52984400D01*
X59096196Y50977800D02*
X58776159Y50977800D01*
X58776159Y50977800D02*
X54788359Y46990000D01*
X54788359Y46990000D02*
X53975000Y46990000D01*
X69647700Y53098600D02*
X70676300Y52070000D01*
X59121900Y50045124D02*
X59121900Y50141400D01*
X59121900Y50141400D02*
X61355300Y52374800D01*
X61355300Y52374800D02*
X67791852Y52374800D01*
X67791852Y52374800D02*
X68491200Y53074148D01*
X68491200Y53074148D02*
X68491200Y53098600D01*
X68491200Y53098600D02*
X69647700Y53098600D01*
X70676300Y52070000D02*
X71755000Y52070000D01*
X69215000Y49530000D02*
X60906400Y49530000D01*
X60906400Y49530000D02*
X60439100Y49062700D01*
X71755000Y49530000D02*
X72833700Y49530000D01*
X72833700Y49530000D02*
X73912400Y50608700D01*
X73912400Y50608700D02*
X75028600Y50608700D01*
X75028600Y50608700D02*
X76013500Y51593600D01*
X76013500Y51593600D02*
X76013500Y60161600D01*
X76013500Y60161600D02*
X75406500Y60768600D01*
X75406500Y60768600D02*
X68838939Y60768600D01*
X68838939Y60768600D02*
X68186400Y60116061D01*
X68186400Y60116061D02*
X68186400Y59263939D01*
X68186400Y59263939D02*
X66377261Y57454800D01*
X66377261Y57454800D02*
X56819800Y57454800D01*
X56819800Y57454800D02*
X53975000Y54610000D01*
X69215000Y74930000D02*
X70293800Y73851200D01*
X70293800Y73851200D02*
X72772500Y73851200D01*
X72772500Y73851200D02*
X73851300Y74930000D01*
X73851300Y74930000D02*
X74930000Y74930000D01*
X74930000Y72390000D02*
X73851300Y72390000D01*
X70293600Y73468600D02*
X69215000Y72390000D01*
X73851300Y72390000D02*
X72772700Y73468600D01*
X72772700Y73468600D02*
X70293600Y73468600D01*
X74930000Y69850000D02*
X73851300Y69850000D01*
X73851300Y69850000D02*
X72750100Y68748800D01*
X72750100Y68748800D02*
X70316200Y68748800D01*
X70316200Y68748800D02*
X69215000Y69850000D01*
X69215000Y67310000D02*
X70293700Y68388700D01*
X70293700Y68388700D02*
X72772600Y68388700D01*
X72772600Y68388700D02*
X73851300Y67310000D01*
X73851300Y67310000D02*
X74930000Y67310000D01*
X74930000Y64770000D02*
X73851300Y64770000D01*
X73851300Y64770000D02*
X72772700Y63691400D01*
X72772700Y63691400D02*
X70293600Y63691400D01*
X70293600Y63691400D02*
X69215000Y64770000D01*
X69215000Y57150000D02*
X70293600Y58228600D01*
X70293600Y58228600D02*
X72708400Y58228600D01*
X73787000Y57150000D02*
X74930000Y57150000D01*
X72708400Y58228600D02*
X73787000Y57150000D01*
X74930000Y59690000D02*
X73851300Y59690000D01*
X73851300Y59690000D02*
X72772700Y58611400D01*
X72772700Y58611400D02*
X70293600Y58611400D01*
X70293600Y58611400D02*
X69215000Y59690000D01*
X74930000Y54610000D02*
X73851300Y54610000D01*
X73851300Y54610000D02*
X72740100Y53498800D01*
X72740100Y53498800D02*
X70326200Y53498800D01*
X70326200Y53498800D02*
X69215000Y54610000D01*
X74930000Y52070000D02*
X73851300Y52070000D01*
X70297900Y50987100D02*
X69215000Y52070000D01*
X73851300Y52070000D02*
X72768400Y50987100D01*
X72768400Y50987100D02*
X70297900Y50987100D01*
X74930000Y49530000D02*
X73851300Y49530000D01*
X73851300Y49530000D02*
X72740100Y48418800D01*
X72740100Y48418800D02*
X70326200Y48418800D01*
X70326200Y48418800D02*
X69215000Y49530000D01*
X74930000Y46990000D02*
X73851300Y46990000D01*
X72772700Y45911400D02*
X70293600Y45911400D01*
X73851300Y46990000D02*
X72772700Y45911400D01*
X70293600Y45911400D02*
X69215000Y46990000D01*
X69215000Y44450000D02*
X70293700Y43371300D01*
X70293700Y43371300D02*
X72772600Y43371300D01*
X72772600Y43371300D02*
X73851300Y44450000D01*
X73851300Y44450000D02*
X74930000Y44450000D01*
X69215000Y41910000D02*
X70293700Y40831300D01*
X70293700Y40831300D02*
X72772600Y40831300D01*
X72772600Y40831300D02*
X73851300Y41910000D01*
X73851300Y41910000D02*
X74930000Y41910000D01*
X74930000Y39370000D02*
X73851300Y39370000D01*
X72740000Y40481300D02*
X70326300Y40481300D01*
X73851300Y39370000D02*
X72740000Y40481300D01*
X70326300Y40481300D02*
X69215000Y39370000D01*
X72762300Y37919000D02*
X70304000Y37919000D01*
X70304000Y37919000D02*
X69215000Y36830000D01*
X73851300Y36830000D02*
X74930000Y36830000D01*
X72762300Y37919000D02*
X73851300Y36830000D01*
X74930000Y34290000D02*
X73851300Y34290000D01*
X73851300Y34290000D02*
X72740000Y35401300D01*
X72740000Y35401300D02*
X70326300Y35401300D01*
X70326300Y35401300D02*
X69215000Y34290000D01*
X74930000Y31750000D02*
X73851300Y31750000D01*
X72750100Y30648800D02*
X70316200Y30648800D01*
X70316200Y30648800D02*
X69215000Y31750000D01*
X73851300Y31750000D02*
X72750100Y30648800D01*
X74930000Y29210000D02*
X73851300Y29210000D01*
X73851300Y29210000D02*
X72740000Y30321300D01*
X70326300Y30321300D02*
X69215000Y29210000D01*
X72740000Y30321300D02*
X70326300Y30321300D01*
X48260000Y26670000D02*
X49338700Y26670000D01*
X49338700Y26670000D02*
X50450000Y27781300D01*
X50450000Y27781300D02*
X52863700Y27781300D01*
X52863700Y27781300D02*
X53975000Y26670000D01*
X53975000Y49530000D02*
X52880300Y48435300D01*
X52880300Y48435300D02*
X50433400Y48435300D01*
X50433400Y48435300D02*
X49338700Y49530000D01*
X49338700Y49530000D02*
X48260000Y49530000D01*
X48260000Y64770000D02*
X49338700Y64770000D01*
X49338700Y64770000D02*
X50417300Y65848600D01*
X50417300Y65848600D02*
X52896400Y65848600D01*
X52896400Y65848600D02*
X53975000Y64770000D01*
X48260000Y67310000D02*
X49338700Y67310000D01*
X52896400Y66231400D02*
X53975000Y67310000D01*
X49338700Y67310000D02*
X50417300Y66231400D01*
X50417300Y66231400D02*
X52896400Y66231400D01*
X48260000Y59690000D02*
X49338700Y59690000D01*
X49338700Y59690000D02*
X50417300Y60768600D01*
X50417300Y60768600D02*
X52896400Y60768600D01*
X52896400Y60768600D02*
X53975000Y59690000D01*
X48260000Y62230000D02*
X49338700Y62230000D01*
X49338700Y62230000D02*
X50417300Y61151400D01*
X50417300Y61151400D02*
X52896400Y61151400D01*
X52896400Y61151400D02*
X53975000Y62230000D01*
X48260000Y69850000D02*
X49338700Y69850000D01*
X49338700Y69850000D02*
X50450000Y70961300D01*
X50450000Y70961300D02*
X52863700Y70961300D01*
X52863700Y70961300D02*
X53975000Y69850000D01*
X53975000Y36830000D02*
X52896300Y37908700D01*
X52896300Y37908700D02*
X50417400Y37908700D01*
X50417400Y37908700D02*
X49338700Y36830000D01*
X49338700Y36830000D02*
X48260000Y36830000D01*
X53975000Y29210000D02*
X53975000Y29273843D01*
X53975000Y29273843D02*
X52768843Y30480000D01*
X52768843Y30480000D02*
X50800000Y30480000D01*
X50800000Y30480000D02*
X49530000Y29210000D01*
X49530000Y29210000D02*
X48260000Y29210000D01*
X53975000Y34290000D02*
X52896300Y35368700D01*
X52896300Y35368700D02*
X50417400Y35368700D01*
X50417400Y35368700D02*
X49338700Y34290000D01*
X49338700Y34290000D02*
X48260000Y34290000D01*
X48260000Y31750000D02*
X49338700Y31750000D01*
X49338700Y31750000D02*
X50417300Y32828600D01*
X50417300Y32828600D02*
X52896400Y32828600D01*
X52896400Y32828600D02*
X53975000Y31750000D01*
D18*
X48260000Y57150000D02*
X45065000Y57150000D01*
D16*
X52823000Y55997600D02*
X52773000Y55947600D01*
D18*
X52823000Y55997600D02*
X53975000Y57150000D01*
D19*
X55270000Y22860000D02*
X57785000Y22860000D01*
X55245000Y19685000D02*
X57785000Y19685000D01*
G04 #@! TA.AperFunction,Conductor*
G36*
X82515931Y76979998D02*
G01*
X82536905Y76963095D01*
X82963095Y76536905D01*
X82997121Y76474593D01*
X83000000Y76447810D01*
X83000000Y25552190D01*
X82979998Y25484069D01*
X82963095Y25463095D01*
X82536905Y25036905D01*
X82474593Y25002879D01*
X82447810Y25000000D01*
X72000000Y25000000D01*
X71266428Y24266428D01*
X71265859Y24266997D01*
X71264734Y24265334D01*
X71260848Y24262825D01*
X71254400Y24254646D01*
X71251953Y24252419D01*
X71248230Y24248230D01*
X71000000Y24000000D01*
X71000000Y1052190D01*
X70979998Y984069D01*
X70963095Y963095D01*
X70536905Y536905D01*
X70474593Y502879D01*
X70447810Y500000D01*
X552190Y500000D01*
X484069Y520002D01*
X463095Y536905D01*
X36905Y963095D01*
X2879Y1025407D01*
X0Y1052190D01*
X0Y9887034D01*
X573257Y9887034D01*
X603565Y9752554D01*
X606645Y9742725D01*
X686770Y9545397D01*
X691413Y9536206D01*
X802694Y9354612D01*
X808777Y9346301D01*
X948213Y9185333D01*
X955580Y9178117D01*
X1119434Y9042084D01*
X1127881Y9036169D01*
X1311756Y8928721D01*
X1321043Y8924271D01*
X1343682Y8915626D01*
X1400186Y8872638D01*
X1424478Y8805927D01*
X1408847Y8736672D01*
X1363156Y8689631D01*
X1357307Y8686151D01*
X1196341Y8590386D01*
X1030457Y8444910D01*
X893863Y8271640D01*
X791131Y8076380D01*
X725703Y7865667D01*
X699770Y7646560D01*
X714200Y7426396D01*
X715621Y7420800D01*
X715622Y7420795D01*
X761128Y7241617D01*
X768511Y7212548D01*
X770928Y7207306D01*
X770928Y7207305D01*
X809046Y7124621D01*
X860883Y7012179D01*
X988222Y6831998D01*
X1146264Y6678039D01*
X1151060Y6674834D01*
X1151063Y6674832D01*
X1235261Y6618573D01*
X1329717Y6555460D01*
X1335020Y6553182D01*
X1335023Y6553180D01*
X1527129Y6470645D01*
X1532436Y6468365D01*
X1538071Y6467090D01*
X1538074Y6467089D01*
X1539484Y6466770D01*
X1540083Y6466436D01*
X1543562Y6465306D01*
X1543340Y6464623D01*
X1601511Y6432228D01*
X1635016Y6369634D01*
X1629362Y6298863D01*
X1586344Y6242384D01*
X1555287Y6225665D01*
X1391376Y6165196D01*
X1391368Y6165192D01*
X1385957Y6163196D01*
X1196341Y6050386D01*
X1030457Y5904910D01*
X893863Y5731640D01*
X791131Y5536380D01*
X725703Y5325667D01*
X699770Y5106560D01*
X714200Y4886396D01*
X715621Y4880800D01*
X715622Y4880795D01*
X761128Y4701617D01*
X768511Y4672548D01*
X770928Y4667306D01*
X770928Y4667305D01*
X809046Y4584621D01*
X860883Y4472179D01*
X988222Y4291998D01*
X1146264Y4138039D01*
X1151060Y4134834D01*
X1151063Y4134832D01*
X1235261Y4078573D01*
X1329717Y4015460D01*
X1335020Y4013182D01*
X1335023Y4013180D01*
X1527129Y3930645D01*
X1532436Y3928365D01*
X1538071Y3927090D01*
X1538074Y3927089D01*
X1539484Y3926770D01*
X1540083Y3926436D01*
X1543562Y3925306D01*
X1543340Y3924623D01*
X1601511Y3892228D01*
X1635016Y3829634D01*
X1629362Y3758863D01*
X1586344Y3702384D01*
X1555287Y3685665D01*
X1391376Y3625196D01*
X1391368Y3625192D01*
X1385957Y3623196D01*
X1196341Y3510386D01*
X1030457Y3364910D01*
X893863Y3191640D01*
X791131Y2996380D01*
X725703Y2785667D01*
X699770Y2566560D01*
X714200Y2346396D01*
X715621Y2340800D01*
X715622Y2340795D01*
X761128Y2161617D01*
X768511Y2132548D01*
X770928Y2127306D01*
X770928Y2127305D01*
X809046Y2044621D01*
X860883Y1932179D01*
X988222Y1751998D01*
X1146264Y1598039D01*
X1151060Y1594834D01*
X1151063Y1594832D01*
X1235261Y1538573D01*
X1329717Y1475460D01*
X1335020Y1473182D01*
X1335023Y1473180D01*
X1527129Y1390645D01*
X1532436Y1388365D01*
X1612088Y1370342D01*
X1741995Y1340946D01*
X1742001Y1340945D01*
X1747632Y1339671D01*
X1753403Y1339444D01*
X1753405Y1339444D01*
X1821211Y1336780D01*
X1968098Y1331009D01*
X2077275Y1346839D01*
X2180738Y1361840D01*
X2180743Y1361841D01*
X2186452Y1362669D01*
X2191916Y1364524D01*
X2191921Y1364525D01*
X2389907Y1431732D01*
X2389912Y1431734D01*
X2395379Y1433590D01*
X2587884Y1541398D01*
X2757518Y1682482D01*
X2898602Y1852116D01*
X2901426Y1857158D01*
X2936657Y1920067D01*
X2987394Y1969728D01*
X3046591Y1984500D01*
X39985007Y1984500D01*
X39990284Y1984389D01*
X40052294Y1981790D01*
X40063848Y1984500D01*
X40094662Y1991727D01*
X40106333Y1993890D01*
X40121229Y1995931D01*
X40149432Y1999794D01*
X40163230Y2005765D01*
X40184499Y2012799D01*
X40190775Y2014271D01*
X40199136Y2016232D01*
X40206661Y2020369D01*
X40206664Y2020370D01*
X40237268Y2037195D01*
X40247913Y2042411D01*
X40287855Y2059695D01*
X40299541Y2069158D01*
X40318126Y2081646D01*
X40325518Y2085710D01*
X40331308Y2088893D01*
X40339422Y2095897D01*
X40363958Y2120433D01*
X40373759Y2129258D01*
X40398392Y2149206D01*
X40398393Y2149207D01*
X40405070Y2154614D01*
X40410043Y2161612D01*
X40410048Y2161617D01*
X40415968Y2169948D01*
X40429579Y2186054D01*
X40810085Y2566560D01*
X68009770Y2566560D01*
X68024200Y2346396D01*
X68025621Y2340800D01*
X68025622Y2340795D01*
X68071128Y2161617D01*
X68078511Y2132548D01*
X68080928Y2127306D01*
X68080928Y2127305D01*
X68119046Y2044621D01*
X68170883Y1932179D01*
X68298222Y1751998D01*
X68456264Y1598039D01*
X68461060Y1594834D01*
X68461063Y1594832D01*
X68545261Y1538573D01*
X68639717Y1475460D01*
X68645020Y1473182D01*
X68645023Y1473180D01*
X68837129Y1390645D01*
X68842436Y1388365D01*
X68922088Y1370342D01*
X69051995Y1340946D01*
X69052001Y1340945D01*
X69057632Y1339671D01*
X69063403Y1339444D01*
X69063405Y1339444D01*
X69131211Y1336780D01*
X69278098Y1331009D01*
X69387275Y1346839D01*
X69490738Y1361840D01*
X69490743Y1361841D01*
X69496452Y1362669D01*
X69501916Y1364524D01*
X69501921Y1364525D01*
X69699907Y1431732D01*
X69699912Y1431734D01*
X69705379Y1433590D01*
X69897884Y1541398D01*
X70067518Y1682482D01*
X70204909Y1847675D01*
X70204910Y1847677D01*
X70208602Y1852116D01*
X70282322Y1983752D01*
X70313586Y2039578D01*
X70313587Y2039580D01*
X70316410Y2044621D01*
X70318266Y2050088D01*
X70318268Y2050093D01*
X70385475Y2248079D01*
X70385476Y2248084D01*
X70387331Y2253548D01*
X70388159Y2259257D01*
X70388160Y2259262D01*
X70418458Y2468228D01*
X70418991Y2471902D01*
X70420643Y2535000D01*
X70400454Y2754711D01*
X70340565Y2967064D01*
X70242980Y3164947D01*
X70110967Y3341733D01*
X69948949Y3491501D01*
X69762350Y3609236D01*
X69559955Y3689983D01*
X69504096Y3733804D01*
X69480795Y3800868D01*
X69497451Y3869883D01*
X69548775Y3918937D01*
X69566144Y3926326D01*
X69699907Y3971732D01*
X69699912Y3971734D01*
X69705379Y3973590D01*
X69897884Y4081398D01*
X70067518Y4222482D01*
X70204909Y4387675D01*
X70204910Y4387677D01*
X70208602Y4392116D01*
X70282322Y4523752D01*
X70313586Y4579578D01*
X70313587Y4579580D01*
X70316410Y4584621D01*
X70318266Y4590088D01*
X70318268Y4590093D01*
X70385475Y4788079D01*
X70385476Y4788084D01*
X70387331Y4793548D01*
X70388159Y4799257D01*
X70388160Y4799262D01*
X70418458Y5008228D01*
X70418991Y5011902D01*
X70420643Y5075000D01*
X70400454Y5294711D01*
X70393669Y5318771D01*
X70349267Y5476209D01*
X70340565Y5507064D01*
X70242980Y5704947D01*
X70222440Y5732454D01*
X70114420Y5877109D01*
X70114420Y5877110D01*
X70110967Y5881733D01*
X69948949Y6031501D01*
X69762350Y6149236D01*
X69559955Y6229983D01*
X69504096Y6273804D01*
X69480795Y6340868D01*
X69497451Y6409883D01*
X69548775Y6458937D01*
X69566144Y6466326D01*
X69699907Y6511732D01*
X69699912Y6511734D01*
X69705379Y6513590D01*
X69897884Y6621398D01*
X70067518Y6762482D01*
X70204909Y6927675D01*
X70204910Y6927677D01*
X70208602Y6932116D01*
X70282322Y7063752D01*
X70313586Y7119578D01*
X70313587Y7119580D01*
X70316410Y7124621D01*
X70318266Y7130088D01*
X70318268Y7130093D01*
X70385475Y7328079D01*
X70385476Y7328084D01*
X70387331Y7333548D01*
X70388159Y7339257D01*
X70388160Y7339262D01*
X70418458Y7548228D01*
X70418991Y7551902D01*
X70420643Y7615000D01*
X70400454Y7834711D01*
X70393669Y7858771D01*
X70349267Y8016209D01*
X70340565Y8047064D01*
X70242980Y8244947D01*
X70222440Y8272454D01*
X70114420Y8417109D01*
X70114420Y8417110D01*
X70110967Y8421733D01*
X69948949Y8571501D01*
X69762350Y8689236D01*
X69559955Y8769983D01*
X69504096Y8813804D01*
X69480795Y8880868D01*
X69497451Y8949883D01*
X69548775Y8998937D01*
X69566144Y9006326D01*
X69699907Y9051732D01*
X69699912Y9051734D01*
X69705379Y9053590D01*
X69897884Y9161398D01*
X69917987Y9178117D01*
X70063086Y9298796D01*
X70067518Y9302482D01*
X70208602Y9472116D01*
X70316410Y9664621D01*
X70318266Y9670088D01*
X70318268Y9670093D01*
X70385475Y9868079D01*
X70385476Y9868084D01*
X70387331Y9873548D01*
X70388159Y9879257D01*
X70388160Y9879262D01*
X70418458Y10088228D01*
X70418991Y10091902D01*
X70420643Y10155000D01*
X70400454Y10374711D01*
X70393669Y10398771D01*
X70349267Y10556209D01*
X70340565Y10587064D01*
X70242980Y10784947D01*
X70222440Y10812454D01*
X70114420Y10957109D01*
X70114420Y10957110D01*
X70110967Y10961733D01*
X69948949Y11111501D01*
X69762350Y11229236D01*
X69722348Y11245195D01*
X69706620Y11251470D01*
X69650760Y11295291D01*
X69627460Y11362355D01*
X69644116Y11431370D01*
X69695440Y11480424D01*
X69753310Y11494500D01*
X70098218Y11494500D01*
X70102768Y11495170D01*
X70102771Y11495170D01*
X70157426Y11503216D01*
X70157427Y11503216D01*
X70167112Y11504642D01*
X70261804Y11551133D01*
X70262507Y11551478D01*
X70262509Y11551479D01*
X70271855Y11556068D01*
X70354293Y11638650D01*
X70405536Y11743482D01*
X70415500Y11811782D01*
X70415500Y13578218D01*
X70406871Y13636838D01*
X70406784Y13637426D01*
X70406784Y13637427D01*
X70405358Y13647112D01*
X70353932Y13751855D01*
X70271350Y13834293D01*
X70166518Y13885536D01*
X70136027Y13889984D01*
X70102744Y13894840D01*
X70102740Y13894840D01*
X70098218Y13895500D01*
X68331782Y13895500D01*
X68327232Y13894830D01*
X68327229Y13894830D01*
X68272574Y13886784D01*
X68272573Y13886784D01*
X68262888Y13885358D01*
X68212992Y13860860D01*
X68167493Y13838522D01*
X68167491Y13838521D01*
X68158145Y13833932D01*
X68075707Y13751350D01*
X68024464Y13646518D01*
X68014500Y13578218D01*
X68014500Y11811782D01*
X68015170Y11807232D01*
X68015170Y11807229D01*
X68023216Y11752574D01*
X68024642Y11742888D01*
X68076068Y11638145D01*
X68158650Y11555707D01*
X68263482Y11504464D01*
X68293973Y11500016D01*
X68327256Y11495160D01*
X68327260Y11495160D01*
X68331782Y11494500D01*
X68671570Y11494500D01*
X68739691Y11474498D01*
X68786184Y11420842D01*
X68796288Y11350568D01*
X68766794Y11285988D01*
X68715180Y11250288D01*
X68706382Y11247042D01*
X68695957Y11243196D01*
X68690996Y11240244D01*
X68690995Y11240244D01*
X68573350Y11170252D01*
X68506341Y11130386D01*
X68340457Y10984910D01*
X68203863Y10811640D01*
X68101131Y10616380D01*
X68035703Y10405667D01*
X68009770Y10186560D01*
X68024200Y9966396D01*
X68025621Y9960800D01*
X68025622Y9960795D01*
X68077090Y9758143D01*
X68078511Y9752548D01*
X68080928Y9747306D01*
X68080928Y9747305D01*
X68119046Y9664621D01*
X68170883Y9552179D01*
X68298222Y9371998D01*
X68456264Y9218039D01*
X68461060Y9214834D01*
X68461063Y9214832D01*
X68545261Y9158573D01*
X68639717Y9095460D01*
X68645020Y9093182D01*
X68645023Y9093180D01*
X68763953Y9042084D01*
X68842436Y9008365D01*
X68848071Y9007090D01*
X68848074Y9007089D01*
X68849484Y9006770D01*
X68850083Y9006436D01*
X68853562Y9005306D01*
X68853340Y9004623D01*
X68911511Y8972228D01*
X68945016Y8909634D01*
X68939362Y8838863D01*
X68896344Y8782384D01*
X68865287Y8765665D01*
X68701376Y8705196D01*
X68701368Y8705192D01*
X68695957Y8703196D01*
X68506341Y8590386D01*
X68340457Y8444910D01*
X68203863Y8271640D01*
X68101131Y8076380D01*
X68035703Y7865667D01*
X68009770Y7646560D01*
X68024200Y7426396D01*
X68025621Y7420800D01*
X68025622Y7420795D01*
X68071128Y7241617D01*
X68078511Y7212548D01*
X68080928Y7207306D01*
X68080928Y7207305D01*
X68119046Y7124621D01*
X68170883Y7012179D01*
X68298222Y6831998D01*
X68456264Y6678039D01*
X68461060Y6674834D01*
X68461063Y6674832D01*
X68545261Y6618573D01*
X68639717Y6555460D01*
X68645020Y6553182D01*
X68645023Y6553180D01*
X68837129Y6470645D01*
X68842436Y6468365D01*
X68848071Y6467090D01*
X68848074Y6467089D01*
X68849484Y6466770D01*
X68850083Y6466436D01*
X68853562Y6465306D01*
X68853340Y6464623D01*
X68911511Y6432228D01*
X68945016Y6369634D01*
X68939362Y6298863D01*
X68896344Y6242384D01*
X68865287Y6225665D01*
X68701376Y6165196D01*
X68701368Y6165192D01*
X68695957Y6163196D01*
X68506341Y6050386D01*
X68340457Y5904910D01*
X68203863Y5731640D01*
X68101131Y5536380D01*
X68035703Y5325667D01*
X68009770Y5106560D01*
X68024200Y4886396D01*
X68025621Y4880800D01*
X68025622Y4880795D01*
X68071128Y4701617D01*
X68078511Y4672548D01*
X68080928Y4667306D01*
X68080928Y4667305D01*
X68119046Y4584621D01*
X68170883Y4472179D01*
X68298222Y4291998D01*
X68456264Y4138039D01*
X68461060Y4134834D01*
X68461063Y4134832D01*
X68545261Y4078573D01*
X68639717Y4015460D01*
X68645020Y4013182D01*
X68645023Y4013180D01*
X68837129Y3930645D01*
X68842436Y3928365D01*
X68848071Y3927090D01*
X68848074Y3927089D01*
X68849484Y3926770D01*
X68850083Y3926436D01*
X68853562Y3925306D01*
X68853340Y3924623D01*
X68911511Y3892228D01*
X68945016Y3829634D01*
X68939362Y3758863D01*
X68896344Y3702384D01*
X68865287Y3685665D01*
X68701376Y3625196D01*
X68701368Y3625192D01*
X68695957Y3623196D01*
X68506341Y3510386D01*
X68340457Y3364910D01*
X68203863Y3191640D01*
X68101131Y2996380D01*
X68035703Y2785667D01*
X68009770Y2566560D01*
X40810085Y2566560D01*
X43558642Y5315118D01*
X43562451Y5318771D01*
X43601833Y5354985D01*
X43608156Y5360799D01*
X43631087Y5397783D01*
X43637801Y5407553D01*
X43664112Y5442216D01*
X43669649Y5456201D01*
X43679713Y5476209D01*
X43683108Y5481685D01*
X43687635Y5488986D01*
X43699773Y5530766D01*
X43703613Y5541985D01*
X43719636Y5582453D01*
X43721208Y5597408D01*
X43725520Y5619383D01*
X43729715Y5633825D01*
X43730500Y5644515D01*
X43730500Y5679217D01*
X43731190Y5692387D01*
X43731965Y5699764D01*
X43735401Y5732454D01*
X43733969Y5740919D01*
X43733969Y5740928D01*
X43732265Y5751000D01*
X43730500Y5772013D01*
X43730500Y16161105D01*
X43750502Y16229226D01*
X43804158Y16275719D01*
X43874432Y16285823D01*
X43939012Y16256329D01*
X43978623Y16192121D01*
X43995845Y16124310D01*
X44084369Y15932286D01*
X44206405Y15759609D01*
X44357865Y15612063D01*
X44362661Y15608858D01*
X44362664Y15608856D01*
X44505936Y15513125D01*
X44533677Y15494589D01*
X44538985Y15492308D01*
X44538986Y15492308D01*
X44722650Y15413400D01*
X44722653Y15413399D01*
X44727953Y15411122D01*
X44733582Y15409848D01*
X44733583Y15409848D01*
X44928550Y15365731D01*
X44928553Y15365731D01*
X44934186Y15364456D01*
X44939957Y15364229D01*
X44939959Y15364229D01*
X45001989Y15361792D01*
X45145470Y15356154D01*
X45151179Y15356982D01*
X45151183Y15356982D01*
X45349015Y15385667D01*
X45349019Y15385668D01*
X45354730Y15386496D01*
X45433987Y15413400D01*
X45549483Y15452605D01*
X45549488Y15452607D01*
X45554955Y15454463D01*
X45559998Y15457287D01*
X45734395Y15554954D01*
X45734399Y15554957D01*
X45739442Y15557781D01*
X45902012Y15692988D01*
X46037219Y15855558D01*
X46040043Y15860601D01*
X46040046Y15860605D01*
X46137713Y16035002D01*
X46137714Y16035004D01*
X46140537Y16040045D01*
X46142393Y16045512D01*
X46142395Y16045517D01*
X46206647Y16234800D01*
X46208504Y16240270D01*
X46238846Y16449530D01*
X46240429Y16510000D01*
X46237650Y16540246D01*
X54089967Y16540246D01*
X54103796Y16329251D01*
X54105217Y16323655D01*
X54105218Y16323650D01*
X54127784Y16234800D01*
X54155845Y16124310D01*
X54244369Y15932286D01*
X54366405Y15759609D01*
X54517865Y15612063D01*
X54522661Y15608858D01*
X54522664Y15608856D01*
X54665936Y15513125D01*
X54693677Y15494589D01*
X54698985Y15492308D01*
X54698986Y15492308D01*
X54882650Y15413400D01*
X54882653Y15413399D01*
X54887953Y15411122D01*
X54893582Y15409848D01*
X54893583Y15409848D01*
X55088550Y15365731D01*
X55088553Y15365731D01*
X55094186Y15364456D01*
X55099957Y15364229D01*
X55099959Y15364229D01*
X55161989Y15361792D01*
X55305470Y15356154D01*
X55311179Y15356982D01*
X55311183Y15356982D01*
X55509015Y15385667D01*
X55509019Y15385668D01*
X55514730Y15386496D01*
X55593987Y15413400D01*
X55709483Y15452605D01*
X55709488Y15452607D01*
X55714955Y15454463D01*
X55719998Y15457287D01*
X55894395Y15554954D01*
X55894399Y15554957D01*
X55899442Y15557781D01*
X56062012Y15692988D01*
X56197219Y15855558D01*
X56200043Y15860601D01*
X56200046Y15860605D01*
X56297713Y16035002D01*
X56297714Y16035004D01*
X56300537Y16040045D01*
X56302393Y16045512D01*
X56302395Y16045517D01*
X56366647Y16234800D01*
X56368504Y16240270D01*
X56398846Y16449530D01*
X56400429Y16510000D01*
X56381081Y16720560D01*
X56323686Y16924069D01*
X56312558Y16946636D01*
X56232719Y17108531D01*
X56230165Y17113710D01*
X56103651Y17283133D01*
X55948381Y17426663D01*
X55769554Y17539495D01*
X55573160Y17617848D01*
X55567503Y17618973D01*
X55567497Y17618975D01*
X55371442Y17657972D01*
X55371440Y17657972D01*
X55365775Y17659099D01*
X55360000Y17659175D01*
X55359996Y17659175D01*
X55253976Y17660563D01*
X55154346Y17661867D01*
X55148649Y17660888D01*
X55148648Y17660888D01*
X54951650Y17627038D01*
X54951649Y17627038D01*
X54945953Y17626059D01*
X54747575Y17552873D01*
X54742614Y17549921D01*
X54742613Y17549921D01*
X54725089Y17539495D01*
X54565856Y17444762D01*
X54406881Y17305345D01*
X54275976Y17139292D01*
X54273287Y17134181D01*
X54273285Y17134178D01*
X54259792Y17108531D01*
X54177523Y16952164D01*
X54114820Y16750227D01*
X54089967Y16540246D01*
X46237650Y16540246D01*
X46221081Y16720560D01*
X46163686Y16924069D01*
X46152558Y16946636D01*
X46072719Y17108531D01*
X46070165Y17113710D01*
X45943651Y17283133D01*
X45788381Y17426663D01*
X45609554Y17539495D01*
X45413160Y17617848D01*
X45407503Y17618973D01*
X45407497Y17618975D01*
X45211442Y17657972D01*
X45211440Y17657972D01*
X45205775Y17659099D01*
X45200000Y17659175D01*
X45199996Y17659175D01*
X45093976Y17660563D01*
X44994346Y17661867D01*
X44988649Y17660888D01*
X44988648Y17660888D01*
X44791650Y17627038D01*
X44791649Y17627038D01*
X44785953Y17626059D01*
X44587575Y17552873D01*
X44582614Y17549921D01*
X44582613Y17549921D01*
X44565089Y17539495D01*
X44405856Y17444762D01*
X44246881Y17305345D01*
X44115976Y17139292D01*
X44113287Y17134181D01*
X44113285Y17134178D01*
X44099792Y17108531D01*
X44017523Y16952164D01*
X44015810Y16946646D01*
X44015806Y16946636D01*
X43976832Y16821121D01*
X43937529Y16761995D01*
X43872500Y16733505D01*
X43802391Y16744695D01*
X43749461Y16792012D01*
X43730500Y16858485D01*
X43730500Y19336105D01*
X43750502Y19404226D01*
X43804158Y19450719D01*
X43874432Y19460823D01*
X43939012Y19431329D01*
X43978623Y19367121D01*
X43995845Y19299310D01*
X44084369Y19107286D01*
X44206405Y18934609D01*
X44357865Y18787063D01*
X44362661Y18783858D01*
X44362664Y18783856D01*
X44505936Y18688125D01*
X44533677Y18669589D01*
X44538985Y18667308D01*
X44538986Y18667308D01*
X44722650Y18588400D01*
X44722653Y18588399D01*
X44727953Y18586122D01*
X44733582Y18584848D01*
X44733583Y18584848D01*
X44928550Y18540731D01*
X44928553Y18540731D01*
X44934186Y18539456D01*
X44939957Y18539229D01*
X44939959Y18539229D01*
X45001989Y18536792D01*
X45145470Y18531154D01*
X45151179Y18531982D01*
X45151183Y18531982D01*
X45349015Y18560667D01*
X45349019Y18560668D01*
X45354730Y18561496D01*
X45433987Y18588400D01*
X45549483Y18627605D01*
X45549488Y18627607D01*
X45554955Y18629463D01*
X45559998Y18632287D01*
X45734395Y18729954D01*
X45734399Y18729957D01*
X45739442Y18732781D01*
X45902012Y18867988D01*
X46037219Y19030558D01*
X46040043Y19035601D01*
X46040046Y19035605D01*
X46137713Y19210002D01*
X46137714Y19210004D01*
X46140537Y19215045D01*
X46142393Y19220512D01*
X46142395Y19220517D01*
X46206647Y19409800D01*
X46208504Y19415270D01*
X46238846Y19624530D01*
X46240429Y19685000D01*
X46237650Y19715246D01*
X54089967Y19715246D01*
X54103796Y19504251D01*
X54105217Y19498655D01*
X54105218Y19498650D01*
X54127784Y19409800D01*
X54155845Y19299310D01*
X54244369Y19107286D01*
X54366405Y18934609D01*
X54517865Y18787063D01*
X54522661Y18783858D01*
X54522664Y18783856D01*
X54665936Y18688125D01*
X54693677Y18669589D01*
X54698985Y18667308D01*
X54698986Y18667308D01*
X54882650Y18588400D01*
X54882653Y18588399D01*
X54887953Y18586122D01*
X54893582Y18584848D01*
X54893583Y18584848D01*
X55088550Y18540731D01*
X55088553Y18540731D01*
X55094186Y18539456D01*
X55099957Y18539229D01*
X55099959Y18539229D01*
X55161989Y18536792D01*
X55305470Y18531154D01*
X55311179Y18531982D01*
X55311183Y18531982D01*
X55509015Y18560667D01*
X55509019Y18560668D01*
X55514730Y18561496D01*
X55593987Y18588400D01*
X55709483Y18627605D01*
X55709488Y18627607D01*
X55714955Y18629463D01*
X55719998Y18632287D01*
X55894395Y18729954D01*
X55894399Y18729957D01*
X55899442Y18732781D01*
X56062012Y18867988D01*
X56197219Y19030558D01*
X56288676Y19193866D01*
X56339413Y19243528D01*
X56398610Y19258300D01*
X56634093Y19258300D01*
X56702214Y19238298D01*
X56748519Y19185051D01*
X56784369Y19107286D01*
X56906405Y18934609D01*
X57057865Y18787063D01*
X57062661Y18783858D01*
X57062664Y18783856D01*
X57205936Y18688125D01*
X57233677Y18669589D01*
X57238985Y18667308D01*
X57238986Y18667308D01*
X57422650Y18588400D01*
X57422653Y18588399D01*
X57427953Y18586122D01*
X57433582Y18584848D01*
X57433583Y18584848D01*
X57628550Y18540731D01*
X57628553Y18540731D01*
X57634186Y18539456D01*
X57639957Y18539229D01*
X57639959Y18539229D01*
X57701989Y18536792D01*
X57845470Y18531154D01*
X57851179Y18531982D01*
X57851183Y18531982D01*
X58049015Y18560667D01*
X58049019Y18560668D01*
X58054730Y18561496D01*
X58133987Y18588400D01*
X58249483Y18627605D01*
X58249488Y18627607D01*
X58254955Y18629463D01*
X58259998Y18632287D01*
X58434395Y18729954D01*
X58434399Y18729957D01*
X58439442Y18732781D01*
X58602012Y18867988D01*
X58737219Y19030558D01*
X58740043Y19035601D01*
X58740046Y19035605D01*
X58837713Y19210002D01*
X58837714Y19210004D01*
X58840537Y19215045D01*
X58842393Y19220512D01*
X58842395Y19220517D01*
X58906647Y19409800D01*
X58908504Y19415270D01*
X58938846Y19624530D01*
X58940429Y19685000D01*
X58937650Y19715246D01*
X66789967Y19715246D01*
X66803796Y19504251D01*
X66805217Y19498655D01*
X66805218Y19498650D01*
X66827784Y19409800D01*
X66855845Y19299310D01*
X66944369Y19107286D01*
X67066405Y18934609D01*
X67217865Y18787063D01*
X67222661Y18783858D01*
X67222664Y18783856D01*
X67365936Y18688125D01*
X67393677Y18669589D01*
X67398985Y18667308D01*
X67398986Y18667308D01*
X67582650Y18588400D01*
X67582653Y18588399D01*
X67587953Y18586122D01*
X67593582Y18584848D01*
X67593583Y18584848D01*
X67788550Y18540731D01*
X67788553Y18540731D01*
X67794186Y18539456D01*
X67799957Y18539229D01*
X67799959Y18539229D01*
X67861989Y18536792D01*
X68005470Y18531154D01*
X68011179Y18531982D01*
X68011183Y18531982D01*
X68209015Y18560667D01*
X68209019Y18560668D01*
X68214730Y18561496D01*
X68293987Y18588400D01*
X68409483Y18627605D01*
X68409488Y18627607D01*
X68414955Y18629463D01*
X68419998Y18632287D01*
X68594395Y18729954D01*
X68594399Y18729957D01*
X68599442Y18732781D01*
X68762012Y18867988D01*
X68897219Y19030558D01*
X68900043Y19035601D01*
X68900046Y19035605D01*
X68997713Y19210002D01*
X68997714Y19210004D01*
X69000537Y19215045D01*
X69002393Y19220512D01*
X69002395Y19220517D01*
X69066647Y19409800D01*
X69068504Y19415270D01*
X69098846Y19624530D01*
X69100429Y19685000D01*
X69081081Y19895560D01*
X69023686Y20099069D01*
X69017458Y20111700D01*
X68932719Y20283531D01*
X68930165Y20288710D01*
X68803651Y20458133D01*
X68648381Y20601663D01*
X68469554Y20714495D01*
X68273160Y20792848D01*
X68267503Y20793973D01*
X68267497Y20793975D01*
X68071442Y20832972D01*
X68071440Y20832972D01*
X68065775Y20834099D01*
X68060000Y20834175D01*
X68059996Y20834175D01*
X67953976Y20835563D01*
X67854346Y20836867D01*
X67848649Y20835888D01*
X67848648Y20835888D01*
X67651650Y20802038D01*
X67651649Y20802038D01*
X67645953Y20801059D01*
X67447575Y20727873D01*
X67442614Y20724921D01*
X67442613Y20724921D01*
X67425089Y20714495D01*
X67265856Y20619762D01*
X67106881Y20480345D01*
X66975976Y20314292D01*
X66973287Y20309181D01*
X66973285Y20309178D01*
X66959792Y20283531D01*
X66877523Y20127164D01*
X66814820Y19925227D01*
X66789967Y19715246D01*
X58937650Y19715246D01*
X58921081Y19895560D01*
X58863686Y20099069D01*
X58857458Y20111700D01*
X58772719Y20283531D01*
X58770165Y20288710D01*
X58643651Y20458133D01*
X58488381Y20601663D01*
X58309554Y20714495D01*
X58113160Y20792848D01*
X58107503Y20793973D01*
X58107497Y20793975D01*
X57911442Y20832972D01*
X57911440Y20832972D01*
X57905775Y20834099D01*
X57900000Y20834175D01*
X57899996Y20834175D01*
X57793976Y20835563D01*
X57694346Y20836867D01*
X57688649Y20835888D01*
X57688648Y20835888D01*
X57491650Y20802038D01*
X57491649Y20802038D01*
X57485953Y20801059D01*
X57287575Y20727873D01*
X57282614Y20724921D01*
X57282613Y20724921D01*
X57265089Y20714495D01*
X57105856Y20619762D01*
X56946881Y20480345D01*
X56815976Y20314292D01*
X56813287Y20309181D01*
X56813285Y20309178D01*
X56744812Y20179032D01*
X56695393Y20128060D01*
X56633304Y20111700D01*
X56395809Y20111700D01*
X56327688Y20131702D01*
X56282803Y20181971D01*
X56232719Y20283531D01*
X56230165Y20288710D01*
X56103651Y20458133D01*
X55948381Y20601663D01*
X55769554Y20714495D01*
X55573160Y20792848D01*
X55567503Y20793973D01*
X55567497Y20793975D01*
X55371442Y20832972D01*
X55371440Y20832972D01*
X55365775Y20834099D01*
X55360000Y20834175D01*
X55359996Y20834175D01*
X55253976Y20835563D01*
X55154346Y20836867D01*
X55148649Y20835888D01*
X55148648Y20835888D01*
X54951650Y20802038D01*
X54951649Y20802038D01*
X54945953Y20801059D01*
X54747575Y20727873D01*
X54742614Y20724921D01*
X54742613Y20724921D01*
X54725089Y20714495D01*
X54565856Y20619762D01*
X54406881Y20480345D01*
X54275976Y20314292D01*
X54273287Y20309181D01*
X54273285Y20309178D01*
X54259792Y20283531D01*
X54177523Y20127164D01*
X54114820Y19925227D01*
X54089967Y19715246D01*
X46237650Y19715246D01*
X46221081Y19895560D01*
X46163686Y20099069D01*
X46157458Y20111700D01*
X46072719Y20283531D01*
X46070165Y20288710D01*
X45943651Y20458133D01*
X45788381Y20601663D01*
X45609554Y20714495D01*
X45413160Y20792848D01*
X45407503Y20793973D01*
X45407497Y20793975D01*
X45211442Y20832972D01*
X45211440Y20832972D01*
X45205775Y20834099D01*
X45200000Y20834175D01*
X45199996Y20834175D01*
X45093976Y20835563D01*
X44994346Y20836867D01*
X44988649Y20835888D01*
X44988648Y20835888D01*
X44791650Y20802038D01*
X44791649Y20802038D01*
X44785953Y20801059D01*
X44587575Y20727873D01*
X44582614Y20724921D01*
X44582613Y20724921D01*
X44565089Y20714495D01*
X44405856Y20619762D01*
X44246881Y20480345D01*
X44115976Y20314292D01*
X44113287Y20309181D01*
X44113285Y20309178D01*
X44099792Y20283531D01*
X44017523Y20127164D01*
X44015810Y20121646D01*
X44015806Y20121636D01*
X43976832Y19996121D01*
X43937529Y19936995D01*
X43872500Y19908505D01*
X43802391Y19919695D01*
X43749461Y19967012D01*
X43730500Y20033485D01*
X43730500Y22609542D01*
X43750502Y22677663D01*
X43804158Y22724156D01*
X43874432Y22734260D01*
X43939012Y22704766D01*
X43978623Y22640558D01*
X44020845Y22474310D01*
X44109369Y22282286D01*
X44231405Y22109609D01*
X44382865Y21962063D01*
X44387661Y21958858D01*
X44387664Y21958856D01*
X44530936Y21863125D01*
X44558677Y21844589D01*
X44563985Y21842308D01*
X44563986Y21842308D01*
X44747650Y21763400D01*
X44747653Y21763399D01*
X44752953Y21761122D01*
X44758582Y21759848D01*
X44758583Y21759848D01*
X44953550Y21715731D01*
X44953553Y21715731D01*
X44959186Y21714456D01*
X44964957Y21714229D01*
X44964959Y21714229D01*
X45026989Y21711792D01*
X45170470Y21706154D01*
X45176179Y21706982D01*
X45176183Y21706982D01*
X45374015Y21735667D01*
X45374019Y21735668D01*
X45379730Y21736496D01*
X45458987Y21763400D01*
X45574483Y21802605D01*
X45574488Y21802607D01*
X45579955Y21804463D01*
X45584998Y21807287D01*
X45759395Y21904954D01*
X45759399Y21904957D01*
X45764442Y21907781D01*
X45927012Y22042988D01*
X46062219Y22205558D01*
X46065043Y22210601D01*
X46065046Y22210605D01*
X46162713Y22385002D01*
X46162714Y22385004D01*
X46165537Y22390045D01*
X46167393Y22395512D01*
X46167395Y22395517D01*
X46231647Y22584800D01*
X46233504Y22590270D01*
X46236299Y22609542D01*
X46263314Y22795860D01*
X46263314Y22795862D01*
X46263846Y22799530D01*
X46265429Y22860000D01*
X46262650Y22890246D01*
X54114967Y22890246D01*
X54128796Y22679251D01*
X54130217Y22673655D01*
X54130218Y22673650D01*
X54152784Y22584800D01*
X54180845Y22474310D01*
X54269369Y22282286D01*
X54391405Y22109609D01*
X54542865Y21962063D01*
X54547661Y21958858D01*
X54547664Y21958856D01*
X54690936Y21863125D01*
X54718677Y21844589D01*
X54723985Y21842308D01*
X54723986Y21842308D01*
X54907650Y21763400D01*
X54907653Y21763399D01*
X54912953Y21761122D01*
X54918582Y21759848D01*
X54918583Y21759848D01*
X55113550Y21715731D01*
X55113553Y21715731D01*
X55119186Y21714456D01*
X55124957Y21714229D01*
X55124959Y21714229D01*
X55186989Y21711792D01*
X55330470Y21706154D01*
X55336179Y21706982D01*
X55336183Y21706982D01*
X55534015Y21735667D01*
X55534019Y21735668D01*
X55539730Y21736496D01*
X55618987Y21763400D01*
X55734483Y21802605D01*
X55734488Y21802607D01*
X55739955Y21804463D01*
X55744998Y21807287D01*
X55919395Y21904954D01*
X55919399Y21904957D01*
X55924442Y21907781D01*
X56087012Y22042988D01*
X56222219Y22205558D01*
X56313676Y22368866D01*
X56364413Y22418528D01*
X56423610Y22433300D01*
X56634093Y22433300D01*
X56702214Y22413298D01*
X56748519Y22360051D01*
X56784369Y22282286D01*
X56906405Y22109609D01*
X57057865Y21962063D01*
X57062661Y21958858D01*
X57062664Y21958856D01*
X57205936Y21863125D01*
X57233677Y21844589D01*
X57238985Y21842308D01*
X57238986Y21842308D01*
X57422650Y21763400D01*
X57422653Y21763399D01*
X57427953Y21761122D01*
X57433582Y21759848D01*
X57433583Y21759848D01*
X57628550Y21715731D01*
X57628553Y21715731D01*
X57634186Y21714456D01*
X57639957Y21714229D01*
X57639959Y21714229D01*
X57701989Y21711792D01*
X57845470Y21706154D01*
X57851179Y21706982D01*
X57851183Y21706982D01*
X58049015Y21735667D01*
X58049019Y21735668D01*
X58054730Y21736496D01*
X58133987Y21763400D01*
X58249483Y21802605D01*
X58249488Y21802607D01*
X58254955Y21804463D01*
X58259998Y21807287D01*
X58434395Y21904954D01*
X58434399Y21904957D01*
X58439442Y21907781D01*
X58602012Y22042988D01*
X58737219Y22205558D01*
X58740043Y22210601D01*
X58740046Y22210605D01*
X58837713Y22385002D01*
X58837714Y22385004D01*
X58840537Y22390045D01*
X58842393Y22395512D01*
X58842395Y22395517D01*
X58906647Y22584800D01*
X58908504Y22590270D01*
X58911299Y22609542D01*
X58938314Y22795860D01*
X58938314Y22795862D01*
X58938846Y22799530D01*
X58940429Y22860000D01*
X58937650Y22890246D01*
X66789967Y22890246D01*
X66803796Y22679251D01*
X66805217Y22673655D01*
X66805218Y22673650D01*
X66827784Y22584800D01*
X66855845Y22474310D01*
X66944369Y22282286D01*
X67066405Y22109609D01*
X67217865Y21962063D01*
X67222661Y21958858D01*
X67222664Y21958856D01*
X67365936Y21863125D01*
X67393677Y21844589D01*
X67398985Y21842308D01*
X67398986Y21842308D01*
X67582650Y21763400D01*
X67582653Y21763399D01*
X67587953Y21761122D01*
X67593582Y21759848D01*
X67593583Y21759848D01*
X67788550Y21715731D01*
X67788553Y21715731D01*
X67794186Y21714456D01*
X67799957Y21714229D01*
X67799959Y21714229D01*
X67861989Y21711792D01*
X68005470Y21706154D01*
X68011179Y21706982D01*
X68011183Y21706982D01*
X68209015Y21735667D01*
X68209019Y21735668D01*
X68214730Y21736496D01*
X68293987Y21763400D01*
X68409483Y21802605D01*
X68409488Y21802607D01*
X68414955Y21804463D01*
X68419998Y21807287D01*
X68594395Y21904954D01*
X68594399Y21904957D01*
X68599442Y21907781D01*
X68762012Y22042988D01*
X68897219Y22205558D01*
X68900043Y22210601D01*
X68900046Y22210605D01*
X68997713Y22385002D01*
X68997714Y22385004D01*
X69000537Y22390045D01*
X69002393Y22395512D01*
X69002395Y22395517D01*
X69066647Y22584800D01*
X69068504Y22590270D01*
X69071299Y22609542D01*
X69098314Y22795860D01*
X69098314Y22795862D01*
X69098846Y22799530D01*
X69100429Y22860000D01*
X69081081Y23070560D01*
X69023686Y23274069D01*
X69017458Y23286700D01*
X68932719Y23458531D01*
X68930165Y23463710D01*
X68803651Y23633133D01*
X68648381Y23776663D01*
X68532492Y23849784D01*
X68474434Y23886416D01*
X68474433Y23886416D01*
X68469554Y23889495D01*
X68273160Y23967848D01*
X68267503Y23968973D01*
X68267497Y23968975D01*
X68071442Y24007972D01*
X68071440Y24007972D01*
X68065775Y24009099D01*
X68060000Y24009175D01*
X68059996Y24009175D01*
X67953976Y24010563D01*
X67854346Y24011867D01*
X67848649Y24010888D01*
X67848648Y24010888D01*
X67651650Y23977038D01*
X67651649Y23977038D01*
X67645953Y23976059D01*
X67447575Y23902873D01*
X67442614Y23899921D01*
X67442613Y23899921D01*
X67425089Y23889495D01*
X67265856Y23794762D01*
X67106881Y23655345D01*
X66975976Y23489292D01*
X66973287Y23484181D01*
X66973285Y23484178D01*
X66959792Y23458531D01*
X66877523Y23302164D01*
X66814820Y23100227D01*
X66789967Y22890246D01*
X58937650Y22890246D01*
X58921081Y23070560D01*
X58863686Y23274069D01*
X58857458Y23286700D01*
X58772719Y23458531D01*
X58770165Y23463710D01*
X58643651Y23633133D01*
X58488381Y23776663D01*
X58372492Y23849784D01*
X58314434Y23886416D01*
X58314433Y23886416D01*
X58309554Y23889495D01*
X58113160Y23967848D01*
X58107503Y23968973D01*
X58107497Y23968975D01*
X57911442Y24007972D01*
X57911440Y24007972D01*
X57905775Y24009099D01*
X57900000Y24009175D01*
X57899996Y24009175D01*
X57793976Y24010563D01*
X57694346Y24011867D01*
X57688649Y24010888D01*
X57688648Y24010888D01*
X57491650Y23977038D01*
X57491649Y23977038D01*
X57485953Y23976059D01*
X57287575Y23902873D01*
X57282614Y23899921D01*
X57282613Y23899921D01*
X57265089Y23889495D01*
X57105856Y23794762D01*
X56946881Y23655345D01*
X56815976Y23489292D01*
X56813287Y23484181D01*
X56813285Y23484178D01*
X56744812Y23354032D01*
X56695393Y23303060D01*
X56633304Y23286700D01*
X56420809Y23286700D01*
X56352688Y23306702D01*
X56307803Y23356971D01*
X56257719Y23458531D01*
X56255165Y23463710D01*
X56128651Y23633133D01*
X55973381Y23776663D01*
X55857492Y23849784D01*
X55799434Y23886416D01*
X55799433Y23886416D01*
X55794554Y23889495D01*
X55598160Y23967848D01*
X55592503Y23968973D01*
X55592497Y23968975D01*
X55396442Y24007972D01*
X55396440Y24007972D01*
X55390775Y24009099D01*
X55385000Y24009175D01*
X55384996Y24009175D01*
X55278976Y24010563D01*
X55179346Y24011867D01*
X55173649Y24010888D01*
X55173648Y24010888D01*
X54976650Y23977038D01*
X54976649Y23977038D01*
X54970953Y23976059D01*
X54772575Y23902873D01*
X54767614Y23899921D01*
X54767613Y23899921D01*
X54750089Y23889495D01*
X54590856Y23794762D01*
X54431881Y23655345D01*
X54300976Y23489292D01*
X54298287Y23484181D01*
X54298285Y23484178D01*
X54284792Y23458531D01*
X54202523Y23302164D01*
X54139820Y23100227D01*
X54114967Y22890246D01*
X46262650Y22890246D01*
X46246081Y23070560D01*
X46188686Y23274069D01*
X46182458Y23286700D01*
X46097719Y23458531D01*
X46095165Y23463710D01*
X45968651Y23633133D01*
X45813381Y23776663D01*
X45697492Y23849784D01*
X45639434Y23886416D01*
X45639433Y23886416D01*
X45634554Y23889495D01*
X45438160Y23967848D01*
X45432503Y23968973D01*
X45432497Y23968975D01*
X45236442Y24007972D01*
X45236440Y24007972D01*
X45230775Y24009099D01*
X45225000Y24009175D01*
X45224996Y24009175D01*
X45118976Y24010563D01*
X45019346Y24011867D01*
X45013649Y24010888D01*
X45013648Y24010888D01*
X44816650Y23977038D01*
X44816649Y23977038D01*
X44810953Y23976059D01*
X44612575Y23902873D01*
X44607614Y23899921D01*
X44607613Y23899921D01*
X44590089Y23889495D01*
X44430856Y23794762D01*
X44271881Y23655345D01*
X44140976Y23489292D01*
X44138287Y23484181D01*
X44138285Y23484178D01*
X44124792Y23458531D01*
X44042523Y23302164D01*
X43979820Y23100227D01*
X43979403Y23096705D01*
X43946019Y23034868D01*
X43883869Y23000546D01*
X43813030Y23005274D01*
X43755993Y23047549D01*
X43730865Y23113951D01*
X43730500Y23123538D01*
X43730500Y23849784D01*
X43750502Y23917905D01*
X43767404Y23938879D01*
X44641119Y24812595D01*
X44703432Y24846620D01*
X44730215Y24849500D01*
X50150007Y24849500D01*
X50155284Y24849389D01*
X50217294Y24846790D01*
X50228848Y24849500D01*
X50259662Y24856727D01*
X50271333Y24858890D01*
X50286229Y24860931D01*
X50314432Y24864794D01*
X50328230Y24870765D01*
X50349499Y24877799D01*
X50355775Y24879271D01*
X50364136Y24881232D01*
X50371661Y24885369D01*
X50371664Y24885370D01*
X50402268Y24902195D01*
X50412913Y24907411D01*
X50452855Y24924695D01*
X50464541Y24934158D01*
X50483126Y24946646D01*
X50490518Y24950710D01*
X50496308Y24953893D01*
X50504422Y24960897D01*
X50528958Y24985433D01*
X50538759Y24994258D01*
X50563392Y25014206D01*
X50563393Y25014207D01*
X50570070Y25019614D01*
X50575043Y25026612D01*
X50575048Y25026617D01*
X50580968Y25034948D01*
X50594579Y25051054D01*
X51016935Y25473410D01*
X51079247Y25507436D01*
X51133838Y25507208D01*
X51271995Y25475946D01*
X51272001Y25475945D01*
X51277632Y25474671D01*
X51283403Y25474444D01*
X51283405Y25474444D01*
X51351211Y25471780D01*
X51498098Y25466009D01*
X51622655Y25484069D01*
X51710738Y25496840D01*
X51710743Y25496841D01*
X51716452Y25497669D01*
X51721916Y25499524D01*
X51721921Y25499525D01*
X51919907Y25566732D01*
X51919912Y25566734D01*
X51925379Y25568590D01*
X52117884Y25676398D01*
X52137987Y25693117D01*
X52283086Y25813796D01*
X52287518Y25817482D01*
X52368315Y25914629D01*
X52424908Y25982674D01*
X52424910Y25982677D01*
X52428602Y25987116D01*
X52493606Y26103188D01*
X52533586Y26174578D01*
X52533587Y26174580D01*
X52536410Y26179621D01*
X52538266Y26185088D01*
X52538268Y26185093D01*
X52605475Y26383079D01*
X52605476Y26383084D01*
X52607331Y26388548D01*
X52608159Y26394261D01*
X52609509Y26399883D01*
X52610854Y26399560D01*
X52637611Y26457953D01*
X52697385Y26496262D01*
X52768382Y26496172D01*
X52828059Y26457713D01*
X52854854Y26406336D01*
X52884423Y26289907D01*
X52884425Y26289902D01*
X52885845Y26284310D01*
X52888262Y26279067D01*
X52932464Y26183185D01*
X52974369Y26092286D01*
X53096405Y25919609D01*
X53121724Y25894944D01*
X53213293Y25805742D01*
X53247865Y25772063D01*
X53252661Y25768858D01*
X53252664Y25768856D01*
X53355216Y25700333D01*
X53423677Y25654589D01*
X53428985Y25652308D01*
X53428986Y25652308D01*
X53612650Y25573400D01*
X53612653Y25573399D01*
X53617953Y25571122D01*
X53623582Y25569848D01*
X53623583Y25569848D01*
X53818550Y25525731D01*
X53818553Y25525731D01*
X53824186Y25524456D01*
X53829957Y25524229D01*
X53829959Y25524229D01*
X53884400Y25522090D01*
X54035470Y25516154D01*
X54041179Y25516982D01*
X54041183Y25516982D01*
X54239015Y25545667D01*
X54239019Y25545668D01*
X54244730Y25546496D01*
X54323987Y25573400D01*
X54439483Y25612605D01*
X54439488Y25612607D01*
X54444955Y25614463D01*
X54449998Y25617287D01*
X54624395Y25714954D01*
X54624399Y25714957D01*
X54629442Y25717781D01*
X54792012Y25852988D01*
X54927219Y26015558D01*
X54930043Y26020601D01*
X54930046Y26020605D01*
X55027713Y26195002D01*
X55027714Y26195004D01*
X55030537Y26200045D01*
X55032393Y26205512D01*
X55032395Y26205517D01*
X55086049Y26363579D01*
X55098504Y26400270D01*
X55098969Y26403478D01*
X67932273Y26403478D01*
X67979764Y26226239D01*
X67983510Y26215947D01*
X68075586Y26018489D01*
X68081069Y26008993D01*
X68206028Y25830533D01*
X68213084Y25822125D01*
X68367125Y25668084D01*
X68375533Y25661028D01*
X68553993Y25536069D01*
X68563489Y25530586D01*
X68760947Y25438510D01*
X68771239Y25434764D01*
X68943503Y25388606D01*
X68957599Y25388942D01*
X68961000Y25396884D01*
X68961000Y26397885D01*
X68956525Y26413124D01*
X68955135Y26414329D01*
X68947452Y26416000D01*
X67947033Y26416000D01*
X67933502Y26412027D01*
X67932273Y26403478D01*
X55098969Y26403478D01*
X55099577Y26407665D01*
X55128314Y26605860D01*
X55128314Y26605862D01*
X55128846Y26609530D01*
X55130429Y26670000D01*
X55111081Y26880560D01*
X55105899Y26898936D01*
X55070570Y27024201D01*
X55053686Y27084069D01*
X55043796Y27104125D01*
X54962719Y27268531D01*
X54960165Y27273710D01*
X54833651Y27443133D01*
X54678381Y27586663D01*
X54499554Y27699495D01*
X54303160Y27777848D01*
X54297503Y27778973D01*
X54297497Y27778975D01*
X54100234Y27818212D01*
X54037324Y27851119D01*
X54002192Y27912814D01*
X54005992Y27983709D01*
X54047517Y28041295D01*
X54106734Y28066487D01*
X54239015Y28085667D01*
X54239019Y28085668D01*
X54244730Y28086496D01*
X54362069Y28126327D01*
X54439483Y28152605D01*
X54439490Y28152608D01*
X54444955Y28154463D01*
X54449998Y28157287D01*
X54624395Y28254954D01*
X54624399Y28254957D01*
X54629442Y28257781D01*
X54792012Y28392988D01*
X54927219Y28555558D01*
X54930043Y28560601D01*
X54930046Y28560605D01*
X55027713Y28735002D01*
X55027714Y28735004D01*
X55030537Y28740045D01*
X55032393Y28745512D01*
X55032395Y28745517D01*
X55079173Y28883324D01*
X55098504Y28940270D01*
X55112410Y29036172D01*
X55128314Y29145860D01*
X55128314Y29145862D01*
X55128846Y29149530D01*
X55130429Y29210000D01*
X55111081Y29420560D01*
X55105899Y29438936D01*
X55055255Y29618504D01*
X55053686Y29624069D01*
X55042553Y29646646D01*
X54962719Y29808531D01*
X54960165Y29813710D01*
X54846047Y29966533D01*
X54837104Y29978509D01*
X54837103Y29978510D01*
X54833651Y29983133D01*
X54678381Y30126663D01*
X54499554Y30239495D01*
X54303160Y30317848D01*
X54297503Y30318973D01*
X54297497Y30318975D01*
X54100234Y30358212D01*
X54037324Y30391119D01*
X54002192Y30452814D01*
X54005992Y30523709D01*
X54047517Y30581295D01*
X54106734Y30606487D01*
X54239015Y30625667D01*
X54239019Y30625668D01*
X54244730Y30626496D01*
X54323987Y30653400D01*
X54439483Y30692605D01*
X54439488Y30692607D01*
X54444955Y30694463D01*
X54449998Y30697287D01*
X54624395Y30794954D01*
X54624399Y30794957D01*
X54629442Y30797781D01*
X54792012Y30932988D01*
X54927219Y31095558D01*
X54930043Y31100601D01*
X54930046Y31100605D01*
X55027713Y31275002D01*
X55027714Y31275004D01*
X55030537Y31280045D01*
X55032393Y31285512D01*
X55032395Y31285517D01*
X55096647Y31474800D01*
X55098504Y31480270D01*
X55099577Y31487665D01*
X55128314Y31685860D01*
X55128314Y31685862D01*
X55128846Y31689530D01*
X55130429Y31750000D01*
X55111081Y31960560D01*
X55105899Y31978936D01*
X55092570Y32026197D01*
X55053686Y32164069D01*
X55048141Y32175315D01*
X54962719Y32348531D01*
X54960165Y32353710D01*
X54833651Y32523133D01*
X54733286Y32615910D01*
X54682622Y32662743D01*
X54682620Y32662745D01*
X54678381Y32666663D01*
X54615180Y32706540D01*
X54504434Y32776416D01*
X54504433Y32776416D01*
X54499554Y32779495D01*
X54303160Y32857848D01*
X54297503Y32858973D01*
X54297497Y32858975D01*
X54100234Y32898212D01*
X54037324Y32931119D01*
X54002192Y32992814D01*
X54005992Y33063709D01*
X54047517Y33121295D01*
X54106734Y33146487D01*
X54239015Y33165667D01*
X54239019Y33165668D01*
X54244730Y33166496D01*
X54312197Y33189398D01*
X54439483Y33232605D01*
X54439488Y33232607D01*
X54444955Y33234463D01*
X54456367Y33240854D01*
X54624395Y33334954D01*
X54624399Y33334957D01*
X54629442Y33337781D01*
X54792012Y33472988D01*
X54927219Y33635558D01*
X54930043Y33640601D01*
X54930046Y33640605D01*
X55027713Y33815002D01*
X55027714Y33815004D01*
X55030537Y33820045D01*
X55032393Y33825512D01*
X55032395Y33825517D01*
X55079173Y33963324D01*
X55098504Y34020270D01*
X55099577Y34027665D01*
X55128314Y34225860D01*
X55128314Y34225862D01*
X55128846Y34229530D01*
X55130429Y34290000D01*
X55111081Y34500560D01*
X55105899Y34518936D01*
X55070570Y34644201D01*
X55053686Y34704069D01*
X55030197Y34751701D01*
X54962719Y34888531D01*
X54960165Y34893710D01*
X54833651Y35063133D01*
X54721284Y35167004D01*
X54682622Y35202743D01*
X54682620Y35202745D01*
X54678381Y35206663D01*
X54499554Y35319495D01*
X54303160Y35397848D01*
X54297503Y35398973D01*
X54297497Y35398975D01*
X54100234Y35438212D01*
X54037324Y35471119D01*
X54002192Y35532814D01*
X54005992Y35603709D01*
X54047517Y35661295D01*
X54106734Y35686487D01*
X54239015Y35705667D01*
X54239019Y35705668D01*
X54244730Y35706496D01*
X54365283Y35747418D01*
X54439483Y35772605D01*
X54439488Y35772607D01*
X54444955Y35774463D01*
X54449998Y35777287D01*
X54624395Y35874954D01*
X54624399Y35874957D01*
X54629442Y35877781D01*
X54792012Y36012988D01*
X54927219Y36175558D01*
X54930043Y36180601D01*
X54930046Y36180605D01*
X55027713Y36355002D01*
X55027714Y36355004D01*
X55030537Y36360045D01*
X55032393Y36365512D01*
X55032395Y36365517D01*
X55079173Y36503324D01*
X55098504Y36560270D01*
X55112410Y36656172D01*
X55128314Y36765860D01*
X55128314Y36765862D01*
X55128846Y36769530D01*
X55130429Y36830000D01*
X55111081Y37040560D01*
X55105899Y37058936D01*
X55055255Y37238505D01*
X55053686Y37244069D01*
X55050678Y37250170D01*
X55050594Y37250648D01*
X55049060Y37254645D01*
X55049845Y37254946D01*
X55038486Y37320108D01*
X55066042Y37385539D01*
X55124598Y37425685D01*
X55163682Y37431900D01*
X66941465Y37431900D01*
X67009586Y37411898D01*
X67030560Y37394995D01*
X67722795Y36702760D01*
X67756821Y36640448D01*
X67759700Y36613665D01*
X67759700Y32811410D01*
X67758827Y32796602D01*
X67755092Y32765045D01*
X67756784Y32755783D01*
X67756784Y32755774D01*
X67765063Y32710448D01*
X67765714Y32706540D01*
X67773956Y32651716D01*
X67776916Y32645552D01*
X67778145Y32638823D01*
X67803722Y32589585D01*
X67805479Y32586069D01*
X67825420Y32544541D01*
X67825422Y32544537D01*
X67829498Y32536050D01*
X67834141Y32531028D01*
X67837293Y32524959D01*
X67841374Y32520181D01*
X67876549Y32485006D01*
X67879978Y32481441D01*
X67916595Y32441829D01*
X67922687Y32438290D01*
X67928224Y32433331D01*
X68098905Y32262650D01*
X68132931Y32200338D01*
X68130143Y32136191D01*
X68084820Y31990227D01*
X68059967Y31780246D01*
X68073796Y31569251D01*
X68075217Y31563655D01*
X68075218Y31563650D01*
X68124424Y31369905D01*
X68125845Y31364310D01*
X68128262Y31359067D01*
X68172464Y31263185D01*
X68214369Y31172286D01*
X68336405Y30999609D01*
X68340539Y30995582D01*
X68451125Y30887854D01*
X68487865Y30852063D01*
X68492661Y30848858D01*
X68492664Y30848856D01*
X68583616Y30788084D01*
X68663677Y30734589D01*
X68668985Y30732308D01*
X68668986Y30732308D01*
X68852650Y30653400D01*
X68852653Y30653399D01*
X68857953Y30651122D01*
X68863582Y30649848D01*
X68863583Y30649848D01*
X69058550Y30605731D01*
X69058553Y30605731D01*
X69064186Y30604456D01*
X69069958Y30604229D01*
X69075687Y30603475D01*
X69075327Y30600743D01*
X69131604Y30581784D01*
X69175950Y30526341D01*
X69183282Y30455724D01*
X69151271Y30392353D01*
X69090081Y30356349D01*
X69080704Y30354368D01*
X68921650Y30327038D01*
X68921649Y30327038D01*
X68915953Y30326059D01*
X68717575Y30252873D01*
X68712614Y30249921D01*
X68712613Y30249921D01*
X68577577Y30169583D01*
X68535856Y30144762D01*
X68376881Y30005345D01*
X68245976Y29839292D01*
X68243287Y29834181D01*
X68243285Y29834178D01*
X68193400Y29739362D01*
X68147523Y29652164D01*
X68084820Y29450227D01*
X68059967Y29240246D01*
X68073796Y29029251D01*
X68075217Y29023655D01*
X68075218Y29023650D01*
X68124424Y28829905D01*
X68125845Y28824310D01*
X68128262Y28819067D01*
X68172151Y28723865D01*
X68214369Y28632286D01*
X68336405Y28459609D01*
X68404648Y28393130D01*
X68460992Y28338242D01*
X68487865Y28312063D01*
X68492661Y28308858D01*
X68492664Y28308856D01*
X68604139Y28234371D01*
X68663677Y28194589D01*
X68668985Y28192308D01*
X68668986Y28192308D01*
X68785940Y28142061D01*
X68840634Y28096793D01*
X68862171Y28029142D01*
X68843714Y27960586D01*
X68791123Y27912892D01*
X68776318Y27907380D01*
X68776413Y27907119D01*
X68760947Y27901490D01*
X68563489Y27809414D01*
X68553993Y27803931D01*
X68375533Y27678972D01*
X68367125Y27671916D01*
X68213084Y27517875D01*
X68206028Y27509467D01*
X68081069Y27331007D01*
X68075586Y27321511D01*
X67983510Y27124053D01*
X67979764Y27113761D01*
X67933606Y26941497D01*
X67933942Y26927401D01*
X67941884Y26924000D01*
X69343000Y26924000D01*
X69411121Y26903998D01*
X69457614Y26850342D01*
X69469000Y26798000D01*
X69469000Y25402033D01*
X69472973Y25388502D01*
X69481522Y25387273D01*
X69658761Y25434764D01*
X69669053Y25438510D01*
X69866511Y25530586D01*
X69876007Y25536069D01*
X70054467Y25661028D01*
X70062875Y25668084D01*
X70216916Y25822125D01*
X70223972Y25830533D01*
X70348931Y26008993D01*
X70354414Y26018489D01*
X70430106Y26180812D01*
X70477023Y26234097D01*
X70545301Y26253558D01*
X70613261Y26233016D01*
X70658726Y26180315D01*
X70710883Y26067179D01*
X70838222Y25886998D01*
X70996264Y25733039D01*
X71001060Y25729834D01*
X71001063Y25729832D01*
X71085261Y25673573D01*
X71179717Y25610460D01*
X71185020Y25608182D01*
X71185023Y25608180D01*
X71376929Y25525731D01*
X71382436Y25523365D01*
X71462088Y25505342D01*
X71591995Y25475946D01*
X71592001Y25475945D01*
X71597632Y25474671D01*
X71603403Y25474444D01*
X71603405Y25474444D01*
X71671211Y25471780D01*
X71818098Y25466009D01*
X71942655Y25484069D01*
X72030738Y25496840D01*
X72030743Y25496841D01*
X72036452Y25497669D01*
X72041916Y25499524D01*
X72041921Y25499525D01*
X72239907Y25566732D01*
X72239912Y25566734D01*
X72245379Y25568590D01*
X72437884Y25676398D01*
X72457987Y25693117D01*
X72603086Y25813796D01*
X72607518Y25817482D01*
X72688315Y25914629D01*
X72744908Y25982674D01*
X72744910Y25982677D01*
X72748602Y25987116D01*
X72813606Y26103188D01*
X72853586Y26174578D01*
X72853587Y26174580D01*
X72856410Y26179621D01*
X72858266Y26185088D01*
X72858268Y26185093D01*
X72925475Y26383079D01*
X72925476Y26383084D01*
X72927331Y26388548D01*
X72928159Y26394257D01*
X72928160Y26394262D01*
X72929287Y26402034D01*
X73598257Y26402034D01*
X73628565Y26267554D01*
X73631645Y26257725D01*
X73711770Y26060397D01*
X73716413Y26051206D01*
X73827694Y25869612D01*
X73833777Y25861301D01*
X73973213Y25700333D01*
X73980580Y25693117D01*
X74144434Y25557084D01*
X74152881Y25551169D01*
X74336756Y25443721D01*
X74346042Y25439271D01*
X74545001Y25363297D01*
X74554899Y25360421D01*
X74658250Y25339394D01*
X74672299Y25340590D01*
X74676000Y25350935D01*
X74676000Y25351483D01*
X75184000Y25351483D01*
X75188064Y25337641D01*
X75201478Y25335607D01*
X75208184Y25336466D01*
X75218262Y25338608D01*
X75422255Y25399809D01*
X75431842Y25403567D01*
X75623095Y25497261D01*
X75631945Y25502536D01*
X75805328Y25626208D01*
X75813200Y25632861D01*
X75964052Y25783188D01*
X75970730Y25791035D01*
X76095003Y25963980D01*
X76100313Y25972817D01*
X76194670Y26163733D01*
X76198469Y26173328D01*
X76260377Y26377090D01*
X76262555Y26387163D01*
X76263986Y26398038D01*
X76261775Y26412222D01*
X76248617Y26416000D01*
X75202115Y26416000D01*
X75186876Y26411525D01*
X75185671Y26410135D01*
X75184000Y26402452D01*
X75184000Y25351483D01*
X74676000Y25351483D01*
X74676000Y26397885D01*
X74671525Y26413124D01*
X74670135Y26414329D01*
X74662452Y26416000D01*
X73613225Y26416000D01*
X73599694Y26412027D01*
X73598257Y26402034D01*
X72929287Y26402034D01*
X72958458Y26603228D01*
X72958991Y26606902D01*
X72960643Y26670000D01*
X72940454Y26889711D01*
X72938677Y26896014D01*
X72890671Y27066229D01*
X72880565Y27102064D01*
X72782980Y27299947D01*
X72775455Y27310025D01*
X72654420Y27472109D01*
X72654420Y27472110D01*
X72650967Y27476733D01*
X72536286Y27582743D01*
X72493189Y27622582D01*
X72493186Y27622584D01*
X72488949Y27626501D01*
X72302350Y27744236D01*
X72099955Y27824983D01*
X72044096Y27868804D01*
X72020795Y27935868D01*
X72037451Y28004883D01*
X72088775Y28053937D01*
X72106144Y28061326D01*
X72239907Y28106732D01*
X72239912Y28106734D01*
X72245379Y28108590D01*
X72437884Y28216398D01*
X72443833Y28221345D01*
X72589265Y28342301D01*
X72607518Y28357482D01*
X72654116Y28413510D01*
X72744908Y28522674D01*
X72744910Y28522677D01*
X72748602Y28527116D01*
X72856410Y28719621D01*
X72858266Y28725088D01*
X72858268Y28725093D01*
X72925475Y28923079D01*
X72925476Y28923084D01*
X72927331Y28928548D01*
X72928159Y28934257D01*
X72928160Y28934262D01*
X72958458Y29143228D01*
X72958991Y29146902D01*
X72960295Y29196711D01*
X72982073Y29264284D01*
X73036927Y29309357D01*
X73107442Y29317618D01*
X73175347Y29282508D01*
X73526377Y28931478D01*
X73536232Y28920388D01*
X73550070Y28902834D01*
X73550074Y28902830D01*
X73555904Y28895435D01*
X73563651Y28890080D01*
X73563653Y28890079D01*
X73601532Y28863900D01*
X73604754Y28861598D01*
X73641803Y28834232D01*
X73641807Y28834230D01*
X73649379Y28828637D01*
X73655831Y28826371D01*
X73661457Y28822483D01*
X73670434Y28819644D01*
X73670436Y28819643D01*
X73714361Y28805752D01*
X73718110Y28804501D01*
X73724363Y28802305D01*
X73759413Y28789996D01*
X73817058Y28748553D01*
X73832090Y28723865D01*
X73885883Y28607179D01*
X74013222Y28426998D01*
X74171264Y28273039D01*
X74176060Y28269834D01*
X74176063Y28269832D01*
X74296553Y28189324D01*
X74354717Y28150460D01*
X74360020Y28148182D01*
X74360023Y28148180D01*
X74372546Y28142800D01*
X74427239Y28097531D01*
X74448776Y28029880D01*
X74430319Y27961325D01*
X74380988Y27915269D01*
X74208463Y27825458D01*
X74199738Y27819964D01*
X74029433Y27692095D01*
X74021726Y27685252D01*
X73874590Y27531283D01*
X73868104Y27523273D01*
X73748098Y27347351D01*
X73743000Y27338377D01*
X73653338Y27145217D01*
X73649775Y27135530D01*
X73594389Y26935817D01*
X73595912Y26927393D01*
X73608292Y26924000D01*
X76248344Y26924000D01*
X76261875Y26927973D01*
X76263180Y26937053D01*
X76221214Y27104125D01*
X76217894Y27113876D01*
X76132972Y27309186D01*
X76128105Y27318261D01*
X76012426Y27497074D01*
X76006136Y27505243D01*
X75862806Y27662760D01*
X75855273Y27669785D01*
X75688139Y27801778D01*
X75679552Y27807483D01*
X75493115Y27910402D01*
X75484687Y27914190D01*
X75430752Y27960359D01*
X75410340Y28028358D01*
X75429932Y28096598D01*
X75474771Y28139051D01*
X75481465Y28142800D01*
X75612884Y28216398D01*
X75618833Y28221345D01*
X75764265Y28342301D01*
X75782518Y28357482D01*
X75829116Y28413510D01*
X75919908Y28522674D01*
X75919910Y28522677D01*
X75923602Y28527116D01*
X76031410Y28719621D01*
X76033266Y28725088D01*
X76033268Y28725093D01*
X76100475Y28923079D01*
X76100476Y28923084D01*
X76102331Y28928548D01*
X76103159Y28934257D01*
X76103160Y28934262D01*
X76133458Y29143228D01*
X76133991Y29146902D01*
X76135643Y29210000D01*
X76115454Y29429711D01*
X76055565Y29642064D01*
X75957980Y29839947D01*
X75936022Y29869353D01*
X75829420Y30012109D01*
X75829420Y30012110D01*
X75825967Y30016733D01*
X75805803Y30035373D01*
X75703712Y30129744D01*
X75698911Y30134182D01*
X75662467Y30195110D01*
X75664748Y30266069D01*
X75695346Y30315801D01*
X77268222Y31888677D01*
X77279312Y31898532D01*
X77296866Y31912370D01*
X77296870Y31912374D01*
X77304265Y31918204D01*
X77335807Y31963842D01*
X77338102Y31967054D01*
X77365468Y32004103D01*
X77365470Y32004107D01*
X77371063Y32011679D01*
X77373329Y32018131D01*
X77377217Y32023757D01*
X77393948Y32076661D01*
X77395202Y32080419D01*
X77399228Y32091881D01*
X77413577Y32132741D01*
X77413846Y32139577D01*
X77415907Y32146095D01*
X77416400Y32152359D01*
X77416400Y32202120D01*
X77416497Y32207066D01*
X77418244Y32251539D01*
X77418614Y32260952D01*
X77416808Y32267763D01*
X77416400Y32275178D01*
X77416400Y64268898D01*
X77417273Y64283708D01*
X77419900Y64305903D01*
X77421007Y64315255D01*
X77418244Y64330384D01*
X77411042Y64369822D01*
X77410392Y64373725D01*
X77403544Y64419275D01*
X77403543Y64419278D01*
X77402144Y64428584D01*
X77399184Y64434749D01*
X77397955Y64441477D01*
X77372378Y64490715D01*
X77370621Y64494231D01*
X77350680Y64535759D01*
X77350678Y64535763D01*
X77346602Y64544250D01*
X77341959Y64549272D01*
X77338807Y64555341D01*
X77334726Y64560119D01*
X77299551Y64595294D01*
X77296121Y64598860D01*
X77265897Y64631556D01*
X77265898Y64631556D01*
X77259505Y64638471D01*
X77253413Y64642010D01*
X77247876Y64646969D01*
X75691741Y66203104D01*
X75657715Y66265416D01*
X75662780Y66336231D01*
X75700266Y66389073D01*
X75778085Y66453795D01*
X75778086Y66453796D01*
X75782518Y66457482D01*
X75899590Y66598245D01*
X75919908Y66622674D01*
X75919910Y66622677D01*
X75923602Y66627116D01*
X76031410Y66819621D01*
X76033266Y66825088D01*
X76033268Y66825093D01*
X76100475Y67023079D01*
X76100476Y67023084D01*
X76102331Y67028548D01*
X76103159Y67034257D01*
X76103160Y67034262D01*
X76133458Y67243228D01*
X76133991Y67246902D01*
X76135643Y67310000D01*
X76115454Y67529711D01*
X76055565Y67742064D01*
X75957980Y67939947D01*
X75953002Y67946614D01*
X75829420Y68112109D01*
X75829420Y68112110D01*
X75825967Y68116733D01*
X75687466Y68244762D01*
X75668189Y68262582D01*
X75668186Y68262584D01*
X75663949Y68266501D01*
X75477350Y68384236D01*
X75274955Y68464983D01*
X75219096Y68508804D01*
X75195795Y68575868D01*
X75212451Y68644883D01*
X75263775Y68693937D01*
X75281144Y68701326D01*
X75414907Y68746732D01*
X75414912Y68746734D01*
X75420379Y68748590D01*
X75612884Y68856398D01*
X75680717Y68912814D01*
X75778086Y68993796D01*
X75782518Y68997482D01*
X75850210Y69078872D01*
X75919908Y69162674D01*
X75919910Y69162677D01*
X75923602Y69167116D01*
X76000448Y69304335D01*
X76028586Y69354578D01*
X76028587Y69354580D01*
X76031410Y69359621D01*
X76033266Y69365088D01*
X76033268Y69365093D01*
X76100475Y69563079D01*
X76100476Y69563084D01*
X76102331Y69568548D01*
X76103159Y69574257D01*
X76103160Y69574262D01*
X76128347Y69747979D01*
X76133991Y69786902D01*
X76135643Y69850000D01*
X76115454Y70069711D01*
X76099524Y70126197D01*
X76078072Y70202259D01*
X76055565Y70282064D01*
X75957980Y70479947D01*
X75950455Y70490025D01*
X75829420Y70652109D01*
X75829420Y70652110D01*
X75825967Y70656733D01*
X75711286Y70762743D01*
X75668189Y70802582D01*
X75668186Y70802584D01*
X75663949Y70806501D01*
X75477350Y70924236D01*
X75274955Y71004983D01*
X75219096Y71048804D01*
X75195795Y71115868D01*
X75212451Y71184883D01*
X75263775Y71233937D01*
X75281144Y71241326D01*
X75414907Y71286732D01*
X75414912Y71286734D01*
X75420379Y71288590D01*
X75448896Y71304560D01*
X75507334Y71337287D01*
X75612884Y71396398D01*
X75626837Y71408002D01*
X75778086Y71533796D01*
X75782518Y71537482D01*
X75844256Y71611713D01*
X75919908Y71702674D01*
X75919910Y71702677D01*
X75923602Y71707116D01*
X76031410Y71899621D01*
X76033266Y71905088D01*
X76033268Y71905093D01*
X76100475Y72103079D01*
X76100476Y72103084D01*
X76102331Y72108548D01*
X76103159Y72114257D01*
X76103160Y72114262D01*
X76133458Y72323228D01*
X76133991Y72326902D01*
X76135643Y72390000D01*
X76115454Y72609711D01*
X76055565Y72822064D01*
X75957980Y73019947D01*
X75936022Y73049353D01*
X75829420Y73192109D01*
X75829420Y73192110D01*
X75825967Y73196733D01*
X75711286Y73302743D01*
X75668189Y73342582D01*
X75668186Y73342584D01*
X75663949Y73346501D01*
X75477350Y73464236D01*
X75437348Y73480195D01*
X75421620Y73486470D01*
X75365760Y73530291D01*
X75342460Y73597355D01*
X75359116Y73666370D01*
X75410440Y73715424D01*
X75468310Y73729500D01*
X75813218Y73729500D01*
X75817768Y73730170D01*
X75817771Y73730170D01*
X75872426Y73738216D01*
X75872427Y73738216D01*
X75882112Y73739642D01*
X75956479Y73776154D01*
X75977507Y73786478D01*
X75977509Y73786479D01*
X75986855Y73791068D01*
X76069293Y73873650D01*
X76120536Y73978482D01*
X76127744Y74027888D01*
X76129840Y74042256D01*
X76129840Y74042260D01*
X76130500Y74046782D01*
X76130500Y75813218D01*
X76129145Y75822426D01*
X76121784Y75872426D01*
X76121784Y75872427D01*
X76120358Y75882112D01*
X76068932Y75986855D01*
X75986350Y76069293D01*
X75960627Y76081867D01*
X75922503Y76100502D01*
X75881518Y76120536D01*
X75851027Y76124984D01*
X75817744Y76129840D01*
X75817740Y76129840D01*
X75813218Y76130500D01*
X74046782Y76130500D01*
X74042232Y76129830D01*
X74042229Y76129830D01*
X73987574Y76121784D01*
X73987573Y76121784D01*
X73977888Y76120358D01*
X73937446Y76100502D01*
X73882493Y76073522D01*
X73882491Y76073521D01*
X73873145Y76068932D01*
X73790707Y75986350D01*
X73786134Y75976994D01*
X73786133Y75976993D01*
X73777580Y75959495D01*
X73739464Y75881518D01*
X73729500Y75813218D01*
X73729500Y75424156D01*
X73709498Y75356035D01*
X73658044Y75310573D01*
X73608750Y75286902D01*
X73603726Y75282258D01*
X73597660Y75279107D01*
X73592882Y75275027D01*
X73557706Y75239851D01*
X73554141Y75236422D01*
X73514529Y75199805D01*
X73510990Y75193713D01*
X73506031Y75188176D01*
X73170595Y74852740D01*
X73108283Y74818714D01*
X73037468Y74823779D01*
X72980632Y74866326D01*
X72955821Y74932846D01*
X72955500Y74941835D01*
X72955500Y75813218D01*
X72954145Y75822426D01*
X72946784Y75872426D01*
X72946784Y75872427D01*
X72945358Y75882112D01*
X72893932Y75986855D01*
X72811350Y76069293D01*
X72785627Y76081867D01*
X72747503Y76100502D01*
X72706518Y76120536D01*
X72676027Y76124984D01*
X72642744Y76129840D01*
X72642740Y76129840D01*
X72638218Y76130500D01*
X70871782Y76130500D01*
X70867232Y76129830D01*
X70867229Y76129830D01*
X70812574Y76121784D01*
X70812573Y76121784D01*
X70802888Y76120358D01*
X70762446Y76100502D01*
X70707493Y76073522D01*
X70707491Y76073521D01*
X70698145Y76068932D01*
X70615707Y75986350D01*
X70611134Y75976994D01*
X70611133Y75976993D01*
X70602580Y75959495D01*
X70564464Y75881518D01*
X70554500Y75813218D01*
X70554500Y75330243D01*
X70534498Y75262122D01*
X70480842Y75215629D01*
X70410568Y75205525D01*
X70345988Y75235019D01*
X70307231Y75296042D01*
X70295256Y75338504D01*
X70295254Y75338509D01*
X70293686Y75344069D01*
X70282553Y75366646D01*
X70202719Y75528531D01*
X70200165Y75533710D01*
X70073651Y75703133D01*
X69954562Y75813218D01*
X69922622Y75842743D01*
X69922620Y75842745D01*
X69918381Y75846663D01*
X69877549Y75872426D01*
X69744434Y75956416D01*
X69744433Y75956416D01*
X69739554Y75959495D01*
X69543160Y76037848D01*
X69537503Y76038973D01*
X69537497Y76038975D01*
X69341442Y76077972D01*
X69341440Y76077972D01*
X69335775Y76079099D01*
X69330000Y76079175D01*
X69329996Y76079175D01*
X69223976Y76080563D01*
X69124346Y76081867D01*
X69118649Y76080888D01*
X69118648Y76080888D01*
X68921650Y76047038D01*
X68921649Y76047038D01*
X68915953Y76046059D01*
X68717575Y75972873D01*
X68712614Y75969921D01*
X68712613Y75969921D01*
X68547750Y75871838D01*
X68535856Y75864762D01*
X68376881Y75725345D01*
X68245976Y75559292D01*
X68243287Y75554181D01*
X68243285Y75554178D01*
X68211307Y75493397D01*
X68147523Y75372164D01*
X68084820Y75170227D01*
X68059967Y74960246D01*
X68073796Y74749251D01*
X68075217Y74743655D01*
X68075218Y74743650D01*
X68124424Y74549905D01*
X68125845Y74544310D01*
X68214369Y74352286D01*
X68336405Y74179609D01*
X68340539Y74175582D01*
X68477402Y74042256D01*
X68487865Y74032063D01*
X68492661Y74028858D01*
X68492664Y74028856D01*
X68635936Y73933125D01*
X68663677Y73914589D01*
X68668985Y73912308D01*
X68668986Y73912308D01*
X68852650Y73833400D01*
X68852653Y73833399D01*
X68857953Y73831122D01*
X68863582Y73829848D01*
X68863583Y73829848D01*
X69058550Y73785731D01*
X69058553Y73785731D01*
X69064186Y73784456D01*
X69069958Y73784229D01*
X69075687Y73783475D01*
X69075327Y73780743D01*
X69131604Y73761784D01*
X69175950Y73706341D01*
X69183282Y73635724D01*
X69151271Y73572353D01*
X69090081Y73536349D01*
X69080705Y73534368D01*
X69051326Y73529320D01*
X68921650Y73507038D01*
X68921649Y73507038D01*
X68915953Y73506059D01*
X68717575Y73432873D01*
X68712614Y73429921D01*
X68712613Y73429921D01*
X68577577Y73349583D01*
X68535856Y73324762D01*
X68376881Y73185345D01*
X68245976Y73019292D01*
X68243287Y73014181D01*
X68243285Y73014178D01*
X68193400Y72919362D01*
X68147523Y72832164D01*
X68084820Y72630227D01*
X68059967Y72420246D01*
X68073796Y72209251D01*
X68075217Y72203655D01*
X68075218Y72203650D01*
X68101444Y72100389D01*
X68125845Y72004310D01*
X68128262Y71999067D01*
X68172151Y71903865D01*
X68214369Y71812286D01*
X68336405Y71639609D01*
X68487865Y71492063D01*
X68492661Y71488858D01*
X68492664Y71488856D01*
X68605993Y71413132D01*
X68663677Y71374589D01*
X68668985Y71372308D01*
X68668986Y71372308D01*
X68852650Y71293400D01*
X68852653Y71293399D01*
X68857953Y71291122D01*
X68863582Y71289848D01*
X68863583Y71289848D01*
X69058550Y71245731D01*
X69058553Y71245731D01*
X69064186Y71244456D01*
X69069958Y71244229D01*
X69075687Y71243475D01*
X69075327Y71240743D01*
X69131604Y71221784D01*
X69175950Y71166341D01*
X69183282Y71095724D01*
X69151271Y71032353D01*
X69090081Y70996349D01*
X69080704Y70994368D01*
X68921650Y70967038D01*
X68921649Y70967038D01*
X68915953Y70966059D01*
X68717575Y70892873D01*
X68712614Y70889921D01*
X68712613Y70889921D01*
X68577577Y70809583D01*
X68535856Y70784762D01*
X68376881Y70645345D01*
X68245976Y70479292D01*
X68243287Y70474181D01*
X68243285Y70474178D01*
X68229792Y70448531D01*
X68147523Y70292164D01*
X68084820Y70090227D01*
X68059967Y69880246D01*
X68073796Y69669251D01*
X68075217Y69663655D01*
X68075218Y69663650D01*
X68124424Y69469905D01*
X68125845Y69464310D01*
X68128262Y69459067D01*
X68174107Y69359621D01*
X68214369Y69272286D01*
X68336405Y69099609D01*
X68487865Y68952063D01*
X68492661Y68948858D01*
X68492664Y68948856D01*
X68578478Y68891517D01*
X68663677Y68834589D01*
X68668985Y68832308D01*
X68668986Y68832308D01*
X68852650Y68753400D01*
X68852653Y68753399D01*
X68857953Y68751122D01*
X68863582Y68749848D01*
X68863583Y68749848D01*
X69058550Y68705731D01*
X69058553Y68705731D01*
X69064186Y68704456D01*
X69069958Y68704229D01*
X69075687Y68703475D01*
X69075327Y68700743D01*
X69131604Y68681784D01*
X69175950Y68626341D01*
X69183282Y68555724D01*
X69151271Y68492353D01*
X69090081Y68456349D01*
X69080704Y68454368D01*
X68921650Y68427038D01*
X68921649Y68427038D01*
X68915953Y68426059D01*
X68717575Y68352873D01*
X68712614Y68349921D01*
X68712613Y68349921D01*
X68558047Y68257964D01*
X68535856Y68244762D01*
X68376881Y68105345D01*
X68245976Y67939292D01*
X68243287Y67934181D01*
X68243285Y67934178D01*
X68214383Y67879244D01*
X68147523Y67752164D01*
X68145808Y67746642D01*
X68145808Y67746641D01*
X68142925Y67737357D01*
X68103623Y67678231D01*
X68038595Y67649739D01*
X67968485Y67660928D01*
X67933497Y67685624D01*
X66683499Y68935622D01*
X66673644Y68946712D01*
X66659806Y68964266D01*
X66659802Y68964270D01*
X66653972Y68971665D01*
X66608261Y69003257D01*
X66605138Y69005490D01*
X66560497Y69038462D01*
X66554047Y69040727D01*
X66548419Y69044617D01*
X66539444Y69047455D01*
X66539439Y69047458D01*
X66495530Y69061344D01*
X66491789Y69062592D01*
X66476355Y69068012D01*
X66448321Y69077857D01*
X66448318Y69077858D01*
X66439435Y69080977D01*
X66432599Y69081246D01*
X66426081Y69083307D01*
X66419817Y69083800D01*
X66370056Y69083800D01*
X66365110Y69083897D01*
X66364832Y69083908D01*
X66311224Y69086014D01*
X66304413Y69084208D01*
X66296998Y69083800D01*
X55650835Y69083800D01*
X55582714Y69103802D01*
X55561740Y69120705D01*
X55467205Y69215240D01*
X55433179Y69277552D01*
X55430300Y69304335D01*
X55430300Y70243251D01*
X55431173Y70258062D01*
X55431565Y70261372D01*
X55434908Y70289616D01*
X55433216Y70298878D01*
X55433216Y70298887D01*
X55424937Y70344213D01*
X55424286Y70348121D01*
X55417444Y70393631D01*
X55416044Y70402945D01*
X55413084Y70409109D01*
X55411855Y70415838D01*
X55386278Y70465076D01*
X55384521Y70468592D01*
X55364580Y70510120D01*
X55364578Y70510124D01*
X55360502Y70518611D01*
X55355859Y70523633D01*
X55352707Y70529702D01*
X55348626Y70534480D01*
X55313451Y70569655D01*
X55310021Y70573221D01*
X55279797Y70605917D01*
X55279798Y70605917D01*
X55273405Y70612832D01*
X55267313Y70616371D01*
X55261776Y70621330D01*
X54626582Y71256524D01*
X54592556Y71318836D01*
X54597621Y71389651D01*
X54635108Y71442493D01*
X54787574Y71569297D01*
X54792012Y71572988D01*
X54927219Y71735558D01*
X54930043Y71740601D01*
X54930046Y71740605D01*
X55027713Y71915002D01*
X55027714Y71915004D01*
X55030537Y71920045D01*
X55032393Y71925512D01*
X55032395Y71925517D01*
X55095520Y72111479D01*
X55098504Y72120270D01*
X55128846Y72329530D01*
X55130429Y72390000D01*
X55111081Y72600560D01*
X55053686Y72804069D01*
X55050977Y72809564D01*
X54962719Y72988531D01*
X54960165Y72993710D01*
X54833651Y73163133D01*
X54678381Y73306663D01*
X54499554Y73419495D01*
X54303160Y73497848D01*
X54297503Y73498973D01*
X54297497Y73498975D01*
X54141916Y73529921D01*
X54079006Y73562828D01*
X54043874Y73624523D01*
X54047674Y73695418D01*
X54089199Y73753004D01*
X54155266Y73778998D01*
X54166497Y73779500D01*
X54808218Y73779500D01*
X54812768Y73780170D01*
X54812771Y73780170D01*
X54867426Y73788216D01*
X54867427Y73788216D01*
X54877112Y73789642D01*
X54927809Y73814533D01*
X54972507Y73836478D01*
X54972509Y73836479D01*
X54981855Y73841068D01*
X55064293Y73923650D01*
X55115536Y74028482D01*
X55125500Y74096782D01*
X55125500Y75763218D01*
X55118818Y75808612D01*
X55116784Y75822426D01*
X55116784Y75822427D01*
X55115358Y75832112D01*
X55063932Y75936855D01*
X54981350Y76019293D01*
X54947769Y76035708D01*
X54930686Y76044058D01*
X54876518Y76070536D01*
X54846027Y76074984D01*
X54812744Y76079840D01*
X54812740Y76079840D01*
X54808218Y76080500D01*
X53513793Y76080500D01*
X53445672Y76100502D01*
X53424698Y76117405D01*
X53047753Y76494350D01*
X53037899Y76505439D01*
X53022707Y76524709D01*
X53022705Y76524711D01*
X53016872Y76532110D01*
X53009125Y76537465D01*
X53009123Y76537466D01*
X52972875Y76562518D01*
X52968615Y76565462D01*
X52965403Y76567757D01*
X52959785Y76571907D01*
X52918184Y76602634D01*
X52911368Y76605027D01*
X52905431Y76609131D01*
X52896451Y76611971D01*
X52896449Y76611972D01*
X52876283Y76618350D01*
X52849481Y76626826D01*
X52845750Y76628071D01*
X52799263Y76644396D01*
X52799261Y76644396D01*
X52790369Y76647519D01*
X52783181Y76647801D01*
X52783122Y76647812D01*
X52776270Y76649980D01*
X52769663Y76650500D01*
X52716984Y76650500D01*
X52712037Y76650597D01*
X52655006Y76652838D01*
X52647900Y76650954D01*
X52639653Y76650500D01*
X49564219Y76650500D01*
X49549410Y76651373D01*
X49540158Y76652468D01*
X49515689Y76655364D01*
X49506426Y76653672D01*
X49506419Y76653672D01*
X49457982Y76644825D01*
X49454083Y76644175D01*
X49431353Y76640758D01*
X49405356Y76636850D01*
X49405355Y76636850D01*
X49396038Y76635449D01*
X49389525Y76632321D01*
X49382427Y76631025D01*
X49330347Y76603972D01*
X49326845Y76602223D01*
X49282413Y76580887D01*
X49273921Y76576809D01*
X49268636Y76571923D01*
X49268589Y76571892D01*
X49262211Y76568579D01*
X49257172Y76564275D01*
X49219945Y76527048D01*
X49216380Y76523619D01*
X49174444Y76484854D01*
X49170751Y76478495D01*
X49165234Y76472337D01*
X48860302Y76167405D01*
X48797990Y76133379D01*
X48771207Y76130500D01*
X47376782Y76130500D01*
X47372232Y76129830D01*
X47372229Y76129830D01*
X47317574Y76121784D01*
X47317573Y76121784D01*
X47307888Y76120358D01*
X47267446Y76100502D01*
X47212493Y76073522D01*
X47212491Y76073521D01*
X47203145Y76068932D01*
X47120707Y75986350D01*
X47116134Y75976994D01*
X47116133Y75976993D01*
X47107580Y75959495D01*
X47069464Y75881518D01*
X47059500Y75813218D01*
X47059500Y74046782D01*
X47060170Y74042232D01*
X47060170Y74042229D01*
X47068216Y73987574D01*
X47069642Y73977888D01*
X47121068Y73873145D01*
X47203650Y73790707D01*
X47213006Y73786134D01*
X47213007Y73786133D01*
X47216438Y73784456D01*
X47308482Y73739464D01*
X47338973Y73735016D01*
X47372256Y73730160D01*
X47372260Y73730160D01*
X47376782Y73729500D01*
X47716570Y73729500D01*
X47784691Y73709498D01*
X47831184Y73655842D01*
X47841288Y73585568D01*
X47811794Y73520988D01*
X47760180Y73485288D01*
X47751382Y73482042D01*
X47740957Y73478196D01*
X47551341Y73365386D01*
X47385457Y73219910D01*
X47248863Y73046640D01*
X47146131Y72851380D01*
X47080703Y72640667D01*
X47054770Y72421560D01*
X47069200Y72201396D01*
X47070621Y72195800D01*
X47070622Y72195795D01*
X47122090Y71993143D01*
X47123511Y71987548D01*
X47125928Y71982306D01*
X47125928Y71982305D01*
X47162090Y71903865D01*
X47215883Y71787179D01*
X47343222Y71606998D01*
X47501264Y71453039D01*
X47506060Y71449834D01*
X47506063Y71449832D01*
X47630080Y71366967D01*
X47684717Y71330460D01*
X47690020Y71328182D01*
X47690023Y71328180D01*
X47880169Y71246487D01*
X47887436Y71243365D01*
X47893071Y71242090D01*
X47893074Y71242089D01*
X47894484Y71241770D01*
X47895083Y71241436D01*
X47898562Y71240306D01*
X47898340Y71239623D01*
X47956511Y71207228D01*
X47990016Y71144634D01*
X47984362Y71073863D01*
X47941344Y71017384D01*
X47910287Y71000665D01*
X47746376Y70940196D01*
X47746368Y70940192D01*
X47740957Y70938196D01*
X47551341Y70825386D01*
X47385457Y70679910D01*
X47248863Y70506640D01*
X47146131Y70311380D01*
X47080703Y70100667D01*
X47054770Y69881560D01*
X47069200Y69661396D01*
X47070621Y69655800D01*
X47070622Y69655795D01*
X47122090Y69453143D01*
X47123511Y69447548D01*
X47125926Y69442310D01*
X47125928Y69442305D01*
X47164046Y69359621D01*
X47215883Y69247179D01*
X47343222Y69066998D01*
X47501264Y68913039D01*
X47506061Y68909834D01*
X47506062Y68909833D01*
X47507391Y68908945D01*
X47513255Y68905027D01*
X47558783Y68850552D01*
X47567633Y68780109D01*
X47532350Y68711166D01*
X46902878Y68081694D01*
X46891788Y68071839D01*
X46874234Y68058001D01*
X46874230Y68057997D01*
X46866835Y68052167D01*
X46835243Y68006456D01*
X46833010Y68003333D01*
X46800038Y67958692D01*
X46797773Y67952242D01*
X46793883Y67946614D01*
X46791045Y67937639D01*
X46791042Y67937634D01*
X46777156Y67893725D01*
X46775903Y67889968D01*
X46760643Y67846516D01*
X46760642Y67846513D01*
X46757523Y67837630D01*
X46757254Y67830794D01*
X46755193Y67824276D01*
X46754700Y67818012D01*
X46754700Y67768251D01*
X46754603Y67763305D01*
X46752486Y67709419D01*
X46754292Y67702608D01*
X46754700Y67695193D01*
X46754700Y59475335D01*
X46734698Y59407214D01*
X46717795Y59386240D01*
X45973760Y58642205D01*
X45911448Y58608179D01*
X45884665Y58605300D01*
X44671750Y58605300D01*
X44656942Y58606173D01*
X44625385Y58609908D01*
X44570784Y58599936D01*
X44566895Y58599288D01*
X44512055Y58591044D01*
X44505890Y58588084D01*
X44499163Y58586855D01*
X44463545Y58568353D01*
X44449961Y58561297D01*
X44446424Y58559530D01*
X44404881Y58539581D01*
X44404875Y58539577D01*
X44396389Y58535502D01*
X44391365Y58530858D01*
X44385299Y58527707D01*
X44380521Y58523627D01*
X44345345Y58488451D01*
X44341780Y58485022D01*
X44302168Y58448405D01*
X44298629Y58442313D01*
X44293670Y58436776D01*
X43764788Y57907894D01*
X43702476Y57873868D01*
X43662722Y57871658D01*
X43654147Y57872545D01*
X43638565Y57864355D01*
X42937022Y57162812D01*
X42929408Y57148868D01*
X42929539Y57147035D01*
X42933790Y57140420D01*
X43639287Y56434923D01*
X43653231Y56427308D01*
X43667094Y56428300D01*
X43736468Y56413209D01*
X43765178Y56391716D01*
X44314016Y55842878D01*
X44323871Y55831788D01*
X44337709Y55814234D01*
X44337713Y55814230D01*
X44343543Y55806835D01*
X44351290Y55801480D01*
X44351292Y55801479D01*
X44366282Y55791119D01*
X44386156Y55777384D01*
X44389171Y55775300D01*
X44392393Y55772998D01*
X44429442Y55745632D01*
X44429446Y55745630D01*
X44437018Y55740037D01*
X44443470Y55737771D01*
X44449096Y55733883D01*
X44458073Y55731044D01*
X44458075Y55731043D01*
X44502000Y55717152D01*
X44505730Y55715907D01*
X44558080Y55697523D01*
X44564916Y55697254D01*
X44571434Y55695193D01*
X44577698Y55694700D01*
X44627459Y55694700D01*
X44632405Y55694603D01*
X44686291Y55692486D01*
X44693102Y55694292D01*
X44700517Y55694700D01*
X45884665Y55694700D01*
X45952786Y55674698D01*
X45973760Y55657795D01*
X46717795Y54913760D01*
X46751821Y54851448D01*
X46754700Y54824665D01*
X46754700Y46576039D01*
X46753827Y46561231D01*
X46750092Y46529674D01*
X46751784Y46520412D01*
X46751784Y46520403D01*
X46760063Y46475077D01*
X46760714Y46471169D01*
X46768956Y46416345D01*
X46771916Y46410181D01*
X46773145Y46403452D01*
X46798722Y46354214D01*
X46800479Y46350698D01*
X46820420Y46309170D01*
X46820422Y46309166D01*
X46824498Y46300679D01*
X46829141Y46295657D01*
X46832293Y46289588D01*
X46836374Y46284810D01*
X46871549Y46249635D01*
X46874978Y46246070D01*
X46911595Y46206458D01*
X46917687Y46202919D01*
X46923224Y46197960D01*
X47488306Y45632878D01*
X47498161Y45621788D01*
X47511998Y45604235D01*
X47512003Y45604230D01*
X47517833Y45596835D01*
X47525584Y45591478D01*
X47528271Y45588955D01*
X47564238Y45527743D01*
X47561402Y45456803D01*
X47525099Y45402372D01*
X47385457Y45279910D01*
X47248863Y45106640D01*
X47146131Y44911380D01*
X47080703Y44700667D01*
X47054770Y44481560D01*
X47069200Y44261396D01*
X47070621Y44255800D01*
X47070622Y44255795D01*
X47120867Y44057959D01*
X47123511Y44047548D01*
X47215883Y43847179D01*
X47343222Y43666998D01*
X47501264Y43513039D01*
X47506060Y43509834D01*
X47506063Y43509832D01*
X47590261Y43453573D01*
X47684717Y43390460D01*
X47690020Y43388182D01*
X47690023Y43388180D01*
X47880169Y43306487D01*
X47887436Y43303365D01*
X47893071Y43302090D01*
X47893074Y43302089D01*
X47894484Y43301770D01*
X47895083Y43301436D01*
X47898562Y43300306D01*
X47898340Y43299623D01*
X47956511Y43267228D01*
X47990016Y43204634D01*
X47984362Y43133863D01*
X47941344Y43077384D01*
X47910287Y43060665D01*
X47746376Y43000196D01*
X47746368Y43000192D01*
X47740957Y42998196D01*
X47735996Y42995244D01*
X47735995Y42995244D01*
X47558969Y42889924D01*
X47551341Y42885386D01*
X47385457Y42739910D01*
X47248863Y42566640D01*
X47146131Y42371380D01*
X47080703Y42160667D01*
X47054770Y41941560D01*
X47069200Y41721396D01*
X47070621Y41715800D01*
X47070622Y41715795D01*
X47120867Y41517959D01*
X47123511Y41507548D01*
X47125928Y41502306D01*
X47125928Y41502305D01*
X47142006Y41467430D01*
X47215883Y41307179D01*
X47343222Y41126998D01*
X47501264Y40973039D01*
X47506060Y40969834D01*
X47506063Y40969832D01*
X47590261Y40913573D01*
X47684717Y40850460D01*
X47690020Y40848182D01*
X47690023Y40848180D01*
X47880169Y40766487D01*
X47887436Y40763365D01*
X47893071Y40762090D01*
X47893074Y40762089D01*
X47894484Y40761770D01*
X47895083Y40761436D01*
X47898562Y40760306D01*
X47898340Y40759623D01*
X47956511Y40727228D01*
X47990016Y40664634D01*
X47984362Y40593863D01*
X47941344Y40537384D01*
X47910287Y40520665D01*
X47746376Y40460196D01*
X47746368Y40460192D01*
X47740957Y40458196D01*
X47735996Y40455244D01*
X47735995Y40455244D01*
X47649743Y40403929D01*
X47551341Y40345386D01*
X47385457Y40199910D01*
X47248863Y40026640D01*
X47146131Y39831380D01*
X47080703Y39620667D01*
X47054770Y39401560D01*
X47069200Y39181396D01*
X47070621Y39175800D01*
X47070622Y39175795D01*
X47118881Y38985779D01*
X47123511Y38967548D01*
X47125928Y38962306D01*
X47125928Y38962305D01*
X47213465Y38772424D01*
X47215883Y38767179D01*
X47343222Y38586998D01*
X47501264Y38433039D01*
X47506060Y38429834D01*
X47506063Y38429832D01*
X47590261Y38373573D01*
X47684717Y38310460D01*
X47690020Y38308182D01*
X47690023Y38308180D01*
X47851445Y38238828D01*
X47887436Y38223365D01*
X47893071Y38222090D01*
X47893074Y38222089D01*
X47894484Y38221770D01*
X47895083Y38221436D01*
X47898562Y38220306D01*
X47898340Y38219623D01*
X47956511Y38187228D01*
X47990016Y38124634D01*
X47984362Y38053863D01*
X47941344Y37997384D01*
X47910287Y37980665D01*
X47746376Y37920196D01*
X47746368Y37920192D01*
X47740957Y37918196D01*
X47735996Y37915244D01*
X47735995Y37915244D01*
X47560302Y37810717D01*
X47551341Y37805386D01*
X47385457Y37659910D01*
X47248863Y37486640D01*
X47146131Y37291380D01*
X47080703Y37080667D01*
X47054770Y36861560D01*
X47069200Y36641396D01*
X47070621Y36635800D01*
X47070622Y36635795D01*
X47122090Y36433143D01*
X47123511Y36427548D01*
X47125928Y36422306D01*
X47125928Y36422305D01*
X47187267Y36289251D01*
X47197622Y36219014D01*
X47168360Y36154328D01*
X47108771Y36115731D01*
X47072841Y36110500D01*
X40654993Y36110500D01*
X40649717Y36110611D01*
X40645310Y36110796D01*
X40587706Y36113210D01*
X40579341Y36111248D01*
X40545338Y36103273D01*
X40533667Y36101110D01*
X40518771Y36099069D01*
X40490568Y36095206D01*
X40482684Y36091794D01*
X40482683Y36091794D01*
X40476770Y36089235D01*
X40455501Y36082201D01*
X40449228Y36080730D01*
X40449226Y36080729D01*
X40440864Y36078768D01*
X40433336Y36074629D01*
X40433335Y36074629D01*
X40402735Y36057806D01*
X40392073Y36052583D01*
X40360027Y36038716D01*
X40360026Y36038715D01*
X40352145Y36035305D01*
X40345472Y36029901D01*
X40340459Y36025842D01*
X40321871Y36013351D01*
X40308692Y36006106D01*
X40300578Y35999103D01*
X40276042Y35974567D01*
X40266241Y35965742D01*
X40246544Y35949791D01*
X40234930Y35940386D01*
X40229957Y35933388D01*
X40229952Y35933383D01*
X40224032Y35925052D01*
X40210421Y35908946D01*
X38991358Y34689882D01*
X38987549Y34686229D01*
X38941844Y34644201D01*
X38918901Y34607198D01*
X38912200Y34597448D01*
X38885888Y34562783D01*
X38880354Y34548805D01*
X38870293Y34528801D01*
X38862365Y34516014D01*
X38859968Y34507763D01*
X38859967Y34507761D01*
X38850225Y34474228D01*
X38846380Y34462998D01*
X38830364Y34422547D01*
X38829466Y34414006D01*
X38829466Y34414005D01*
X38828792Y34407592D01*
X38824480Y34385617D01*
X38820285Y34371175D01*
X38819500Y34360485D01*
X38819500Y34325783D01*
X38818810Y34312613D01*
X38814599Y34272546D01*
X38816031Y34264081D01*
X38816031Y34264072D01*
X38817735Y34254000D01*
X38819500Y34232987D01*
X38819500Y11075215D01*
X38799498Y11007094D01*
X38782595Y10986120D01*
X35998881Y8202405D01*
X35936569Y8168379D01*
X35909786Y8165500D01*
X3050511Y8165500D01*
X2982390Y8185502D01*
X2937507Y8235768D01*
X2935536Y8239764D01*
X2935535Y8239766D01*
X2932980Y8244947D01*
X2912440Y8272454D01*
X2804420Y8417109D01*
X2804420Y8417110D01*
X2800967Y8421733D01*
X2638949Y8571501D01*
X2453702Y8688383D01*
X2453700Y8688385D01*
X2452350Y8689236D01*
X2452517Y8689501D01*
X2403071Y8736198D01*
X2386002Y8805112D01*
X2408901Y8872314D01*
X2456454Y8912871D01*
X2598095Y8982261D01*
X2606945Y8987536D01*
X2780328Y9111208D01*
X2788200Y9117861D01*
X2939052Y9268188D01*
X2945730Y9276035D01*
X3070003Y9448980D01*
X3075313Y9457817D01*
X3169670Y9648733D01*
X3173469Y9658328D01*
X3235377Y9862090D01*
X3237555Y9872163D01*
X3238986Y9883038D01*
X3236775Y9897222D01*
X3223617Y9901000D01*
X588225Y9901000D01*
X574694Y9897027D01*
X573257Y9887034D01*
X0Y9887034D01*
X0Y10420817D01*
X569389Y10420817D01*
X570912Y10412393D01*
X583292Y10409000D01*
X3223344Y10409000D01*
X3236875Y10412973D01*
X3238180Y10422053D01*
X3196214Y10589125D01*
X3192894Y10598876D01*
X3107972Y10794186D01*
X3103105Y10803261D01*
X2987426Y10982074D01*
X2981136Y10990243D01*
X2837806Y11147760D01*
X2830273Y11154785D01*
X2684868Y11269618D01*
X2643805Y11327535D01*
X2640573Y11398458D01*
X2676198Y11459870D01*
X2739369Y11492272D01*
X2762960Y11494500D01*
X2788218Y11494500D01*
X2792768Y11495170D01*
X2792771Y11495170D01*
X2847426Y11503216D01*
X2847427Y11503216D01*
X2857112Y11504642D01*
X2951804Y11551133D01*
X2952507Y11551478D01*
X2952509Y11551479D01*
X2961855Y11556068D01*
X3044293Y11638650D01*
X3095536Y11743482D01*
X3105500Y11811782D01*
X3105500Y13578218D01*
X3096871Y13636838D01*
X3096784Y13637426D01*
X3096784Y13637427D01*
X3095358Y13647112D01*
X3043932Y13751855D01*
X2961350Y13834293D01*
X2856518Y13885536D01*
X2826027Y13889984D01*
X2792744Y13894840D01*
X2792740Y13894840D01*
X2788218Y13895500D01*
X1021782Y13895500D01*
X1017232Y13894830D01*
X1017229Y13894830D01*
X962574Y13886784D01*
X962573Y13886784D01*
X952888Y13885358D01*
X902992Y13860860D01*
X857493Y13838522D01*
X857491Y13838521D01*
X848145Y13833932D01*
X765707Y13751350D01*
X714464Y13646518D01*
X704500Y13578218D01*
X704500Y11811782D01*
X705170Y11807232D01*
X705170Y11807229D01*
X713216Y11752574D01*
X714642Y11742888D01*
X766068Y11638145D01*
X848650Y11555707D01*
X953482Y11504464D01*
X983973Y11500016D01*
X1017256Y11495160D01*
X1017260Y11495160D01*
X1021782Y11494500D01*
X1049508Y11494500D01*
X1117629Y11474498D01*
X1164122Y11420842D01*
X1174226Y11350568D01*
X1144732Y11285988D01*
X1125161Y11267740D01*
X1004433Y11177095D01*
X996726Y11170252D01*
X849590Y11016283D01*
X843104Y11008273D01*
X723098Y10832351D01*
X718000Y10823377D01*
X628338Y10630217D01*
X624775Y10620530D01*
X569389Y10420817D01*
X0Y10420817D01*
X0Y13947810D01*
X20002Y14015931D01*
X36905Y14036905D01*
X463095Y14463095D01*
X525407Y14497121D01*
X552190Y14500000D01*
X37000000Y14500000D01*
X37733571Y15233571D01*
X37734140Y15233002D01*
X37735265Y15234665D01*
X37739152Y15237175D01*
X37745600Y15245354D01*
X37748047Y15247581D01*
X37751770Y15251770D01*
X38000000Y15500000D01*
X38000000Y56063938D01*
X41843493Y56063938D01*
X41852789Y56051923D01*
X41903994Y56016069D01*
X41913489Y56010586D01*
X42110947Y55918510D01*
X42121239Y55914764D01*
X42331688Y55858375D01*
X42342481Y55856472D01*
X42559525Y55837483D01*
X42570475Y55837483D01*
X42787519Y55856472D01*
X42798312Y55858375D01*
X43008761Y55914764D01*
X43019053Y55918510D01*
X43216511Y56010586D01*
X43226006Y56016069D01*
X43278048Y56052509D01*
X43286424Y56062988D01*
X43279356Y56076434D01*
X42577812Y56777978D01*
X42563868Y56785592D01*
X42562035Y56785461D01*
X42555420Y56781210D01*
X41849923Y56075713D01*
X41843493Y56063938D01*
X38000000Y56063938D01*
X38000000Y57144525D01*
X41252483Y57144525D01*
X41271472Y56927481D01*
X41273375Y56916688D01*
X41329764Y56706239D01*
X41333510Y56695947D01*
X41425586Y56498489D01*
X41431069Y56488994D01*
X41467509Y56436952D01*
X41477988Y56428576D01*
X41491434Y56435644D01*
X42192978Y57137188D01*
X42200592Y57151132D01*
X42200461Y57152965D01*
X42196210Y57159580D01*
X41490713Y57865077D01*
X41478938Y57871507D01*
X41466923Y57862211D01*
X41431069Y57811006D01*
X41425586Y57801511D01*
X41333510Y57604053D01*
X41329764Y57593761D01*
X41273375Y57383312D01*
X41271472Y57372519D01*
X41252483Y57155475D01*
X41252483Y57144525D01*
X38000000Y57144525D01*
X38000000Y58237012D01*
X41843576Y58237012D01*
X41850644Y58223566D01*
X42552188Y57522022D01*
X42566132Y57514408D01*
X42567965Y57514539D01*
X42574580Y57518790D01*
X43280077Y58224287D01*
X43286507Y58236062D01*
X43277211Y58248077D01*
X43226006Y58283931D01*
X43216511Y58289414D01*
X43019053Y58381490D01*
X43008761Y58385236D01*
X42798312Y58441625D01*
X42787519Y58443528D01*
X42570475Y58462517D01*
X42559525Y58462517D01*
X42342481Y58443528D01*
X42331688Y58441625D01*
X42121239Y58385236D01*
X42110947Y58381490D01*
X41913489Y58289414D01*
X41903994Y58283931D01*
X41851952Y58247491D01*
X41843576Y58237012D01*
X38000000Y58237012D01*
X38000000Y76447810D01*
X38020002Y76515931D01*
X38036905Y76536905D01*
X38463095Y76963095D01*
X38525407Y76997121D01*
X38552190Y77000000D01*
X82447810Y77000000D01*
X82515931Y76979998D01*
G37*
G04 #@! TD.AperFunction*
G04 #@! TA.AperFunction,Conductor*
G36*
X47105823Y27301898D02*
G01*
X47152316Y27248242D01*
X47162420Y27177968D01*
X47150740Y27141948D01*
X47151031Y27141827D01*
X47149509Y27138152D01*
X47149211Y27137234D01*
X47146131Y27131380D01*
X47080703Y26920667D01*
X47054770Y26701560D01*
X47069200Y26481396D01*
X47070621Y26475800D01*
X47070622Y26475795D01*
X47122090Y26273143D01*
X47123511Y26267548D01*
X47125928Y26262306D01*
X47125928Y26262305D01*
X47187267Y26129251D01*
X47197622Y26059014D01*
X47168360Y25994328D01*
X47108771Y25955731D01*
X47072841Y25950500D01*
X44464993Y25950500D01*
X44459717Y25950611D01*
X44455310Y25950796D01*
X44397706Y25953210D01*
X44389341Y25951248D01*
X44355338Y25943273D01*
X44343667Y25941110D01*
X44328771Y25939069D01*
X44300568Y25935206D01*
X44292684Y25931794D01*
X44292683Y25931794D01*
X44286770Y25929235D01*
X44265501Y25922201D01*
X44259228Y25920730D01*
X44259226Y25920729D01*
X44250864Y25918768D01*
X44243336Y25914629D01*
X44243335Y25914629D01*
X44212735Y25897806D01*
X44202073Y25892583D01*
X44170027Y25878716D01*
X44170026Y25878715D01*
X44162145Y25875305D01*
X44155472Y25869901D01*
X44150459Y25865842D01*
X44131871Y25853351D01*
X44118692Y25846106D01*
X44110578Y25839103D01*
X44086042Y25814567D01*
X44076241Y25805742D01*
X44058080Y25791035D01*
X44044930Y25780386D01*
X44039957Y25773388D01*
X44039952Y25773383D01*
X44034032Y25765052D01*
X44020421Y25748946D01*
X42801358Y24529882D01*
X42797549Y24526229D01*
X42751844Y24484201D01*
X42728901Y24447198D01*
X42722200Y24437448D01*
X42695888Y24402783D01*
X42690354Y24388805D01*
X42680293Y24368801D01*
X42672365Y24356014D01*
X42669968Y24347763D01*
X42669967Y24347761D01*
X42660225Y24314228D01*
X42656380Y24302998D01*
X42640364Y24262547D01*
X42639466Y24254006D01*
X42639466Y24254005D01*
X42638792Y24247592D01*
X42634480Y24225617D01*
X42630285Y24211175D01*
X42629500Y24200485D01*
X42629500Y24165783D01*
X42628810Y24152613D01*
X42624599Y24112546D01*
X42626031Y24104081D01*
X42626031Y24104072D01*
X42627735Y24094000D01*
X42629500Y24072987D01*
X42629500Y5995215D01*
X42609498Y5927094D01*
X42592595Y5906120D01*
X39808881Y3122405D01*
X39746569Y3088379D01*
X39719786Y3085500D01*
X3050511Y3085500D01*
X2982390Y3105502D01*
X2937507Y3155768D01*
X2935536Y3159764D01*
X2935535Y3159766D01*
X2932980Y3164947D01*
X2800967Y3341733D01*
X2638949Y3491501D01*
X2452350Y3609236D01*
X2249955Y3689983D01*
X2194096Y3733804D01*
X2170795Y3800868D01*
X2187451Y3869883D01*
X2238775Y3918937D01*
X2256144Y3926326D01*
X2389907Y3971732D01*
X2389912Y3971734D01*
X2395379Y3973590D01*
X2587884Y4081398D01*
X2757518Y4222482D01*
X2898602Y4392116D01*
X2901426Y4397158D01*
X2936657Y4460067D01*
X2987394Y4509728D01*
X3046591Y4524500D01*
X38080007Y4524500D01*
X38085284Y4524389D01*
X38147294Y4521790D01*
X38158848Y4524500D01*
X38189662Y4531727D01*
X38201333Y4533890D01*
X38216229Y4535931D01*
X38244432Y4539794D01*
X38258230Y4545765D01*
X38279499Y4552799D01*
X38285775Y4554271D01*
X38294136Y4556232D01*
X38301661Y4560369D01*
X38301664Y4560370D01*
X38332268Y4577195D01*
X38342913Y4582411D01*
X38382855Y4599695D01*
X38394541Y4609158D01*
X38413126Y4621646D01*
X38420518Y4625710D01*
X38426308Y4628893D01*
X38434422Y4635897D01*
X38458958Y4660433D01*
X38468759Y4669258D01*
X38493392Y4689206D01*
X38493393Y4689207D01*
X38500070Y4694614D01*
X38505043Y4701612D01*
X38505048Y4701617D01*
X38510968Y4709948D01*
X38524579Y4726054D01*
X41653642Y7855118D01*
X41657451Y7858771D01*
X41696833Y7894985D01*
X41703156Y7900799D01*
X41726087Y7937783D01*
X41732801Y7947553D01*
X41759112Y7982216D01*
X41764649Y7996201D01*
X41774713Y8016209D01*
X41778108Y8021685D01*
X41782635Y8028986D01*
X41794773Y8070766D01*
X41798613Y8081985D01*
X41814636Y8122453D01*
X41816208Y8137408D01*
X41820520Y8159383D01*
X41824715Y8173825D01*
X41825500Y8184515D01*
X41825500Y8219217D01*
X41826190Y8232387D01*
X41826965Y8239764D01*
X41830401Y8272454D01*
X41828969Y8280919D01*
X41828969Y8280928D01*
X41827265Y8291000D01*
X41825500Y8312013D01*
X41825500Y26389785D01*
X41845502Y26457906D01*
X41862405Y26478880D01*
X42668520Y27284995D01*
X42730832Y27319021D01*
X42757615Y27321900D01*
X47037702Y27321900D01*
X47105823Y27301898D01*
G37*
G04 #@! TD.AperFunction*
G04 #@! TA.AperFunction,Conductor*
G36*
X47141389Y34989498D02*
G01*
X47187882Y34935842D01*
X47197986Y34865568D01*
X47184776Y34824833D01*
X47160498Y34778687D01*
X47146131Y34751380D01*
X47080703Y34540667D01*
X47054770Y34321560D01*
X47069200Y34101396D01*
X47070621Y34095800D01*
X47070622Y34095795D01*
X47122090Y33893143D01*
X47123511Y33887548D01*
X47125928Y33882306D01*
X47125928Y33882305D01*
X47162090Y33803865D01*
X47215883Y33687179D01*
X47343222Y33506998D01*
X47501264Y33353039D01*
X47506060Y33349834D01*
X47506063Y33349832D01*
X47590261Y33293573D01*
X47684717Y33230460D01*
X47690020Y33228182D01*
X47690023Y33228180D01*
X47880169Y33146487D01*
X47887436Y33143365D01*
X47893071Y33142090D01*
X47893074Y33142089D01*
X47894484Y33141770D01*
X47895083Y33141436D01*
X47898562Y33140306D01*
X47898340Y33139623D01*
X47956511Y33107228D01*
X47990016Y33044634D01*
X47984362Y32973863D01*
X47941344Y32917384D01*
X47910287Y32900665D01*
X47746376Y32840196D01*
X47746368Y32840192D01*
X47740957Y32838196D01*
X47735996Y32835244D01*
X47735995Y32835244D01*
X47618002Y32765045D01*
X47551341Y32725386D01*
X47385457Y32579910D01*
X47248863Y32406640D01*
X47146131Y32211380D01*
X47080703Y32000667D01*
X47054770Y31781560D01*
X47069200Y31561396D01*
X47070621Y31555800D01*
X47070622Y31555795D01*
X47122090Y31353143D01*
X47123511Y31347548D01*
X47125926Y31342310D01*
X47125928Y31342305D01*
X47162403Y31263185D01*
X47215883Y31147179D01*
X47343222Y30966998D01*
X47501264Y30813039D01*
X47506060Y30809834D01*
X47506063Y30809832D01*
X47597864Y30748493D01*
X47684717Y30690460D01*
X47690020Y30688182D01*
X47690023Y30688180D01*
X47872819Y30609645D01*
X47887436Y30603365D01*
X47893071Y30602090D01*
X47893074Y30602089D01*
X47894484Y30601770D01*
X47895083Y30601436D01*
X47898562Y30600306D01*
X47898340Y30599623D01*
X47956511Y30567228D01*
X47990016Y30504634D01*
X47984362Y30433863D01*
X47941344Y30377384D01*
X47910287Y30360665D01*
X47746376Y30300196D01*
X47746368Y30300192D01*
X47740957Y30298196D01*
X47735996Y30295244D01*
X47735995Y30295244D01*
X47567686Y30195110D01*
X47551341Y30185386D01*
X47385457Y30039910D01*
X47248863Y29866640D01*
X47146131Y29671380D01*
X47080703Y29460667D01*
X47054770Y29241560D01*
X47069200Y29021396D01*
X47070621Y29015800D01*
X47070622Y29015795D01*
X47122090Y28813143D01*
X47123511Y28807548D01*
X47125928Y28802306D01*
X47125928Y28802305D01*
X47206483Y28627570D01*
X47213833Y28611626D01*
X47215883Y28607179D01*
X47215010Y28606776D01*
X47230507Y28542912D01*
X47207290Y28475819D01*
X47151485Y28431928D01*
X47104649Y28422900D01*
X42492393Y28422900D01*
X42487117Y28423011D01*
X42482710Y28423196D01*
X42425106Y28425610D01*
X42416741Y28423648D01*
X42382738Y28415673D01*
X42371067Y28413510D01*
X42356171Y28411469D01*
X42327968Y28407606D01*
X42320084Y28404194D01*
X42320083Y28404194D01*
X42314170Y28401635D01*
X42292901Y28394601D01*
X42286628Y28393130D01*
X42286626Y28393129D01*
X42278264Y28391168D01*
X42270736Y28387029D01*
X42270735Y28387029D01*
X42240135Y28370206D01*
X42229473Y28364983D01*
X42197427Y28351116D01*
X42197426Y28351115D01*
X42189545Y28347705D01*
X42182872Y28342301D01*
X42177859Y28338242D01*
X42159271Y28325751D01*
X42146092Y28318506D01*
X42137978Y28311502D01*
X42113443Y28286967D01*
X42103642Y28278142D01*
X42072330Y28252786D01*
X42067354Y28245784D01*
X42067352Y28245782D01*
X42061432Y28237451D01*
X42047821Y28221345D01*
X40896358Y27069882D01*
X40892549Y27066229D01*
X40846844Y27024201D01*
X40823901Y26987198D01*
X40817200Y26977448D01*
X40790888Y26942783D01*
X40785354Y26928805D01*
X40775293Y26908801D01*
X40767365Y26896014D01*
X40764968Y26887763D01*
X40764967Y26887761D01*
X40755225Y26854228D01*
X40751380Y26842998D01*
X40735364Y26802547D01*
X40734466Y26794006D01*
X40734466Y26794005D01*
X40733792Y26787592D01*
X40729480Y26765617D01*
X40725285Y26751175D01*
X40724500Y26740485D01*
X40724500Y26705783D01*
X40723810Y26692613D01*
X40719599Y26652546D01*
X40721031Y26644081D01*
X40721031Y26644072D01*
X40722735Y26634000D01*
X40724500Y26612987D01*
X40724500Y8535215D01*
X40704498Y8467094D01*
X40687595Y8446120D01*
X37903881Y5662405D01*
X37841569Y5628379D01*
X37814786Y5625500D01*
X3050511Y5625500D01*
X2982390Y5645502D01*
X2937507Y5695768D01*
X2935536Y5699764D01*
X2935535Y5699766D01*
X2932980Y5704947D01*
X2912440Y5732454D01*
X2804420Y5877109D01*
X2804420Y5877110D01*
X2800967Y5881733D01*
X2638949Y6031501D01*
X2452350Y6149236D01*
X2249955Y6229983D01*
X2194096Y6273804D01*
X2170795Y6340868D01*
X2187451Y6409883D01*
X2238775Y6458937D01*
X2256144Y6466326D01*
X2389907Y6511732D01*
X2389912Y6511734D01*
X2395379Y6513590D01*
X2587884Y6621398D01*
X2757518Y6762482D01*
X2898602Y6932116D01*
X2901426Y6937158D01*
X2936657Y7000067D01*
X2987394Y7049728D01*
X3046591Y7064500D01*
X36175007Y7064500D01*
X36180284Y7064389D01*
X36242294Y7061790D01*
X36253848Y7064500D01*
X36284662Y7071727D01*
X36296333Y7073890D01*
X36311229Y7075931D01*
X36339432Y7079794D01*
X36353230Y7085765D01*
X36374499Y7092799D01*
X36380775Y7094271D01*
X36389136Y7096232D01*
X36396661Y7100369D01*
X36396664Y7100370D01*
X36427268Y7117195D01*
X36437913Y7122411D01*
X36477855Y7139695D01*
X36489541Y7149158D01*
X36508126Y7161646D01*
X36515518Y7165710D01*
X36521308Y7168893D01*
X36529422Y7175897D01*
X36553958Y7200433D01*
X36563759Y7209258D01*
X36588392Y7229206D01*
X36588393Y7229207D01*
X36595070Y7234614D01*
X36600043Y7241612D01*
X36600048Y7241617D01*
X36605968Y7249948D01*
X36619579Y7266054D01*
X39748642Y10395118D01*
X39752451Y10398771D01*
X39767265Y10412393D01*
X39798156Y10440799D01*
X39821087Y10477783D01*
X39827801Y10487553D01*
X39854112Y10522216D01*
X39859649Y10536201D01*
X39869713Y10556209D01*
X39873108Y10561685D01*
X39877635Y10568986D01*
X39889773Y10610766D01*
X39893613Y10621985D01*
X39909636Y10662453D01*
X39911208Y10677408D01*
X39915520Y10699383D01*
X39919715Y10713825D01*
X39920500Y10724515D01*
X39920500Y10759217D01*
X39921190Y10772387D01*
X39921465Y10775008D01*
X39925401Y10812454D01*
X39923969Y10820919D01*
X39923969Y10820928D01*
X39922265Y10831000D01*
X39920500Y10852013D01*
X39920500Y34009784D01*
X39940502Y34077905D01*
X39957404Y34098879D01*
X40831119Y34972595D01*
X40893432Y35006620D01*
X40920215Y35009500D01*
X47073268Y35009500D01*
X47141389Y34989498D01*
G37*
G04 #@! TD.AperFunction*
G04 #@! TA.AperFunction,Conductor*
G36*
X59498003Y41158498D02*
G01*
X59544496Y41104842D01*
X59554600Y41034568D01*
X59552954Y41026324D01*
X59551056Y41021456D01*
X59550064Y41013923D01*
X59550064Y41013922D01*
X59536853Y40913573D01*
X59530426Y40864757D01*
X59534843Y40824751D01*
X59545610Y40727228D01*
X59547770Y40707661D01*
X59602085Y40559236D01*
X59606322Y40552930D01*
X59606324Y40552927D01*
X59646782Y40492721D01*
X59690238Y40428052D01*
X59807137Y40321681D01*
X59813810Y40318058D01*
X59813814Y40318055D01*
X59923022Y40258761D01*
X59946035Y40246266D01*
X60098913Y40206159D01*
X60182263Y40204849D01*
X60249347Y40203795D01*
X60249350Y40203795D01*
X60256944Y40203676D01*
X60411006Y40238961D01*
X60552205Y40309977D01*
X60639692Y40384698D01*
X60658756Y40400980D01*
X60723545Y40430011D01*
X60740586Y40431169D01*
X62482707Y40431169D01*
X62550828Y40411167D01*
X62571802Y40394264D01*
X62701088Y40264978D01*
X62710943Y40253888D01*
X62724781Y40236334D01*
X62724785Y40236330D01*
X62730615Y40228935D01*
X62738362Y40223581D01*
X62738364Y40223579D01*
X62776249Y40197396D01*
X62779461Y40195101D01*
X62824089Y40162138D01*
X62830540Y40159872D01*
X62836168Y40155983D01*
X62889124Y40139236D01*
X62892809Y40138006D01*
X62945152Y40119624D01*
X62951984Y40119356D01*
X62958506Y40117293D01*
X62964770Y40116800D01*
X63014541Y40116800D01*
X63019487Y40116703D01*
X63073363Y40114586D01*
X63080174Y40116392D01*
X63087588Y40116800D01*
X63433179Y40116800D01*
X63447987Y40115927D01*
X63479544Y40112192D01*
X63488806Y40113884D01*
X63488815Y40113884D01*
X63534141Y40122163D01*
X63538049Y40122814D01*
X63540078Y40123119D01*
X63592873Y40131056D01*
X63599037Y40134016D01*
X63605766Y40135245D01*
X63655004Y40160822D01*
X63658520Y40162579D01*
X63700048Y40182520D01*
X63700052Y40182522D01*
X63708539Y40186598D01*
X63713561Y40191241D01*
X63719630Y40194393D01*
X63724408Y40198474D01*
X63759583Y40233649D01*
X63763149Y40237079D01*
X63795845Y40267303D01*
X63802760Y40273695D01*
X63806299Y40279787D01*
X63811258Y40285324D01*
X64362729Y40836795D01*
X64425041Y40870821D01*
X64451824Y40873700D01*
X67055664Y40873700D01*
X67123785Y40853698D01*
X67144759Y40836796D01*
X67722795Y40258761D01*
X67756820Y40196448D01*
X67759700Y40169665D01*
X67759700Y38176935D01*
X67739698Y38108814D01*
X67686042Y38062321D01*
X67615768Y38052217D01*
X67551188Y38081711D01*
X67544605Y38087840D01*
X67495323Y38137122D01*
X67485468Y38148212D01*
X67471630Y38165766D01*
X67471626Y38165770D01*
X67465796Y38173165D01*
X67420085Y38204757D01*
X67416962Y38206990D01*
X67372321Y38239962D01*
X67365871Y38242227D01*
X67360243Y38246117D01*
X67351268Y38248955D01*
X67351263Y38248958D01*
X67307354Y38262844D01*
X67303613Y38264092D01*
X67287221Y38269848D01*
X67260145Y38279357D01*
X67260142Y38279358D01*
X67251259Y38282477D01*
X67244423Y38282746D01*
X67237905Y38284807D01*
X67231641Y38285300D01*
X67181880Y38285300D01*
X67176934Y38285397D01*
X67176656Y38285408D01*
X67123048Y38287514D01*
X67116237Y38285708D01*
X67108822Y38285300D01*
X54818698Y38285300D01*
X54750577Y38305302D01*
X54704084Y38358958D01*
X54693980Y38429232D01*
X54723474Y38493812D01*
X54738129Y38508174D01*
X54787574Y38549297D01*
X54792012Y38552988D01*
X54927219Y38715558D01*
X54930043Y38720601D01*
X54930046Y38720605D01*
X55027713Y38895002D01*
X55027714Y38895004D01*
X55030537Y38900045D01*
X55032393Y38905512D01*
X55032395Y38905517D01*
X55079173Y39043324D01*
X55098504Y39100270D01*
X55099526Y39107313D01*
X55128314Y39305860D01*
X55128314Y39305862D01*
X55128846Y39309530D01*
X55130429Y39370000D01*
X55111081Y39580560D01*
X55053686Y39784069D01*
X55051019Y39789479D01*
X54962719Y39968531D01*
X54960165Y39973710D01*
X54840603Y40133823D01*
X54815871Y40200373D01*
X54831045Y40269729D01*
X54852465Y40298307D01*
X55695752Y41141595D01*
X55758065Y41175620D01*
X55784848Y41178500D01*
X59429882Y41178500D01*
X59498003Y41158498D01*
G37*
G04 #@! TD.AperFunction*
G04 #@! TA.AperFunction,Conductor*
G36*
X66286696Y48473698D02*
G01*
X66307670Y48456796D01*
X66928992Y47835475D01*
X66938847Y47824384D01*
X66958515Y47799435D01*
X67004221Y47767846D01*
X67007309Y47765640D01*
X67051990Y47732637D01*
X67058442Y47730371D01*
X67064068Y47726483D01*
X67073045Y47723644D01*
X67073047Y47723643D01*
X67116972Y47709752D01*
X67120702Y47708507D01*
X67173052Y47690123D01*
X67179888Y47689854D01*
X67186406Y47687793D01*
X67192670Y47687300D01*
X67242431Y47687300D01*
X67247377Y47687203D01*
X67301263Y47685086D01*
X67308074Y47686892D01*
X67315489Y47687300D01*
X68073090Y47687300D01*
X68141211Y47667298D01*
X68187704Y47613642D01*
X68197808Y47543368D01*
X68184598Y47502633D01*
X68150217Y47437285D01*
X68147523Y47432164D01*
X68118628Y47339107D01*
X68088663Y47242602D01*
X68084820Y47230227D01*
X68059967Y47020246D01*
X68073796Y46809251D01*
X68075219Y46803649D01*
X68077021Y46796553D01*
X68074405Y46725604D01*
X68043994Y46676439D01*
X67950160Y46582605D01*
X67887848Y46548579D01*
X67861065Y46545700D01*
X61688935Y46545700D01*
X61620814Y46565702D01*
X61599840Y46582605D01*
X61574785Y46607660D01*
X61540759Y46669972D01*
X61538646Y46690687D01*
X61538080Y46690656D01*
X61537853Y46694781D01*
X61537896Y46698900D01*
X61537391Y46703079D01*
X61528329Y46777953D01*
X61518908Y46855806D01*
X61463041Y47003654D01*
X61373520Y47133908D01*
X61343754Y47160429D01*
X61261184Y47233997D01*
X61261180Y47234000D01*
X61255513Y47239049D01*
X61248805Y47242601D01*
X61248803Y47242602D01*
X61122542Y47309453D01*
X61122541Y47309454D01*
X61115833Y47313005D01*
X60962544Y47351509D01*
X60954946Y47351549D01*
X60954944Y47351549D01*
X60883520Y47351923D01*
X60804495Y47352337D01*
X60797108Y47350563D01*
X60797104Y47350563D01*
X60663173Y47318408D01*
X60650811Y47315440D01*
X60644067Y47311959D01*
X60644064Y47311958D01*
X60520489Y47248176D01*
X60510364Y47242950D01*
X60504642Y47237958D01*
X60504640Y47237957D01*
X60465662Y47203954D01*
X60391262Y47139051D01*
X60300382Y47009742D01*
X60242970Y46862487D01*
X60241979Y46854958D01*
X60223456Y46714262D01*
X60222340Y46705788D01*
X60226294Y46669972D01*
X60237536Y46568150D01*
X60239684Y46548692D01*
X60242294Y46541561D01*
X60242294Y46541559D01*
X60257641Y46499621D01*
X60293999Y46400267D01*
X60298236Y46393961D01*
X60298238Y46393958D01*
X60343708Y46326293D01*
X60365101Y46258596D01*
X60346497Y46190080D01*
X60342213Y46183566D01*
X60305454Y46131264D01*
X60305451Y46131259D01*
X60301082Y46125042D01*
X60243670Y45977787D01*
X60242679Y45970258D01*
X60224732Y45833937D01*
X60223040Y45821088D01*
X60240384Y45663992D01*
X60242994Y45656861D01*
X60242994Y45656859D01*
X60258488Y45614520D01*
X60294699Y45515567D01*
X60298936Y45509261D01*
X60298938Y45509258D01*
X60328882Y45464698D01*
X60382852Y45384383D01*
X60499751Y45278012D01*
X60506424Y45274389D01*
X60506428Y45274386D01*
X60631976Y45206220D01*
X60638649Y45202597D01*
X60791527Y45162490D01*
X60874877Y45161180D01*
X60941961Y45160126D01*
X60941964Y45160126D01*
X60949558Y45160007D01*
X61103620Y45195292D01*
X61244819Y45266308D01*
X61327406Y45336844D01*
X61351370Y45357311D01*
X61416159Y45386342D01*
X61433200Y45387500D01*
X67875865Y45387500D01*
X67943986Y45367498D01*
X67964960Y45350595D01*
X68177000Y45138555D01*
X68211026Y45076243D01*
X68205961Y45005428D01*
X68199414Y44990794D01*
X68147523Y44892164D01*
X68084820Y44690227D01*
X68059967Y44480246D01*
X68073796Y44269251D01*
X68075217Y44263655D01*
X68075218Y44263650D01*
X68114394Y44109397D01*
X68125845Y44064310D01*
X68128262Y44059067D01*
X68157221Y43996250D01*
X68214369Y43872286D01*
X68336405Y43699609D01*
X68487865Y43552063D01*
X68492661Y43548858D01*
X68492664Y43548856D01*
X68546268Y43513039D01*
X68663677Y43434589D01*
X68668985Y43432308D01*
X68668986Y43432308D01*
X68852650Y43353400D01*
X68852653Y43353399D01*
X68857953Y43351122D01*
X68863582Y43349848D01*
X68863583Y43349848D01*
X69058550Y43305731D01*
X69058553Y43305731D01*
X69064186Y43304456D01*
X69069958Y43304229D01*
X69075687Y43303475D01*
X69075327Y43300743D01*
X69131604Y43281784D01*
X69175950Y43226341D01*
X69183282Y43155724D01*
X69151271Y43092353D01*
X69090081Y43056349D01*
X69080704Y43054368D01*
X68921650Y43027038D01*
X68921649Y43027038D01*
X68915953Y43026059D01*
X68717575Y42952873D01*
X68712614Y42949921D01*
X68712613Y42949921D01*
X68542736Y42848855D01*
X68535856Y42844762D01*
X68376881Y42705345D01*
X68245976Y42539292D01*
X68243287Y42534181D01*
X68243285Y42534178D01*
X68174812Y42404032D01*
X68125393Y42353060D01*
X68063304Y42336700D01*
X61644737Y42336700D01*
X61576616Y42356702D01*
X61530123Y42410358D01*
X61523648Y42433313D01*
X61522332Y42432990D01*
X61520520Y42440366D01*
X61519608Y42447906D01*
X61495806Y42510898D01*
X61466425Y42588651D01*
X61463741Y42595754D01*
X61451423Y42613677D01*
X61378522Y42719749D01*
X61378521Y42719751D01*
X61374220Y42726008D01*
X61362843Y42736145D01*
X61261884Y42826097D01*
X61261880Y42826100D01*
X61256213Y42831149D01*
X61249505Y42834701D01*
X61249503Y42834702D01*
X61123242Y42901553D01*
X61123241Y42901554D01*
X61116533Y42905105D01*
X60963244Y42943609D01*
X60955646Y42943649D01*
X60955644Y42943649D01*
X60884220Y42944023D01*
X60805195Y42944437D01*
X60797808Y42942663D01*
X60797804Y42942663D01*
X60663873Y42910508D01*
X60651511Y42907540D01*
X60644767Y42904059D01*
X60644764Y42904058D01*
X60522499Y42840952D01*
X60511064Y42835050D01*
X60505342Y42830058D01*
X60505340Y42830057D01*
X60500801Y42826097D01*
X60391962Y42731151D01*
X60365292Y42693204D01*
X60309400Y42613677D01*
X60301082Y42601842D01*
X60243670Y42454587D01*
X60242679Y42447058D01*
X60242573Y42446255D01*
X60242334Y42445714D01*
X60240789Y42439698D01*
X60239786Y42439955D01*
X60213851Y42381327D01*
X60154586Y42342235D01*
X60117651Y42336700D01*
X55462472Y42336700D01*
X55447664Y42337573D01*
X55416107Y42341308D01*
X55361506Y42331336D01*
X55357607Y42330687D01*
X55314115Y42324149D01*
X55243777Y42333802D01*
X55189825Y42379950D01*
X55169387Y42447941D01*
X55188952Y42516189D01*
X55206289Y42537844D01*
X55282122Y42613677D01*
X55293212Y42623532D01*
X55310766Y42637370D01*
X55310770Y42637374D01*
X55318165Y42643204D01*
X55349757Y42688915D01*
X55351990Y42692038D01*
X55384962Y42736679D01*
X55387227Y42743129D01*
X55391117Y42748757D01*
X55393955Y42757732D01*
X55393958Y42757737D01*
X55407844Y42801646D01*
X55409097Y42805403D01*
X55424357Y42848855D01*
X55424358Y42848858D01*
X55427477Y42857741D01*
X55427746Y42864577D01*
X55429807Y42871095D01*
X55430300Y42877359D01*
X55430300Y42927120D01*
X55430397Y42932066D01*
X55430859Y42943829D01*
X55432514Y42985952D01*
X55430708Y42992763D01*
X55430300Y43000178D01*
X55430300Y44741665D01*
X55450302Y44809786D01*
X55467205Y44830760D01*
X55511840Y44875395D01*
X55574152Y44909421D01*
X55600935Y44912300D01*
X56793494Y44912300D01*
X56808302Y44911427D01*
X56839859Y44907692D01*
X56849121Y44909384D01*
X56849130Y44909384D01*
X56894456Y44917663D01*
X56898364Y44918314D01*
X56900393Y44918619D01*
X56953188Y44926556D01*
X56959352Y44929516D01*
X56966081Y44930745D01*
X57015319Y44956322D01*
X57018835Y44958079D01*
X57060363Y44978020D01*
X57060367Y44978022D01*
X57068854Y44982098D01*
X57073876Y44986741D01*
X57079945Y44989893D01*
X57084723Y44993974D01*
X57119898Y45029149D01*
X57123464Y45032579D01*
X57156160Y45062803D01*
X57163075Y45069195D01*
X57166614Y45075287D01*
X57171573Y45080824D01*
X59853944Y47763195D01*
X59916256Y47797221D01*
X59943039Y47800100D01*
X60752531Y47800100D01*
X60767339Y47799227D01*
X60798896Y47795492D01*
X60808158Y47797184D01*
X60808167Y47797184D01*
X60853493Y47805463D01*
X60857401Y47806114D01*
X60862217Y47806838D01*
X60912225Y47814356D01*
X60918389Y47817316D01*
X60925118Y47818545D01*
X60974356Y47844122D01*
X60977872Y47845879D01*
X61019400Y47865820D01*
X61019404Y47865822D01*
X61027891Y47869898D01*
X61032913Y47874541D01*
X61038982Y47877693D01*
X61043760Y47881774D01*
X61078935Y47916949D01*
X61082501Y47920379D01*
X61115197Y47950603D01*
X61122112Y47956995D01*
X61125651Y47963087D01*
X61130610Y47968624D01*
X61618781Y48456795D01*
X61681093Y48490821D01*
X61707876Y48493700D01*
X66218575Y48493700D01*
X66286696Y48473698D01*
G37*
G04 #@! TD.AperFunction*
G04 #@! TA.AperFunction,Conductor*
G36*
X58828694Y49461241D02*
G01*
X58879749Y49433521D01*
X59032627Y49393414D01*
X59100344Y49392350D01*
X59111733Y49392171D01*
X59179531Y49371102D01*
X59225175Y49316722D01*
X59234173Y49246298D01*
X59198849Y49177093D01*
X57815833Y47794078D01*
X56433960Y46412205D01*
X56371648Y46378179D01*
X56344865Y46375300D01*
X55157236Y46375300D01*
X55089115Y46395302D01*
X55042622Y46448958D01*
X55032518Y46519232D01*
X55037923Y46541801D01*
X55076006Y46653991D01*
X55109790Y46706015D01*
X55112531Y46708548D01*
X55125130Y46720195D01*
X55128669Y46726287D01*
X55133629Y46731825D01*
X57371168Y48969364D01*
X57433480Y49003390D01*
X57504295Y48998325D01*
X57545063Y48973462D01*
X57608701Y48915555D01*
X57608705Y48915552D01*
X57614322Y48910441D01*
X57620995Y48906818D01*
X57620999Y48906815D01*
X57733929Y48845500D01*
X57753220Y48835026D01*
X57906098Y48794919D01*
X57989448Y48793609D01*
X58056532Y48792555D01*
X58056535Y48792555D01*
X58064129Y48792436D01*
X58218191Y48827721D01*
X58359390Y48898737D01*
X58479573Y49001383D01*
X58507050Y49039621D01*
X58567365Y49123558D01*
X58567366Y49123559D01*
X58571802Y49129733D01*
X58630753Y49276379D01*
X58643830Y49368264D01*
X58673231Y49432886D01*
X58732902Y49471355D01*
X58803898Y49471457D01*
X58828694Y49461241D01*
G37*
G04 #@! TD.AperFunction*
G04 #@! TA.AperFunction,Conductor*
G36*
X68447269Y58817197D02*
G01*
X68482528Y58797064D01*
X68483731Y58796090D01*
X68487865Y58792063D01*
X68492665Y58788856D01*
X68492666Y58788855D01*
X68521217Y58769778D01*
X68663677Y58674589D01*
X68668985Y58672308D01*
X68668986Y58672308D01*
X68852650Y58593400D01*
X68852653Y58593399D01*
X68857953Y58591122D01*
X68863582Y58589848D01*
X68863583Y58589848D01*
X69058550Y58545731D01*
X69058553Y58545731D01*
X69064186Y58544456D01*
X69069958Y58544229D01*
X69075687Y58543475D01*
X69075327Y58540743D01*
X69131604Y58521784D01*
X69175950Y58466341D01*
X69183282Y58395724D01*
X69151271Y58332353D01*
X69090081Y58296349D01*
X69080704Y58294368D01*
X68921650Y58267038D01*
X68921649Y58267038D01*
X68915953Y58266059D01*
X68717575Y58192873D01*
X68712614Y58189921D01*
X68712613Y58189921D01*
X68577577Y58109583D01*
X68535856Y58084762D01*
X68376881Y57945345D01*
X68245976Y57779292D01*
X68243287Y57774181D01*
X68243285Y57774178D01*
X68196566Y57685380D01*
X68147523Y57592164D01*
X68084820Y57390227D01*
X68059967Y57180246D01*
X68073796Y56969251D01*
X68075217Y56963655D01*
X68075218Y56963650D01*
X68107781Y56835435D01*
X68125845Y56764310D01*
X68191080Y56622803D01*
X68201435Y56552568D01*
X68172173Y56487882D01*
X68165749Y56480959D01*
X67298278Y55613488D01*
X67287188Y55603633D01*
X67269634Y55589795D01*
X67269630Y55589791D01*
X67262235Y55583961D01*
X67230643Y55538250D01*
X67228410Y55535127D01*
X67195438Y55490486D01*
X67193173Y55484036D01*
X67189283Y55478408D01*
X67186445Y55469433D01*
X67186442Y55469428D01*
X67172556Y55425519D01*
X67171303Y55421762D01*
X67156043Y55378310D01*
X67156042Y55378307D01*
X67152923Y55369424D01*
X67152654Y55362588D01*
X67150593Y55356070D01*
X67150100Y55349806D01*
X67150100Y55300045D01*
X67150003Y55295099D01*
X67147886Y55241213D01*
X67149692Y55234402D01*
X67150100Y55226987D01*
X67150100Y53841900D01*
X67130098Y53773779D01*
X67076442Y53727286D01*
X67024100Y53715900D01*
X61009355Y53715900D01*
X60994547Y53716773D01*
X60962990Y53720508D01*
X60953726Y53718816D01*
X60953725Y53718816D01*
X60908409Y53710540D01*
X60904506Y53709890D01*
X60858971Y53703044D01*
X60858970Y53703044D01*
X60849660Y53701644D01*
X60843496Y53698684D01*
X60836767Y53697455D01*
X60787529Y53671878D01*
X60784013Y53670121D01*
X60742485Y53650180D01*
X60742481Y53650178D01*
X60733994Y53646102D01*
X60728972Y53641459D01*
X60722903Y53638307D01*
X60718126Y53634226D01*
X60682963Y53599063D01*
X60679398Y53595634D01*
X60639773Y53559005D01*
X60636234Y53552912D01*
X60631270Y53547370D01*
X58830104Y51746205D01*
X58767792Y51712179D01*
X58741009Y51709300D01*
X58682718Y51709300D01*
X58667910Y51710173D01*
X58636353Y51713908D01*
X58581752Y51703936D01*
X58577863Y51703288D01*
X58523023Y51695044D01*
X58516858Y51692084D01*
X58510131Y51690855D01*
X58465263Y51667548D01*
X58460929Y51665297D01*
X58457392Y51663530D01*
X58415849Y51643581D01*
X58415843Y51643577D01*
X58407357Y51639502D01*
X58402333Y51634858D01*
X58396267Y51631707D01*
X58391489Y51627627D01*
X58356313Y51592451D01*
X58352748Y51589022D01*
X58313136Y51552405D01*
X58309597Y51546313D01*
X58304638Y51540776D01*
X55326867Y48563005D01*
X55264555Y48528979D01*
X55237772Y48526100D01*
X54905254Y48526100D01*
X54837133Y48546102D01*
X54790640Y48599758D01*
X54780536Y48670032D01*
X54808380Y48732669D01*
X54820298Y48746998D01*
X54927219Y48875558D01*
X54930043Y48880601D01*
X54930046Y48880605D01*
X55027713Y49055002D01*
X55027714Y49055004D01*
X55030537Y49060045D01*
X55032393Y49065512D01*
X55032395Y49065517D01*
X55096647Y49254800D01*
X55098504Y49260270D01*
X55099818Y49269328D01*
X55128314Y49465860D01*
X55128314Y49465862D01*
X55128846Y49469530D01*
X55130429Y49530000D01*
X55111081Y49740560D01*
X55053686Y49944069D01*
X55050977Y49949564D01*
X54962719Y50128531D01*
X54960165Y50133710D01*
X54833651Y50303133D01*
X54678381Y50446663D01*
X54499554Y50559495D01*
X54303160Y50637848D01*
X54297503Y50638973D01*
X54297497Y50638975D01*
X54100234Y50678212D01*
X54037324Y50711119D01*
X54002192Y50772814D01*
X54005992Y50843709D01*
X54047517Y50901295D01*
X54106734Y50926487D01*
X54239015Y50945667D01*
X54239019Y50945668D01*
X54244730Y50946496D01*
X54339356Y50978617D01*
X54439483Y51012605D01*
X54439488Y51012607D01*
X54444955Y51014463D01*
X54449998Y51017287D01*
X54624395Y51114954D01*
X54624399Y51114957D01*
X54629442Y51117781D01*
X54792012Y51252988D01*
X54927219Y51415558D01*
X54930043Y51420601D01*
X54930046Y51420605D01*
X55027713Y51595002D01*
X55027714Y51595004D01*
X55030537Y51600045D01*
X55032393Y51605512D01*
X55032395Y51605517D01*
X55094525Y51788548D01*
X55098504Y51800270D01*
X55119522Y51945221D01*
X55128314Y52005860D01*
X55128314Y52005862D01*
X55128846Y52009530D01*
X55130429Y52070000D01*
X55111081Y52280560D01*
X55053686Y52484069D01*
X55050277Y52490983D01*
X54962719Y52668531D01*
X54960165Y52673710D01*
X54833651Y52843133D01*
X54678381Y52986663D01*
X54550794Y53067165D01*
X54504434Y53096416D01*
X54504433Y53096416D01*
X54499554Y53099495D01*
X54303160Y53177848D01*
X54297503Y53178973D01*
X54297497Y53178975D01*
X54100234Y53218212D01*
X54037324Y53251119D01*
X54002192Y53312814D01*
X54005992Y53383709D01*
X54047517Y53441295D01*
X54106734Y53466487D01*
X54239015Y53485667D01*
X54239019Y53485668D01*
X54244730Y53486496D01*
X54334074Y53516824D01*
X54439483Y53552605D01*
X54439488Y53552607D01*
X54444955Y53554463D01*
X54450710Y53557686D01*
X54624395Y53654954D01*
X54624399Y53654957D01*
X54629442Y53657781D01*
X54792012Y53792988D01*
X54927219Y53955558D01*
X54930043Y53960601D01*
X54930046Y53960605D01*
X55027713Y54135002D01*
X55027714Y54135004D01*
X55030537Y54140045D01*
X55032393Y54145512D01*
X55032395Y54145517D01*
X55094525Y54328548D01*
X55098504Y54340270D01*
X55127021Y54536940D01*
X55128314Y54545860D01*
X55128314Y54545862D01*
X55128846Y54549530D01*
X55130429Y54610000D01*
X55111081Y54820560D01*
X55060274Y55000709D01*
X55061034Y55071700D01*
X55092448Y55124004D01*
X56959639Y56991195D01*
X57021951Y57025221D01*
X57048734Y57028100D01*
X66344451Y57028100D01*
X66359259Y57027227D01*
X66390816Y57023492D01*
X66400078Y57025184D01*
X66400087Y57025184D01*
X66445413Y57033463D01*
X66449321Y57034114D01*
X66451350Y57034419D01*
X66504145Y57042356D01*
X66510309Y57045316D01*
X66517038Y57046545D01*
X66566276Y57072122D01*
X66569792Y57073879D01*
X66611320Y57093820D01*
X66611324Y57093822D01*
X66619811Y57097898D01*
X66624833Y57102541D01*
X66630902Y57105693D01*
X66635680Y57109774D01*
X66670855Y57144949D01*
X66674421Y57148379D01*
X66687586Y57160549D01*
X66714032Y57184995D01*
X66717571Y57191087D01*
X66722530Y57196624D01*
X68314142Y58788236D01*
X68376454Y58822262D01*
X68447269Y58817197D01*
G37*
G04 #@! TD.AperFunction*
G04 #@! TA.AperFunction,Conductor*
G36*
X68132214Y51623298D02*
G01*
X68178519Y51570051D01*
X68214369Y51492286D01*
X68336405Y51319609D01*
X68487865Y51172063D01*
X68492661Y51168858D01*
X68492664Y51168856D01*
X68625509Y51080092D01*
X68663677Y51054589D01*
X68668985Y51052308D01*
X68668986Y51052308D01*
X68852650Y50973400D01*
X68852653Y50973399D01*
X68857953Y50971122D01*
X68863582Y50969848D01*
X68863583Y50969848D01*
X69058550Y50925731D01*
X69058553Y50925731D01*
X69064186Y50924456D01*
X69069958Y50924229D01*
X69075687Y50923475D01*
X69075327Y50920743D01*
X69131604Y50901784D01*
X69175950Y50846341D01*
X69183282Y50775724D01*
X69151271Y50712353D01*
X69090081Y50676349D01*
X69080704Y50674368D01*
X68921650Y50647038D01*
X68921649Y50647038D01*
X68915953Y50646059D01*
X68717575Y50572873D01*
X68712614Y50569921D01*
X68712613Y50569921D01*
X68550979Y50473759D01*
X68535856Y50464762D01*
X68376881Y50325345D01*
X68245976Y50159292D01*
X68243287Y50154181D01*
X68243285Y50154178D01*
X68174812Y50024032D01*
X68125393Y49973060D01*
X68063304Y49956700D01*
X61489535Y49956700D01*
X61421414Y49976702D01*
X61374921Y50030358D01*
X61364817Y50100632D01*
X61394311Y50165212D01*
X61400440Y50171795D01*
X62835040Y51606395D01*
X62897352Y51640421D01*
X62924135Y51643300D01*
X68064093Y51643300D01*
X68132214Y51623298D01*
G37*
G04 #@! TD.AperFunction*
G04 #@! TA.AperFunction,Conductor*
G36*
X66071510Y67905598D02*
G01*
X66092484Y67888695D01*
X67722795Y66258385D01*
X67756820Y66196073D01*
X67759700Y66169290D01*
X67759700Y64376749D01*
X67758827Y64361941D01*
X67755092Y64330384D01*
X67756784Y64321122D01*
X67756784Y64321113D01*
X67765063Y64275787D01*
X67765714Y64271879D01*
X67773956Y64217055D01*
X67776916Y64210891D01*
X67778145Y64204162D01*
X67803722Y64154924D01*
X67805479Y64151408D01*
X67825420Y64109880D01*
X67825422Y64109876D01*
X67829498Y64101389D01*
X67834141Y64096367D01*
X67837293Y64090298D01*
X67841374Y64085520D01*
X67876549Y64050345D01*
X67879978Y64046780D01*
X67916595Y64007168D01*
X67922687Y64003629D01*
X67928224Y63998670D01*
X68563176Y63363718D01*
X68597202Y63301406D01*
X68592137Y63230591D01*
X68549590Y63173755D01*
X68543799Y63169880D01*
X68540821Y63167716D01*
X68535856Y63164762D01*
X68376881Y63025345D01*
X68245976Y62859292D01*
X68243287Y62854181D01*
X68243285Y62854178D01*
X68229792Y62828531D01*
X68147523Y62672164D01*
X68084820Y62470227D01*
X68059967Y62260246D01*
X68073796Y62049251D01*
X68075217Y62043655D01*
X68075218Y62043650D01*
X68124424Y61849905D01*
X68125845Y61844310D01*
X68214369Y61652286D01*
X68336405Y61479609D01*
X68365041Y61451713D01*
X68481119Y61338635D01*
X68487865Y61332063D01*
X68492661Y61328858D01*
X68492664Y61328856D01*
X68546695Y61292754D01*
X68592223Y61238277D01*
X68601071Y61167834D01*
X68565788Y61098894D01*
X68545345Y61078451D01*
X68541780Y61075022D01*
X68502168Y61038405D01*
X68498629Y61032313D01*
X68493670Y61026776D01*
X67907878Y60440984D01*
X67896788Y60431129D01*
X67879234Y60417291D01*
X67879230Y60417287D01*
X67871835Y60411457D01*
X67840243Y60365746D01*
X67838010Y60362623D01*
X67805038Y60317982D01*
X67802773Y60311532D01*
X67798883Y60305904D01*
X67796045Y60296929D01*
X67796042Y60296924D01*
X67782156Y60253015D01*
X67780903Y60249258D01*
X67765643Y60205806D01*
X67765642Y60205803D01*
X67762523Y60196920D01*
X67762254Y60190084D01*
X67760193Y60183566D01*
X67759700Y60177302D01*
X67759700Y60127541D01*
X67759603Y60122595D01*
X67757486Y60068709D01*
X67759292Y60061898D01*
X67759700Y60054483D01*
X67759700Y59492873D01*
X67739698Y59424752D01*
X67722795Y59403778D01*
X66237421Y57918405D01*
X66175109Y57884379D01*
X66148326Y57881500D01*
X56852611Y57881500D01*
X56837803Y57882373D01*
X56806246Y57886108D01*
X56751645Y57876136D01*
X56747756Y57875488D01*
X56692916Y57867244D01*
X56686751Y57864284D01*
X56680024Y57863055D01*
X56632780Y57838514D01*
X56630822Y57837497D01*
X56627285Y57835730D01*
X56585742Y57815781D01*
X56585736Y57815777D01*
X56577250Y57811702D01*
X56572226Y57807058D01*
X56566160Y57803907D01*
X56561382Y57799827D01*
X56526206Y57764651D01*
X56522641Y57761222D01*
X56483029Y57724605D01*
X56479490Y57718513D01*
X56474531Y57712976D01*
X55151446Y56389891D01*
X55089134Y56355865D01*
X55018319Y56360930D01*
X54961483Y56403477D01*
X54936672Y56469997D01*
X54952417Y56540552D01*
X55027713Y56675002D01*
X55027714Y56675004D01*
X55030537Y56680045D01*
X55032393Y56685512D01*
X55032395Y56685517D01*
X55088169Y56849825D01*
X55098504Y56880270D01*
X55103785Y56916688D01*
X55128314Y57085860D01*
X55128314Y57085862D01*
X55128846Y57089530D01*
X55130429Y57150000D01*
X55111081Y57360560D01*
X55105899Y57378936D01*
X55093690Y57422225D01*
X55053686Y57564069D01*
X55050276Y57570985D01*
X54962719Y57748531D01*
X54960165Y57753710D01*
X54862562Y57884416D01*
X54837104Y57918509D01*
X54837103Y57918510D01*
X54833651Y57923133D01*
X54678381Y58066663D01*
X54499554Y58179495D01*
X54303160Y58257848D01*
X54297503Y58258973D01*
X54297497Y58258975D01*
X54100234Y58298212D01*
X54037324Y58331119D01*
X54002192Y58392814D01*
X54005992Y58463709D01*
X54047517Y58521295D01*
X54106734Y58546487D01*
X54239015Y58565667D01*
X54239019Y58565668D01*
X54244730Y58566496D01*
X54323987Y58593400D01*
X54439483Y58632605D01*
X54439488Y58632607D01*
X54444955Y58634463D01*
X54449998Y58637287D01*
X54624395Y58734954D01*
X54624399Y58734957D01*
X54629442Y58737781D01*
X54792012Y58872988D01*
X54927219Y59035558D01*
X54930043Y59040601D01*
X54930046Y59040605D01*
X55027713Y59215002D01*
X55027714Y59215004D01*
X55030537Y59220045D01*
X55032393Y59225512D01*
X55032395Y59225517D01*
X55096647Y59414800D01*
X55098504Y59420270D01*
X55099577Y59427665D01*
X55128314Y59625860D01*
X55128314Y59625862D01*
X55128846Y59629530D01*
X55130429Y59690000D01*
X55111081Y59900560D01*
X55105899Y59918936D01*
X55084046Y59996421D01*
X55053686Y60104069D01*
X55050277Y60110983D01*
X54962719Y60288531D01*
X54960165Y60293710D01*
X54867883Y60417291D01*
X54837104Y60458509D01*
X54837103Y60458510D01*
X54833651Y60463133D01*
X54678381Y60606663D01*
X54499554Y60719495D01*
X54303160Y60797848D01*
X54297503Y60798973D01*
X54297497Y60798975D01*
X54100234Y60838212D01*
X54037324Y60871119D01*
X54002192Y60932814D01*
X54005992Y61003709D01*
X54047517Y61061295D01*
X54106734Y61086487D01*
X54239015Y61105667D01*
X54239019Y61105668D01*
X54244730Y61106496D01*
X54340493Y61139003D01*
X54439483Y61172605D01*
X54439488Y61172607D01*
X54444955Y61174463D01*
X54451423Y61178085D01*
X54624395Y61274954D01*
X54624399Y61274957D01*
X54629442Y61277781D01*
X54792012Y61412988D01*
X54927219Y61575558D01*
X54930043Y61580601D01*
X54930046Y61580605D01*
X55027713Y61755002D01*
X55027714Y61755004D01*
X55030537Y61760045D01*
X55032393Y61765512D01*
X55032395Y61765517D01*
X55096647Y61954800D01*
X55098504Y61960270D01*
X55112410Y62056172D01*
X55128314Y62165860D01*
X55128314Y62165862D01*
X55128846Y62169530D01*
X55130429Y62230000D01*
X55111081Y62440560D01*
X55105899Y62458936D01*
X55088786Y62519612D01*
X55053686Y62644069D01*
X55051127Y62649260D01*
X54962719Y62828531D01*
X54960165Y62833710D01*
X54833651Y63003133D01*
X54678381Y63146663D01*
X54645014Y63167716D01*
X54504434Y63256416D01*
X54504433Y63256416D01*
X54499554Y63259495D01*
X54303160Y63337848D01*
X54297503Y63338973D01*
X54297497Y63338975D01*
X54100234Y63378212D01*
X54037324Y63411119D01*
X54002192Y63472814D01*
X54005992Y63543709D01*
X54047517Y63601295D01*
X54106734Y63626487D01*
X54239015Y63645667D01*
X54239019Y63645668D01*
X54244730Y63646496D01*
X54334074Y63676824D01*
X54439483Y63712605D01*
X54439488Y63712607D01*
X54444955Y63714463D01*
X54482698Y63735600D01*
X54624395Y63814954D01*
X54624399Y63814957D01*
X54629442Y63817781D01*
X54792012Y63952988D01*
X54927219Y64115558D01*
X54930043Y64120601D01*
X54930046Y64120605D01*
X55027713Y64295002D01*
X55027714Y64295004D01*
X55030537Y64300045D01*
X55032393Y64305512D01*
X55032395Y64305517D01*
X55095251Y64490688D01*
X55098504Y64500270D01*
X55099577Y64507665D01*
X55128314Y64705860D01*
X55128314Y64705862D01*
X55128846Y64709530D01*
X55130429Y64770000D01*
X55111081Y64980560D01*
X55105899Y64998936D01*
X55084046Y65076421D01*
X55053686Y65184069D01*
X55050277Y65190983D01*
X54962719Y65368531D01*
X54960165Y65373710D01*
X54833651Y65543133D01*
X54678381Y65686663D01*
X54576862Y65750717D01*
X54504434Y65796416D01*
X54504433Y65796416D01*
X54499554Y65799495D01*
X54303160Y65877848D01*
X54297503Y65878973D01*
X54297497Y65878975D01*
X54100234Y65918212D01*
X54037324Y65951119D01*
X54002192Y66012814D01*
X54005992Y66083709D01*
X54047517Y66141295D01*
X54106734Y66166487D01*
X54239015Y66185667D01*
X54239019Y66185668D01*
X54244730Y66186496D01*
X54347790Y66221480D01*
X54439483Y66252605D01*
X54439488Y66252607D01*
X54444955Y66254463D01*
X54449998Y66257287D01*
X54624395Y66354954D01*
X54624399Y66354957D01*
X54629442Y66357781D01*
X54792012Y66492988D01*
X54927219Y66655558D01*
X54930043Y66660601D01*
X54930046Y66660605D01*
X55027713Y66835002D01*
X55027714Y66835004D01*
X55030537Y66840045D01*
X55032393Y66845512D01*
X55032395Y66845517D01*
X55079173Y66983324D01*
X55098504Y67040270D01*
X55099526Y67047313D01*
X55128314Y67245860D01*
X55128314Y67245862D01*
X55128846Y67249530D01*
X55130429Y67310000D01*
X55111081Y67520560D01*
X55106731Y67535986D01*
X55088786Y67599612D01*
X55053686Y67724069D01*
X55043920Y67743873D01*
X55031731Y67813815D01*
X55059291Y67879244D01*
X55117850Y67919387D01*
X55156927Y67925600D01*
X66003389Y67925600D01*
X66071510Y67905598D01*
G37*
G04 #@! TD.AperFunction*
M02*
