G04 #@! TF.GenerationSoftware,KiCad,Pcbnew,(6.0.10-0)*
G04 #@! TF.CreationDate,2023-01-27T16:31:16+09:00*
G04 #@! TF.ProjectId,MEZ6502LED,4d455a36-3530-4324-9c45-442e6b696361,A*
G04 #@! TF.SameCoordinates,PX5ee3fe0PY8f872a0*
G04 #@! TF.FileFunction,Copper,L2,Bot*
G04 #@! TF.FilePolarity,Positive*
%FSLAX46Y46*%
G04 Gerber Fmt 4.6, Leading zero omitted, Abs format (unit mm)*
G04 Created by KiCad (PCBNEW (6.0.10-0)) date 2023-01-27 16:31:16*
%MOMM*%
%LPD*%
G01*
G04 APERTURE LIST*
G04 #@! TA.AperFunction,ComponentPad*
%ADD10R,1.600000X1.600000*%
G04 #@! TD*
G04 #@! TA.AperFunction,ComponentPad*
%ADD11O,1.600000X1.600000*%
G04 #@! TD*
G04 #@! TA.AperFunction,ComponentPad*
%ADD12C,1.600000*%
G04 #@! TD*
G04 #@! TA.AperFunction,ComponentPad*
%ADD13R,1.700000X1.700000*%
G04 #@! TD*
G04 #@! TA.AperFunction,ComponentPad*
%ADD14O,1.700000X1.700000*%
G04 #@! TD*
G04 #@! TA.AperFunction,ViaPad*
%ADD15C,0.605000*%
G04 #@! TD*
G04 #@! TA.AperFunction,Conductor*
%ADD16C,0.152400*%
G04 #@! TD*
G04 #@! TA.AperFunction,Conductor*
%ADD17C,0.400000*%
G04 #@! TD*
G04 APERTURE END LIST*
D10*
X53975000Y74930000D03*
D11*
X53975000Y72390000D03*
X53975000Y69850000D03*
X53975000Y67310000D03*
X53975000Y64770000D03*
X53975000Y62230000D03*
X53975000Y59690000D03*
X53975000Y57150000D03*
X53975000Y54610000D03*
X53975000Y52070000D03*
X53975000Y49530000D03*
X53975000Y46990000D03*
X53975000Y44450000D03*
X53975000Y41910000D03*
X53975000Y39370000D03*
X53975000Y36830000D03*
X53975000Y34290000D03*
X53975000Y31750000D03*
X53975000Y29210000D03*
X53975000Y26670000D03*
X69215000Y26670000D03*
X69215000Y29210000D03*
X69215000Y31750000D03*
X69215000Y34290000D03*
X69215000Y36830000D03*
X69215000Y39370000D03*
X69215000Y41910000D03*
X69215000Y44450000D03*
X69215000Y46990000D03*
X69215000Y49530000D03*
X69215000Y52070000D03*
X69215000Y54610000D03*
X69215000Y57150000D03*
X69215000Y59690000D03*
X69215000Y62230000D03*
X69215000Y64770000D03*
X69215000Y67310000D03*
X69215000Y69850000D03*
X69215000Y72390000D03*
X69215000Y74930000D03*
D12*
X57785000Y19685000D03*
D11*
X67945000Y19685000D03*
D12*
X57785000Y22860000D03*
D11*
X67945000Y22860000D03*
D12*
X55245000Y16510000D03*
D11*
X45085000Y16510000D03*
D12*
X55245000Y19685000D03*
D11*
X45085000Y19685000D03*
D12*
X55270000Y22860000D03*
D11*
X45110000Y22860000D03*
D13*
X1905000Y12695000D03*
D14*
X1905000Y10155000D03*
X1905000Y7615000D03*
X1905000Y5075000D03*
X1905000Y2535000D03*
D13*
X48260000Y74930000D03*
D14*
X48260000Y72390000D03*
X48260000Y69850000D03*
X48260000Y67310000D03*
X48260000Y64770000D03*
X48260000Y62230000D03*
X48260000Y59690000D03*
X48260000Y57150000D03*
X48260000Y54610000D03*
X48260000Y52070000D03*
X48260000Y49530000D03*
X48260000Y46990000D03*
X48260000Y44450000D03*
X48260000Y41910000D03*
X48260000Y39370000D03*
X48260000Y36830000D03*
X48260000Y34290000D03*
X48260000Y31750000D03*
X48260000Y29210000D03*
X48260000Y26670000D03*
D12*
X45065000Y57150000D03*
X42565000Y57150000D03*
D13*
X74930000Y74930000D03*
D14*
X74930000Y72390000D03*
X74930000Y69850000D03*
X74930000Y67310000D03*
X74930000Y64770000D03*
X74930000Y62230000D03*
X74930000Y59690000D03*
X74930000Y57150000D03*
X74930000Y54610000D03*
X74930000Y52070000D03*
X74930000Y49530000D03*
X74930000Y46990000D03*
X74930000Y44450000D03*
X74930000Y41910000D03*
X74930000Y39370000D03*
X74930000Y36830000D03*
X74930000Y34290000D03*
X74930000Y31750000D03*
X74930000Y29210000D03*
X74930000Y26670000D03*
D13*
X69215000Y12695000D03*
D14*
X69215000Y10155000D03*
X69215000Y7615000D03*
X69215000Y5075000D03*
X69215000Y2535000D03*
D13*
X71755000Y74930000D03*
D14*
X71755000Y72390000D03*
X71755000Y69850000D03*
X71755000Y67310000D03*
X71755000Y64770000D03*
X71755000Y62230000D03*
X71755000Y59690000D03*
X71755000Y57150000D03*
X71755000Y54610000D03*
X71755000Y52070000D03*
X71755000Y49530000D03*
X71755000Y46990000D03*
X71755000Y44450000D03*
X71755000Y41910000D03*
X71755000Y39370000D03*
X71755000Y36830000D03*
X71755000Y34290000D03*
X71755000Y31750000D03*
X71755000Y29210000D03*
X71755000Y26670000D03*
D13*
X51435000Y74930000D03*
D14*
X51435000Y72390000D03*
X51435000Y69850000D03*
X51435000Y67310000D03*
X51435000Y64770000D03*
X51435000Y62230000D03*
X51435000Y59690000D03*
X51435000Y57150000D03*
X51435000Y54610000D03*
X51435000Y52070000D03*
X51435000Y49530000D03*
X51435000Y46990000D03*
X51435000Y44450000D03*
X51435000Y41910000D03*
X51435000Y39370000D03*
X51435000Y36830000D03*
X51435000Y34290000D03*
X51435000Y31750000D03*
X51435000Y29210000D03*
X51435000Y26670000D03*
D15*
X39370000Y36830000D03*
X42545000Y25400000D03*
X42545000Y31750000D03*
X42545000Y52705000D03*
X66040000Y11430000D03*
X66040000Y1270000D03*
X65405000Y33020000D03*
X57785000Y33020000D03*
X56515000Y52070000D03*
X64770000Y50800000D03*
X64770000Y43815000D03*
X57150000Y47625000D03*
X57785000Y43815000D03*
X57785000Y39370000D03*
X65405000Y39370000D03*
X57785000Y55880000D03*
X65405000Y74930000D03*
X65405000Y58420000D03*
X57785000Y67310000D03*
X65405000Y67310000D03*
X57785000Y74930000D03*
X81915000Y26035000D03*
X38735000Y8255000D03*
X38100000Y11430000D03*
X38735000Y3810000D03*
X38100000Y1270000D03*
X38100000Y13970000D03*
X39370000Y76200000D03*
X81915000Y76200000D03*
X4445000Y6350000D03*
X4445000Y3810000D03*
X59121900Y50045124D03*
X57995371Y49446629D03*
X67351000Y48768000D03*
X63246000Y41074600D03*
X60880800Y42291000D03*
X60880800Y45814200D03*
X60439100Y49062700D03*
X60880100Y46698900D03*
X60188186Y40857869D03*
D16*
X57995371Y49446629D02*
X57759600Y49682400D01*
X57759600Y49682400D02*
X54127400Y49682400D01*
X54127400Y49682400D02*
X53975000Y49530000D01*
X53975000Y72390000D02*
X53074900Y72390000D01*
X53074900Y72390000D02*
X51804900Y71120000D01*
X51804900Y71120000D02*
X51163600Y71120000D01*
X51163600Y71120000D02*
X50006800Y69963200D01*
X50006800Y69963200D02*
X50006800Y57298600D01*
X50006800Y57298600D02*
X48588200Y55880000D01*
X48588200Y55880000D02*
X48004300Y55880000D01*
X48004300Y55880000D02*
X46876400Y54752100D01*
X46876400Y54752100D02*
X46876400Y28997300D01*
X46876400Y28997300D02*
X48125100Y27748600D01*
X48125100Y27748600D02*
X48782300Y27748600D01*
X48782300Y27748600D02*
X49341500Y27189400D01*
X49341500Y27189400D02*
X49341500Y26226129D01*
X49341500Y26226129D02*
X48681819Y25566448D01*
X48681819Y25566448D02*
X46571500Y25566448D01*
X46571500Y25566448D02*
X45110000Y24104948D01*
X45110000Y24104948D02*
X45110000Y22860000D01*
X51435000Y74930000D02*
X51435000Y73986100D01*
X51435000Y73986100D02*
X49701900Y72253000D01*
X49701900Y72253000D02*
X49701900Y59603800D01*
X49701900Y59603800D02*
X48518100Y58420000D01*
X48518100Y58420000D02*
X47963700Y58420000D01*
X47963700Y58420000D02*
X47181300Y57637600D01*
X46571500Y28870900D02*
X48260000Y27182400D01*
X47181300Y57637600D02*
X47181300Y55543800D01*
X47181300Y55543800D02*
X46571500Y54934000D01*
X46571500Y54934000D02*
X46571500Y28870900D01*
X48260000Y27182400D02*
X48260000Y26670000D01*
X45085000Y19685000D02*
X44361200Y20408800D01*
X44361200Y20408800D02*
X44361200Y22154139D01*
X44361200Y22154139D02*
X44081400Y22433939D01*
X46266700Y25692700D02*
X46266700Y55060252D01*
X44081400Y23507400D02*
X46266700Y25692700D01*
X46266700Y55060252D02*
X46876500Y55670052D01*
X46876500Y59831871D02*
X47890929Y60846300D01*
X46876500Y55670052D02*
X46876500Y59831871D01*
X47890929Y60846300D02*
X48408800Y60846300D01*
X44081400Y22433939D02*
X44081400Y23507400D01*
X48408800Y60846300D02*
X49361300Y61798800D01*
X49361300Y61798800D02*
X49361300Y65264800D01*
X49361300Y65264800D02*
X48260000Y66366100D01*
X48260000Y66366100D02*
X48260000Y67310000D01*
D17*
X45065000Y57150000D02*
X40640000Y52725000D01*
X40640000Y52725000D02*
X40640000Y14605000D01*
X40640000Y14605000D02*
X38730000Y12695000D01*
X38730000Y12695000D02*
X1905000Y12695000D01*
D16*
X71755000Y67310000D02*
X71755000Y66366300D01*
X71755000Y66366300D02*
X70243600Y64854900D01*
X70243600Y64854900D02*
X70243600Y64343939D01*
X70243600Y64343939D02*
X69463261Y63563600D01*
X69463261Y63563600D02*
X68662887Y63563600D01*
X68662887Y63563600D02*
X67576800Y62477513D01*
X67576800Y62477513D02*
X67576800Y58318656D01*
X67576800Y58318656D02*
X61716300Y52458156D01*
X61716300Y52458156D02*
X61716300Y41635600D01*
X61716300Y41635600D02*
X56910700Y36830000D01*
X56910700Y36830000D02*
X53975000Y36830000D01*
X71755000Y64770000D02*
X70243700Y63258700D01*
X70243700Y63258700D02*
X68789039Y63258700D01*
X67881600Y58192404D02*
X62021300Y52332104D01*
X67881600Y62351261D02*
X67881600Y58192404D01*
X68789039Y63258700D02*
X67881600Y62351261D01*
X62021300Y52332104D02*
X62021300Y41472400D01*
X62021300Y41472400D02*
X56314700Y35765800D01*
X56314700Y35765800D02*
X53543100Y35765800D01*
X53543100Y35765800D02*
X52946300Y36362600D01*
X52946300Y36362600D02*
X52946300Y38341300D01*
X52946300Y38341300D02*
X53975000Y39370000D01*
X71755000Y68845000D02*
X72845300Y67754700D01*
X72845300Y67754700D02*
X72845300Y64334600D01*
X69471900Y60960000D02*
X69030339Y60960000D01*
X55312200Y34290000D02*
X53975000Y34290000D01*
X72845300Y64334600D02*
X72010700Y63500000D01*
X71491600Y63500000D02*
X70449700Y62458100D01*
X70449700Y62458100D02*
X70449700Y61937800D01*
X70449700Y61937800D02*
X69471900Y60960000D01*
X72010700Y63500000D02*
X71491600Y63500000D01*
X71755000Y69850000D02*
X71755000Y68845000D01*
X69030339Y60960000D02*
X68186400Y60116061D01*
X68186400Y60116061D02*
X68186400Y58066152D01*
X68186400Y58066152D02*
X62326100Y52205852D01*
X62326100Y52205852D02*
X62326100Y41303900D01*
X62326100Y41303900D02*
X55312200Y34290000D01*
X74930000Y69850000D02*
X74930000Y68906100D01*
X74809800Y40831400D02*
X73851200Y39872800D01*
X74930000Y68906100D02*
X76619100Y67217000D01*
X76619100Y42073729D02*
X75376771Y40831400D01*
X75376771Y40831400D02*
X74809800Y40831400D01*
X76619100Y67217000D02*
X76619100Y42073729D01*
X73851200Y39872800D02*
X73851200Y29349777D01*
X73851200Y29349777D02*
X72328023Y27826600D01*
X70548400Y27114400D02*
X70548400Y25032348D01*
X71260600Y27826600D02*
X70548400Y27114400D01*
X72328023Y27826600D02*
X71260600Y27826600D01*
X70548400Y25032348D02*
X69088000Y23571948D01*
X69088000Y23571948D02*
X69088000Y20828000D01*
X69088000Y20828000D02*
X67945000Y19685000D01*
X76313600Y63386400D02*
X76313600Y46849600D01*
X76313600Y46849600D02*
X76008600Y46544600D01*
X76008600Y46544600D02*
X76008600Y46543229D01*
X74930000Y64770000D02*
X76313600Y63386400D01*
X74544300Y45640500D02*
X73442300Y44538500D01*
X75105871Y45640500D02*
X74544300Y45640500D01*
X76008600Y46543229D02*
X75105871Y45640500D01*
X73442300Y44538500D02*
X73442300Y29371929D01*
X72201771Y28131400D02*
X71134348Y28131400D01*
X73442300Y29371929D02*
X72201771Y28131400D01*
X71134348Y28131400D02*
X70243600Y27240652D01*
X70243600Y27240652D02*
X70243600Y25158600D01*
X70243600Y25158600D02*
X67945000Y22860000D01*
D17*
X71755000Y46990000D02*
X70485000Y45720000D01*
X70485000Y28575000D02*
X69215000Y27305000D01*
X69215000Y27305000D02*
X69215000Y26670000D01*
X70485000Y45720000D02*
X70485000Y28575000D01*
D16*
X53975000Y29210000D02*
X53975000Y30295339D01*
X53975000Y30295339D02*
X55118000Y31438339D01*
X55118000Y31438339D02*
X55118000Y33233696D01*
X55118000Y33233696D02*
X62427804Y40543500D01*
X62427804Y40543500D02*
X63576652Y40543500D01*
X63576652Y40543500D02*
X68186400Y45153248D01*
X68186400Y45153248D02*
X68186400Y49956061D01*
X68186400Y49956061D02*
X68789039Y50558700D01*
X68789039Y50558700D02*
X69230600Y50558700D01*
X69230600Y50558700D02*
X70449700Y51777800D01*
X70449700Y51777800D02*
X70449700Y54830300D01*
X70449700Y54830300D02*
X71308100Y55688700D01*
X71308100Y55688700D02*
X71866800Y55688700D01*
X71866800Y55688700D02*
X73150300Y56972200D01*
X73150300Y56972200D02*
X73150300Y63715700D01*
X73150300Y63715700D02*
X73455100Y64020500D01*
X73455100Y64020500D02*
X73455100Y73229900D01*
X73455100Y73229900D02*
X71755000Y74930000D01*
X60880800Y42291000D02*
X61087000Y42497200D01*
X61087000Y42497200D02*
X61087000Y44856911D01*
X61087000Y44856911D02*
X60020200Y45923711D01*
X60020200Y45923711D02*
X60020200Y48299459D01*
X60020200Y48299459D02*
X58332459Y49987200D01*
X58332459Y49987200D02*
X54972461Y49987200D01*
X54972461Y49987200D02*
X54401061Y50558600D01*
X54401061Y50558600D02*
X52946400Y50558600D01*
X52946400Y50558600D02*
X51435000Y52070000D01*
X59121900Y50045124D02*
X58875024Y50292000D01*
X58875024Y50292000D02*
X55118000Y50292000D01*
X55118000Y50292000D02*
X53975000Y51435000D01*
X53975000Y51435000D02*
X53975000Y52070000D01*
X60188186Y40857869D02*
X60507517Y40857869D01*
X61411400Y41761752D02*
X61411400Y49943303D01*
X61411400Y49943303D02*
X55308400Y56046303D01*
X55308400Y56046303D02*
X55308400Y57702313D01*
X55308400Y57702313D02*
X54527313Y58483400D01*
X54527313Y58483400D02*
X53726939Y58483400D01*
X60507517Y40857869D02*
X61411400Y41761752D01*
X53726939Y58483400D02*
X52946400Y59263939D01*
X52946400Y59263939D02*
X52946400Y62243971D01*
X51435000Y63755371D02*
X51435000Y64770000D01*
X52946400Y62243971D02*
X51435000Y63755371D01*
X63246000Y41074600D02*
X63676700Y41074600D01*
X63676700Y41074600D02*
X67881600Y45279500D01*
X67881600Y52591200D02*
X69215000Y53924600D01*
X67881600Y45279500D02*
X67881600Y52591200D01*
X69215000Y53924600D02*
X69215000Y54610000D01*
X52513700Y54610000D02*
X51435000Y54610000D01*
X60880800Y45814200D02*
X60325000Y46370000D01*
X59907900Y48842811D02*
X59907900Y50145300D01*
X59907900Y50145300D02*
X56521900Y53531300D01*
X60325000Y46370000D02*
X60325000Y48425711D01*
X56521900Y53531300D02*
X53592400Y53531300D01*
X60325000Y48425711D02*
X59907900Y48842811D01*
X53592400Y53531300D02*
X52513700Y54610000D01*
X67351000Y48768000D02*
X67351000Y54200900D01*
X67351000Y54200900D02*
X68788800Y55638700D01*
X69158361Y55638700D02*
X70243600Y56723939D01*
X68788800Y55638700D02*
X69158361Y55638700D01*
X70243600Y56723939D02*
X70243600Y57194600D01*
X70243600Y57194600D02*
X71755000Y58706000D01*
X71755000Y58706000D02*
X71755000Y59690000D01*
X53975000Y31750000D02*
X53975000Y32521748D01*
X53975000Y32521748D02*
X62701800Y41248548D01*
X62701800Y41248548D02*
X62701800Y52150500D01*
X62701800Y52150500D02*
X68971300Y58420000D01*
X68971300Y58420000D02*
X69442500Y58420000D01*
X69442500Y58420000D02*
X70676200Y59653700D01*
X70676200Y59653700D02*
X70676200Y60145800D01*
X70676200Y60145800D02*
X71681600Y61151200D01*
X71681600Y61151200D02*
X72221400Y61151200D01*
X72221400Y61151200D02*
X72845300Y61775100D01*
X72845300Y61775100D02*
X72845300Y63842000D01*
X72845300Y63842000D02*
X73150200Y64146900D01*
X73150200Y64146900D02*
X73150200Y70994800D01*
X73150200Y70994800D02*
X71755000Y72390000D01*
X48260000Y62230000D02*
X48260000Y61825500D01*
X48260000Y61825500D02*
X46571700Y60137200D01*
X46571700Y60137200D02*
X46571700Y55796304D01*
X46571700Y55796304D02*
X45961900Y55186504D01*
X45961900Y55186504D02*
X45961900Y25818952D01*
X45961900Y25818952D02*
X43776600Y23633652D01*
X43776600Y23633652D02*
X43776600Y22307687D01*
X43776600Y22307687D02*
X44056400Y22027887D01*
X44056400Y22027887D02*
X44056400Y17538600D01*
X44056400Y17538600D02*
X45085000Y16510000D01*
X52070000Y59690000D02*
X53581400Y58178600D01*
X53581400Y58178600D02*
X54401061Y58178600D01*
X54401061Y58178600D02*
X55003600Y57576061D01*
X51435000Y59690000D02*
X52070000Y59690000D01*
X55003600Y57576061D02*
X55003600Y55920051D01*
X55003600Y55920051D02*
X60970500Y49953151D01*
X60970500Y49953151D02*
X60970500Y46789300D01*
X60970500Y46789300D02*
X60880100Y46698900D01*
X51435000Y62230000D02*
X50311800Y63353200D01*
X50311800Y63353200D02*
X50311800Y65233900D01*
X50311800Y65233900D02*
X51117900Y66040000D01*
X51117900Y66040000D02*
X66916300Y66040000D01*
X66916300Y66040000D02*
X68186300Y67310000D01*
X68186300Y67310000D02*
X69215000Y67310000D01*
X53975000Y54610000D02*
X52896300Y55688700D01*
X52896300Y55688700D02*
X50417400Y55688700D01*
X50417400Y55688700D02*
X49338700Y54610000D01*
X49338700Y54610000D02*
X48260000Y54610000D01*
X53975000Y52070000D02*
X52896300Y53148700D01*
X52896300Y53148700D02*
X50417400Y53148700D01*
X50417400Y53148700D02*
X49338700Y52070000D01*
X49338700Y52070000D02*
X48260000Y52070000D01*
X53975000Y44450000D02*
X52896400Y45528600D01*
X52896400Y45528600D02*
X50481600Y45528600D01*
X50481600Y45528600D02*
X49403000Y44450000D01*
X49403000Y44450000D02*
X48260000Y44450000D01*
X53975000Y41910000D02*
X52896300Y42988700D01*
X52896300Y42988700D02*
X50417400Y42988700D01*
X50417400Y42988700D02*
X49338700Y41910000D01*
X49338700Y41910000D02*
X48260000Y41910000D01*
X53975000Y46990000D02*
X52896300Y45911300D01*
X52896300Y45911300D02*
X50417400Y45911300D01*
X49338700Y46990000D02*
X48260000Y46990000D01*
X50417400Y45911300D02*
X49338700Y46990000D01*
X53975000Y39370000D02*
X52896300Y40448700D01*
X52896300Y40448700D02*
X49338700Y40448700D01*
X49338700Y40448700D02*
X48260000Y39370000D01*
X71755000Y39370000D02*
X71755000Y40313700D01*
X71755000Y40313700D02*
X72833700Y41392400D01*
X72833700Y41392400D02*
X72833700Y45624600D01*
X72833700Y45624600D02*
X73766200Y46557100D01*
X73766200Y46557100D02*
X73766200Y49894300D01*
X73766200Y49894300D02*
X74671900Y50800000D01*
X74671900Y50800000D02*
X75190000Y50800000D01*
X75190000Y50800000D02*
X76008700Y51618700D01*
X76008700Y51618700D02*
X76008700Y62676671D01*
X76008700Y62676671D02*
X75376771Y63308600D01*
X75376771Y63308600D02*
X74740400Y63308600D01*
X74740400Y63308600D02*
X73851300Y64197700D01*
X73851300Y64197700D02*
X73851300Y73851300D01*
X73851300Y73851300D02*
X74930000Y74930000D01*
X71755000Y45393700D02*
X73380200Y47018900D01*
X73380200Y47018900D02*
X73380200Y55041400D01*
X71755000Y44450000D02*
X71755000Y45393700D01*
X73543200Y58303200D02*
X74930000Y59690000D01*
X73543200Y55204400D02*
X73543200Y58303200D01*
X73380200Y55041400D02*
X73543200Y55204400D01*
X51435000Y57150000D02*
X52513700Y57150000D01*
X60439100Y50053500D02*
X60439100Y49062700D01*
X54421300Y56071300D02*
X60439100Y50053500D01*
X53592400Y56071300D02*
X54421300Y56071300D01*
X52513700Y57150000D02*
X53592400Y56071300D01*
X57785000Y22860000D02*
X57785000Y19685000D01*
X55245000Y16510000D02*
X55245000Y19685000D01*
X52740400Y25389600D02*
X55270000Y22860000D01*
X52740400Y26944100D02*
X52740400Y25389600D01*
X51744500Y27940000D02*
X52740400Y26944100D01*
X51085600Y27940000D02*
X51744500Y27940000D01*
X48736800Y30288800D02*
X51085600Y27940000D01*
X48194800Y30288800D02*
X48736800Y30288800D01*
X47181300Y31302300D02*
X48194800Y30288800D01*
X47181300Y47465400D02*
X47181300Y31302300D01*
X48167200Y48451300D02*
X47181300Y47465400D01*
X49277600Y48451300D02*
X48167200Y48451300D01*
X50356300Y49530000D02*
X49277600Y48451300D01*
X51435000Y49530000D02*
X50356300Y49530000D01*
G04 #@! TA.AperFunction,Conductor*
G36*
X82515931Y76979998D02*
G01*
X82536905Y76963095D01*
X82963095Y76536905D01*
X82997121Y76474593D01*
X83000000Y76447810D01*
X83000000Y25552190D01*
X82979998Y25484069D01*
X82963095Y25463095D01*
X82536905Y25036905D01*
X82474593Y25002879D01*
X82447810Y25000000D01*
X72000000Y25000000D01*
X71266428Y24266428D01*
X71265859Y24266997D01*
X71264734Y24265334D01*
X71260848Y24262825D01*
X71254400Y24254646D01*
X71251953Y24252419D01*
X71248230Y24248230D01*
X71000000Y24000000D01*
X71000000Y1052190D01*
X70979998Y984069D01*
X70963095Y963095D01*
X70536905Y536905D01*
X70474593Y502879D01*
X70447810Y500000D01*
X552190Y500000D01*
X484069Y520002D01*
X463095Y536905D01*
X36905Y963095D01*
X2879Y1025407D01*
X0Y1052190D01*
X0Y9887034D01*
X573257Y9887034D01*
X603565Y9752554D01*
X606645Y9742725D01*
X686770Y9545397D01*
X691413Y9536206D01*
X802694Y9354612D01*
X808777Y9346301D01*
X948213Y9185333D01*
X955580Y9178117D01*
X1119434Y9042084D01*
X1127881Y9036169D01*
X1311756Y8928721D01*
X1321043Y8924271D01*
X1343682Y8915626D01*
X1400186Y8872638D01*
X1424478Y8805927D01*
X1408847Y8736672D01*
X1363156Y8689631D01*
X1357307Y8686151D01*
X1196341Y8590386D01*
X1030457Y8444910D01*
X893863Y8271640D01*
X791131Y8076380D01*
X725703Y7865667D01*
X699770Y7646560D01*
X714200Y7426396D01*
X715621Y7420800D01*
X715622Y7420795D01*
X767090Y7218143D01*
X768511Y7212548D01*
X770928Y7207306D01*
X770928Y7207305D01*
X809046Y7124621D01*
X860883Y7012179D01*
X988222Y6831998D01*
X1146264Y6678039D01*
X1151060Y6674834D01*
X1151063Y6674832D01*
X1235261Y6618573D01*
X1329717Y6555460D01*
X1335020Y6553182D01*
X1335023Y6553180D01*
X1527129Y6470645D01*
X1532436Y6468365D01*
X1538071Y6467090D01*
X1538074Y6467089D01*
X1539484Y6466770D01*
X1540083Y6466436D01*
X1543562Y6465306D01*
X1543340Y6464623D01*
X1601511Y6432228D01*
X1635016Y6369634D01*
X1629362Y6298863D01*
X1586344Y6242384D01*
X1555287Y6225665D01*
X1391376Y6165196D01*
X1391368Y6165192D01*
X1385957Y6163196D01*
X1196341Y6050386D01*
X1030457Y5904910D01*
X893863Y5731640D01*
X791131Y5536380D01*
X725703Y5325667D01*
X699770Y5106560D01*
X714200Y4886396D01*
X715621Y4880800D01*
X715622Y4880795D01*
X767090Y4678143D01*
X768511Y4672548D01*
X770928Y4667306D01*
X770928Y4667305D01*
X809046Y4584621D01*
X860883Y4472179D01*
X988222Y4291998D01*
X1146264Y4138039D01*
X1151060Y4134834D01*
X1151063Y4134832D01*
X1235261Y4078573D01*
X1329717Y4015460D01*
X1335020Y4013182D01*
X1335023Y4013180D01*
X1527129Y3930645D01*
X1532436Y3928365D01*
X1538071Y3927090D01*
X1538074Y3927089D01*
X1539484Y3926770D01*
X1540083Y3926436D01*
X1543562Y3925306D01*
X1543340Y3924623D01*
X1601511Y3892228D01*
X1635016Y3829634D01*
X1629362Y3758863D01*
X1586344Y3702384D01*
X1555287Y3685665D01*
X1391376Y3625196D01*
X1391368Y3625192D01*
X1385957Y3623196D01*
X1196341Y3510386D01*
X1030457Y3364910D01*
X893863Y3191640D01*
X791131Y2996380D01*
X725703Y2785667D01*
X699770Y2566560D01*
X714200Y2346396D01*
X715621Y2340800D01*
X715622Y2340795D01*
X767090Y2138143D01*
X768511Y2132548D01*
X770928Y2127306D01*
X770928Y2127305D01*
X809046Y2044621D01*
X860883Y1932179D01*
X988222Y1751998D01*
X1146264Y1598039D01*
X1151060Y1594834D01*
X1151063Y1594832D01*
X1235261Y1538573D01*
X1329717Y1475460D01*
X1335020Y1473182D01*
X1335023Y1473180D01*
X1527129Y1390645D01*
X1532436Y1388365D01*
X1612088Y1370342D01*
X1741995Y1340946D01*
X1742001Y1340945D01*
X1747632Y1339671D01*
X1753403Y1339444D01*
X1753405Y1339444D01*
X1821211Y1336780D01*
X1968098Y1331009D01*
X2077275Y1346839D01*
X2180738Y1361840D01*
X2180743Y1361841D01*
X2186452Y1362669D01*
X2191916Y1364524D01*
X2191921Y1364525D01*
X2389907Y1431732D01*
X2389912Y1431734D01*
X2395379Y1433590D01*
X2587884Y1541398D01*
X2757518Y1682482D01*
X2898602Y1852116D01*
X3006410Y2044621D01*
X3008266Y2050088D01*
X3008268Y2050093D01*
X3075475Y2248079D01*
X3075476Y2248084D01*
X3077331Y2253548D01*
X3078159Y2259257D01*
X3078160Y2259262D01*
X3108458Y2468228D01*
X3108991Y2471902D01*
X3110643Y2535000D01*
X3107743Y2566560D01*
X68009770Y2566560D01*
X68024200Y2346396D01*
X68025621Y2340800D01*
X68025622Y2340795D01*
X68077090Y2138143D01*
X68078511Y2132548D01*
X68080928Y2127306D01*
X68080928Y2127305D01*
X68119046Y2044621D01*
X68170883Y1932179D01*
X68298222Y1751998D01*
X68456264Y1598039D01*
X68461060Y1594834D01*
X68461063Y1594832D01*
X68545261Y1538573D01*
X68639717Y1475460D01*
X68645020Y1473182D01*
X68645023Y1473180D01*
X68837129Y1390645D01*
X68842436Y1388365D01*
X68922088Y1370342D01*
X69051995Y1340946D01*
X69052001Y1340945D01*
X69057632Y1339671D01*
X69063403Y1339444D01*
X69063405Y1339444D01*
X69131211Y1336780D01*
X69278098Y1331009D01*
X69387275Y1346839D01*
X69490738Y1361840D01*
X69490743Y1361841D01*
X69496452Y1362669D01*
X69501916Y1364524D01*
X69501921Y1364525D01*
X69699907Y1431732D01*
X69699912Y1431734D01*
X69705379Y1433590D01*
X69897884Y1541398D01*
X70067518Y1682482D01*
X70208602Y1852116D01*
X70316410Y2044621D01*
X70318266Y2050088D01*
X70318268Y2050093D01*
X70385475Y2248079D01*
X70385476Y2248084D01*
X70387331Y2253548D01*
X70388159Y2259257D01*
X70388160Y2259262D01*
X70418458Y2468228D01*
X70418991Y2471902D01*
X70420643Y2535000D01*
X70400454Y2754711D01*
X70340565Y2967064D01*
X70242980Y3164947D01*
X70110967Y3341733D01*
X69948949Y3491501D01*
X69762350Y3609236D01*
X69559955Y3689983D01*
X69504096Y3733804D01*
X69480795Y3800868D01*
X69497451Y3869883D01*
X69548775Y3918937D01*
X69566144Y3926326D01*
X69699907Y3971732D01*
X69699912Y3971734D01*
X69705379Y3973590D01*
X69897884Y4081398D01*
X70067518Y4222482D01*
X70208602Y4392116D01*
X70316410Y4584621D01*
X70318266Y4590088D01*
X70318268Y4590093D01*
X70385475Y4788079D01*
X70385476Y4788084D01*
X70387331Y4793548D01*
X70388159Y4799257D01*
X70388160Y4799262D01*
X70418458Y5008228D01*
X70418991Y5011902D01*
X70420643Y5075000D01*
X70400454Y5294711D01*
X70340565Y5507064D01*
X70242980Y5704947D01*
X70110967Y5881733D01*
X69948949Y6031501D01*
X69762350Y6149236D01*
X69559955Y6229983D01*
X69504096Y6273804D01*
X69480795Y6340868D01*
X69497451Y6409883D01*
X69548775Y6458937D01*
X69566144Y6466326D01*
X69699907Y6511732D01*
X69699912Y6511734D01*
X69705379Y6513590D01*
X69897884Y6621398D01*
X70067518Y6762482D01*
X70208602Y6932116D01*
X70316410Y7124621D01*
X70318266Y7130088D01*
X70318268Y7130093D01*
X70385475Y7328079D01*
X70385476Y7328084D01*
X70387331Y7333548D01*
X70388159Y7339257D01*
X70388160Y7339262D01*
X70418458Y7548228D01*
X70418991Y7551902D01*
X70420643Y7615000D01*
X70400454Y7834711D01*
X70340565Y8047064D01*
X70242980Y8244947D01*
X70110967Y8421733D01*
X69948949Y8571501D01*
X69762350Y8689236D01*
X69559955Y8769983D01*
X69504096Y8813804D01*
X69480795Y8880868D01*
X69497451Y8949883D01*
X69548775Y8998937D01*
X69566144Y9006326D01*
X69699907Y9051732D01*
X69699912Y9051734D01*
X69705379Y9053590D01*
X69897884Y9161398D01*
X69917987Y9178117D01*
X70063086Y9298796D01*
X70067518Y9302482D01*
X70208602Y9472116D01*
X70316410Y9664621D01*
X70318266Y9670088D01*
X70318268Y9670093D01*
X70385475Y9868079D01*
X70385476Y9868084D01*
X70387331Y9873548D01*
X70388159Y9879257D01*
X70388160Y9879262D01*
X70418458Y10088228D01*
X70418991Y10091902D01*
X70420643Y10155000D01*
X70400454Y10374711D01*
X70340565Y10587064D01*
X70242980Y10784947D01*
X70110967Y10961733D01*
X69948949Y11111501D01*
X69762350Y11229236D01*
X69722348Y11245195D01*
X69706620Y11251470D01*
X69650760Y11295291D01*
X69627460Y11362355D01*
X69644116Y11431370D01*
X69695440Y11480424D01*
X69753310Y11494500D01*
X70098218Y11494500D01*
X70102768Y11495170D01*
X70102771Y11495170D01*
X70157426Y11503216D01*
X70157427Y11503216D01*
X70167112Y11504642D01*
X70261804Y11551133D01*
X70262507Y11551478D01*
X70262509Y11551479D01*
X70271855Y11556068D01*
X70354293Y11638650D01*
X70405536Y11743482D01*
X70415500Y11811782D01*
X70415500Y13578218D01*
X70406871Y13636838D01*
X70406784Y13637426D01*
X70406784Y13637427D01*
X70405358Y13647112D01*
X70353932Y13751855D01*
X70271350Y13834293D01*
X70166518Y13885536D01*
X70136027Y13889984D01*
X70102744Y13894840D01*
X70102740Y13894840D01*
X70098218Y13895500D01*
X68331782Y13895500D01*
X68327232Y13894830D01*
X68327229Y13894830D01*
X68272574Y13886784D01*
X68272573Y13886784D01*
X68262888Y13885358D01*
X68212992Y13860860D01*
X68167493Y13838522D01*
X68167491Y13838521D01*
X68158145Y13833932D01*
X68075707Y13751350D01*
X68024464Y13646518D01*
X68014500Y13578218D01*
X68014500Y11811782D01*
X68015170Y11807232D01*
X68015170Y11807229D01*
X68023216Y11752574D01*
X68024642Y11742888D01*
X68076068Y11638145D01*
X68158650Y11555707D01*
X68263482Y11504464D01*
X68293973Y11500016D01*
X68327256Y11495160D01*
X68327260Y11495160D01*
X68331782Y11494500D01*
X68671570Y11494500D01*
X68739691Y11474498D01*
X68786184Y11420842D01*
X68796288Y11350568D01*
X68766794Y11285988D01*
X68715180Y11250288D01*
X68706382Y11247042D01*
X68695957Y11243196D01*
X68690996Y11240244D01*
X68690995Y11240244D01*
X68573350Y11170252D01*
X68506341Y11130386D01*
X68340457Y10984910D01*
X68203863Y10811640D01*
X68101131Y10616380D01*
X68035703Y10405667D01*
X68009770Y10186560D01*
X68024200Y9966396D01*
X68025621Y9960800D01*
X68025622Y9960795D01*
X68077090Y9758143D01*
X68078511Y9752548D01*
X68080928Y9747306D01*
X68080928Y9747305D01*
X68119046Y9664621D01*
X68170883Y9552179D01*
X68298222Y9371998D01*
X68456264Y9218039D01*
X68461060Y9214834D01*
X68461063Y9214832D01*
X68545261Y9158573D01*
X68639717Y9095460D01*
X68645020Y9093182D01*
X68645023Y9093180D01*
X68763953Y9042084D01*
X68842436Y9008365D01*
X68848071Y9007090D01*
X68848074Y9007089D01*
X68849484Y9006770D01*
X68850083Y9006436D01*
X68853562Y9005306D01*
X68853340Y9004623D01*
X68911511Y8972228D01*
X68945016Y8909634D01*
X68939362Y8838863D01*
X68896344Y8782384D01*
X68865287Y8765665D01*
X68701376Y8705196D01*
X68701368Y8705192D01*
X68695957Y8703196D01*
X68506341Y8590386D01*
X68340457Y8444910D01*
X68203863Y8271640D01*
X68101131Y8076380D01*
X68035703Y7865667D01*
X68009770Y7646560D01*
X68024200Y7426396D01*
X68025621Y7420800D01*
X68025622Y7420795D01*
X68077090Y7218143D01*
X68078511Y7212548D01*
X68080928Y7207306D01*
X68080928Y7207305D01*
X68119046Y7124621D01*
X68170883Y7012179D01*
X68298222Y6831998D01*
X68456264Y6678039D01*
X68461060Y6674834D01*
X68461063Y6674832D01*
X68545261Y6618573D01*
X68639717Y6555460D01*
X68645020Y6553182D01*
X68645023Y6553180D01*
X68837129Y6470645D01*
X68842436Y6468365D01*
X68848071Y6467090D01*
X68848074Y6467089D01*
X68849484Y6466770D01*
X68850083Y6466436D01*
X68853562Y6465306D01*
X68853340Y6464623D01*
X68911511Y6432228D01*
X68945016Y6369634D01*
X68939362Y6298863D01*
X68896344Y6242384D01*
X68865287Y6225665D01*
X68701376Y6165196D01*
X68701368Y6165192D01*
X68695957Y6163196D01*
X68506341Y6050386D01*
X68340457Y5904910D01*
X68203863Y5731640D01*
X68101131Y5536380D01*
X68035703Y5325667D01*
X68009770Y5106560D01*
X68024200Y4886396D01*
X68025621Y4880800D01*
X68025622Y4880795D01*
X68077090Y4678143D01*
X68078511Y4672548D01*
X68080928Y4667306D01*
X68080928Y4667305D01*
X68119046Y4584621D01*
X68170883Y4472179D01*
X68298222Y4291998D01*
X68456264Y4138039D01*
X68461060Y4134834D01*
X68461063Y4134832D01*
X68545261Y4078573D01*
X68639717Y4015460D01*
X68645020Y4013182D01*
X68645023Y4013180D01*
X68837129Y3930645D01*
X68842436Y3928365D01*
X68848071Y3927090D01*
X68848074Y3927089D01*
X68849484Y3926770D01*
X68850083Y3926436D01*
X68853562Y3925306D01*
X68853340Y3924623D01*
X68911511Y3892228D01*
X68945016Y3829634D01*
X68939362Y3758863D01*
X68896344Y3702384D01*
X68865287Y3685665D01*
X68701376Y3625196D01*
X68701368Y3625192D01*
X68695957Y3623196D01*
X68506341Y3510386D01*
X68340457Y3364910D01*
X68203863Y3191640D01*
X68101131Y2996380D01*
X68035703Y2785667D01*
X68009770Y2566560D01*
X3107743Y2566560D01*
X3090454Y2754711D01*
X3030565Y2967064D01*
X2932980Y3164947D01*
X2800967Y3341733D01*
X2638949Y3491501D01*
X2452350Y3609236D01*
X2249955Y3689983D01*
X2194096Y3733804D01*
X2170795Y3800868D01*
X2187451Y3869883D01*
X2238775Y3918937D01*
X2256144Y3926326D01*
X2389907Y3971732D01*
X2389912Y3971734D01*
X2395379Y3973590D01*
X2587884Y4081398D01*
X2757518Y4222482D01*
X2898602Y4392116D01*
X3006410Y4584621D01*
X3008266Y4590088D01*
X3008268Y4590093D01*
X3075475Y4788079D01*
X3075476Y4788084D01*
X3077331Y4793548D01*
X3078159Y4799257D01*
X3078160Y4799262D01*
X3108458Y5008228D01*
X3108991Y5011902D01*
X3110643Y5075000D01*
X3090454Y5294711D01*
X3030565Y5507064D01*
X2932980Y5704947D01*
X2800967Y5881733D01*
X2638949Y6031501D01*
X2452350Y6149236D01*
X2249955Y6229983D01*
X2194096Y6273804D01*
X2170795Y6340868D01*
X2187451Y6409883D01*
X2238775Y6458937D01*
X2256144Y6466326D01*
X2389907Y6511732D01*
X2389912Y6511734D01*
X2395379Y6513590D01*
X2587884Y6621398D01*
X2757518Y6762482D01*
X2898602Y6932116D01*
X3006410Y7124621D01*
X3008266Y7130088D01*
X3008268Y7130093D01*
X3075475Y7328079D01*
X3075476Y7328084D01*
X3077331Y7333548D01*
X3078159Y7339257D01*
X3078160Y7339262D01*
X3108458Y7548228D01*
X3108991Y7551902D01*
X3110643Y7615000D01*
X3090454Y7834711D01*
X3030565Y8047064D01*
X2932980Y8244947D01*
X2800967Y8421733D01*
X2638949Y8571501D01*
X2453702Y8688383D01*
X2453700Y8688385D01*
X2452350Y8689236D01*
X2452517Y8689501D01*
X2403071Y8736198D01*
X2386002Y8805112D01*
X2408901Y8872314D01*
X2456454Y8912871D01*
X2598095Y8982261D01*
X2606945Y8987536D01*
X2780328Y9111208D01*
X2788200Y9117861D01*
X2939052Y9268188D01*
X2945730Y9276035D01*
X3070003Y9448980D01*
X3075313Y9457817D01*
X3169670Y9648733D01*
X3173469Y9658328D01*
X3235377Y9862090D01*
X3237555Y9872163D01*
X3238986Y9883038D01*
X3236775Y9897222D01*
X3223617Y9901000D01*
X588225Y9901000D01*
X574694Y9897027D01*
X573257Y9887034D01*
X0Y9887034D01*
X0Y10420817D01*
X569389Y10420817D01*
X570912Y10412393D01*
X583292Y10409000D01*
X3223344Y10409000D01*
X3236875Y10412973D01*
X3238180Y10422053D01*
X3196214Y10589125D01*
X3192894Y10598876D01*
X3107972Y10794186D01*
X3103105Y10803261D01*
X2987426Y10982074D01*
X2981136Y10990243D01*
X2837806Y11147760D01*
X2830273Y11154785D01*
X2684868Y11269618D01*
X2643805Y11327535D01*
X2640573Y11398458D01*
X2676198Y11459870D01*
X2739369Y11492272D01*
X2762960Y11494500D01*
X2788218Y11494500D01*
X2792768Y11495170D01*
X2792771Y11495170D01*
X2847426Y11503216D01*
X2847427Y11503216D01*
X2857112Y11504642D01*
X2951804Y11551133D01*
X2952507Y11551478D01*
X2952509Y11551479D01*
X2961855Y11556068D01*
X3044293Y11638650D01*
X3095536Y11743482D01*
X3105500Y11811782D01*
X3105500Y12018500D01*
X3125502Y12086621D01*
X3179158Y12133114D01*
X3231500Y12144500D01*
X38715007Y12144500D01*
X38720284Y12144389D01*
X38782294Y12141790D01*
X38793848Y12144500D01*
X38824662Y12151727D01*
X38836333Y12153890D01*
X38851229Y12155931D01*
X38879432Y12159794D01*
X38893230Y12165765D01*
X38914499Y12172799D01*
X38920775Y12174271D01*
X38929136Y12176232D01*
X38936661Y12180369D01*
X38936664Y12180370D01*
X38967268Y12197195D01*
X38977913Y12202411D01*
X39017855Y12219695D01*
X39029541Y12229158D01*
X39048126Y12241646D01*
X39055518Y12245710D01*
X39061308Y12248893D01*
X39069422Y12255897D01*
X39093958Y12280433D01*
X39103759Y12289258D01*
X39128392Y12309206D01*
X39128393Y12309207D01*
X39135070Y12314614D01*
X39140043Y12321612D01*
X39140048Y12321617D01*
X39145968Y12329948D01*
X39159579Y12346054D01*
X41018642Y14205118D01*
X41022451Y14208771D01*
X41061833Y14244985D01*
X41068156Y14250799D01*
X41091099Y14287802D01*
X41097800Y14297552D01*
X41124112Y14332217D01*
X41129646Y14346196D01*
X41139707Y14366199D01*
X41147635Y14378986D01*
X41159775Y14420772D01*
X41163621Y14432005D01*
X41176473Y14464465D01*
X41179636Y14472453D01*
X41181208Y14487408D01*
X41185520Y14509383D01*
X41189715Y14523825D01*
X41190500Y14534515D01*
X41190500Y14569217D01*
X41191190Y14582387D01*
X41194503Y14613912D01*
X41195401Y14622454D01*
X41193969Y14630919D01*
X41193969Y14630928D01*
X41192265Y14641000D01*
X41190500Y14662013D01*
X41190500Y52444785D01*
X41210502Y52512906D01*
X41227405Y52533880D01*
X42955666Y54262141D01*
X44688742Y55995218D01*
X44751054Y56029244D01*
X44805645Y56029016D01*
X44908549Y56005731D01*
X44908554Y56005730D01*
X44914186Y56004456D01*
X44919957Y56004229D01*
X44919959Y56004229D01*
X44981989Y56001792D01*
X45125470Y55996154D01*
X45131179Y55996982D01*
X45131183Y55996982D01*
X45329015Y56025667D01*
X45329019Y56025668D01*
X45334730Y56026496D01*
X45394936Y56046933D01*
X45529483Y56092605D01*
X45529488Y56092607D01*
X45534955Y56094463D01*
X45539998Y56097287D01*
X45714395Y56194954D01*
X45714399Y56194957D01*
X45719442Y56197781D01*
X45882012Y56332988D01*
X45906943Y56362964D01*
X45922126Y56381220D01*
X45981063Y56420804D01*
X46052045Y56422241D01*
X46112536Y56385073D01*
X46143329Y56321102D01*
X46145000Y56300651D01*
X46145000Y56025239D01*
X46124998Y55957118D01*
X46108095Y55936144D01*
X45683378Y55511427D01*
X45672288Y55501572D01*
X45654734Y55487734D01*
X45654730Y55487730D01*
X45647335Y55481900D01*
X45615743Y55436189D01*
X45613510Y55433066D01*
X45580538Y55388425D01*
X45578273Y55381975D01*
X45574383Y55376347D01*
X45571545Y55367372D01*
X45571542Y55367367D01*
X45557656Y55323458D01*
X45556403Y55319701D01*
X45541143Y55276249D01*
X45541142Y55276246D01*
X45538023Y55267363D01*
X45537754Y55260527D01*
X45535693Y55254009D01*
X45535200Y55247745D01*
X45535200Y55197984D01*
X45535103Y55193038D01*
X45532986Y55139152D01*
X45534792Y55132341D01*
X45535200Y55124926D01*
X45535200Y26047886D01*
X45515198Y25979765D01*
X45498295Y25958791D01*
X44497824Y24958321D01*
X43498078Y23958575D01*
X43486988Y23948720D01*
X43469434Y23934882D01*
X43469430Y23934878D01*
X43462035Y23929048D01*
X43430443Y23883337D01*
X43428210Y23880214D01*
X43395238Y23835573D01*
X43392973Y23829123D01*
X43389083Y23823495D01*
X43386245Y23814520D01*
X43386242Y23814515D01*
X43372356Y23770606D01*
X43371103Y23766849D01*
X43355843Y23723397D01*
X43355842Y23723394D01*
X43352723Y23714511D01*
X43352454Y23707675D01*
X43350393Y23701157D01*
X43349900Y23694893D01*
X43349900Y23645132D01*
X43349803Y23640186D01*
X43347686Y23586300D01*
X43349492Y23579489D01*
X43349900Y23572074D01*
X43349900Y22340497D01*
X43349027Y22325689D01*
X43345292Y22294132D01*
X43346984Y22284870D01*
X43346984Y22284861D01*
X43355263Y22239535D01*
X43355914Y22235627D01*
X43364156Y22180803D01*
X43367116Y22174639D01*
X43368345Y22167910D01*
X43393922Y22118672D01*
X43395679Y22115156D01*
X43415620Y22073628D01*
X43415622Y22073624D01*
X43419698Y22065137D01*
X43424341Y22060115D01*
X43427493Y22054046D01*
X43431574Y22049268D01*
X43466749Y22014093D01*
X43470178Y22010528D01*
X43506795Y21970916D01*
X43512887Y21967377D01*
X43518424Y21962418D01*
X43592795Y21888047D01*
X43626821Y21825735D01*
X43629700Y21798952D01*
X43629700Y17571410D01*
X43628827Y17556602D01*
X43625092Y17525045D01*
X43626784Y17515783D01*
X43626784Y17515774D01*
X43635063Y17470448D01*
X43635714Y17466540D01*
X43643956Y17411716D01*
X43646916Y17405552D01*
X43648145Y17398823D01*
X43673722Y17349585D01*
X43675479Y17346069D01*
X43695420Y17304541D01*
X43695422Y17304537D01*
X43699498Y17296050D01*
X43704141Y17291028D01*
X43707293Y17284959D01*
X43711374Y17280181D01*
X43746549Y17245006D01*
X43749978Y17241441D01*
X43786595Y17201829D01*
X43792687Y17198290D01*
X43798224Y17193331D01*
X43968905Y17022650D01*
X44002931Y16960338D01*
X44000143Y16896191D01*
X43954820Y16750227D01*
X43929967Y16540246D01*
X43943796Y16329251D01*
X43945217Y16323655D01*
X43945218Y16323650D01*
X43967784Y16234800D01*
X43995845Y16124310D01*
X44084369Y15932286D01*
X44206405Y15759609D01*
X44357865Y15612063D01*
X44362661Y15608858D01*
X44362664Y15608856D01*
X44505936Y15513125D01*
X44533677Y15494589D01*
X44538985Y15492308D01*
X44538986Y15492308D01*
X44722650Y15413400D01*
X44722653Y15413399D01*
X44727953Y15411122D01*
X44733582Y15409848D01*
X44733583Y15409848D01*
X44928550Y15365731D01*
X44928553Y15365731D01*
X44934186Y15364456D01*
X44939957Y15364229D01*
X44939959Y15364229D01*
X45001989Y15361792D01*
X45145470Y15356154D01*
X45151179Y15356982D01*
X45151183Y15356982D01*
X45349015Y15385667D01*
X45349019Y15385668D01*
X45354730Y15386496D01*
X45433987Y15413400D01*
X45549483Y15452605D01*
X45549488Y15452607D01*
X45554955Y15454463D01*
X45559998Y15457287D01*
X45734395Y15554954D01*
X45734399Y15554957D01*
X45739442Y15557781D01*
X45902012Y15692988D01*
X46037219Y15855558D01*
X46040043Y15860601D01*
X46040046Y15860605D01*
X46137713Y16035002D01*
X46137714Y16035004D01*
X46140537Y16040045D01*
X46142393Y16045512D01*
X46142395Y16045517D01*
X46206647Y16234800D01*
X46208504Y16240270D01*
X46238846Y16449530D01*
X46240429Y16510000D01*
X46221081Y16720560D01*
X46163686Y16924069D01*
X46152553Y16946646D01*
X46072719Y17108531D01*
X46070165Y17113710D01*
X45943651Y17283133D01*
X45843286Y17375910D01*
X45792622Y17422743D01*
X45792620Y17422745D01*
X45788381Y17426663D01*
X45725180Y17466540D01*
X45614434Y17536416D01*
X45614433Y17536416D01*
X45609554Y17539495D01*
X45413160Y17617848D01*
X45407503Y17618973D01*
X45407497Y17618975D01*
X45211442Y17657972D01*
X45211440Y17657972D01*
X45205775Y17659099D01*
X45200000Y17659175D01*
X45199996Y17659175D01*
X45093976Y17660563D01*
X44994346Y17661867D01*
X44988649Y17660888D01*
X44988648Y17660888D01*
X44791650Y17627038D01*
X44791649Y17627038D01*
X44785953Y17626059D01*
X44757896Y17615708D01*
X44705614Y17596420D01*
X44634781Y17591608D01*
X44572908Y17625537D01*
X44520005Y17678440D01*
X44485979Y17740752D01*
X44483100Y17767535D01*
X44483100Y18500048D01*
X44503102Y18568169D01*
X44556758Y18614662D01*
X44627032Y18624766D01*
X44658837Y18615816D01*
X44722650Y18588400D01*
X44722653Y18588399D01*
X44727953Y18586122D01*
X44733582Y18584848D01*
X44733583Y18584848D01*
X44928550Y18540731D01*
X44928553Y18540731D01*
X44934186Y18539456D01*
X44939957Y18539229D01*
X44939959Y18539229D01*
X45001989Y18536792D01*
X45145470Y18531154D01*
X45151179Y18531982D01*
X45151183Y18531982D01*
X45349015Y18560667D01*
X45349019Y18560668D01*
X45354730Y18561496D01*
X45433987Y18588400D01*
X45549483Y18627605D01*
X45549488Y18627607D01*
X45554955Y18629463D01*
X45559998Y18632287D01*
X45734395Y18729954D01*
X45734399Y18729957D01*
X45739442Y18732781D01*
X45902012Y18867988D01*
X46037219Y19030558D01*
X46040043Y19035601D01*
X46040046Y19035605D01*
X46137713Y19210002D01*
X46137714Y19210004D01*
X46140537Y19215045D01*
X46142393Y19220512D01*
X46142395Y19220517D01*
X46206647Y19409800D01*
X46208504Y19415270D01*
X46222243Y19510019D01*
X46238314Y19620860D01*
X46238314Y19620862D01*
X46238846Y19624530D01*
X46240429Y19685000D01*
X46221081Y19895560D01*
X46163686Y20099069D01*
X46152553Y20121646D01*
X46072719Y20283531D01*
X46070165Y20288710D01*
X45943651Y20458133D01*
X45813698Y20578260D01*
X45792622Y20597743D01*
X45792620Y20597745D01*
X45788381Y20601663D01*
X45749079Y20626461D01*
X45614434Y20711416D01*
X45614433Y20711416D01*
X45609554Y20714495D01*
X45413160Y20792848D01*
X45407503Y20793973D01*
X45407497Y20793975D01*
X45211442Y20832972D01*
X45211440Y20832972D01*
X45205775Y20834099D01*
X45200000Y20834175D01*
X45199996Y20834175D01*
X45093976Y20835563D01*
X44994346Y20836867D01*
X44988651Y20835888D01*
X44988645Y20835888D01*
X44935237Y20826711D01*
X44864713Y20834888D01*
X44809805Y20879896D01*
X44787900Y20950891D01*
X44787900Y21595518D01*
X44807902Y21663639D01*
X44861558Y21710132D01*
X44931832Y21720236D01*
X44941700Y21718413D01*
X44959186Y21714456D01*
X44964957Y21714229D01*
X44964959Y21714229D01*
X45026989Y21711792D01*
X45170470Y21706154D01*
X45176179Y21706982D01*
X45176183Y21706982D01*
X45374015Y21735667D01*
X45374019Y21735668D01*
X45379730Y21736496D01*
X45486508Y21772742D01*
X45574483Y21802605D01*
X45574488Y21802607D01*
X45579955Y21804463D01*
X45584998Y21807287D01*
X45759395Y21904954D01*
X45759399Y21904957D01*
X45764442Y21907781D01*
X45927012Y22042988D01*
X46062219Y22205558D01*
X46065043Y22210601D01*
X46065046Y22210605D01*
X46162713Y22385002D01*
X46162714Y22385004D01*
X46165537Y22390045D01*
X46167393Y22395512D01*
X46167395Y22395517D01*
X46231647Y22584800D01*
X46233504Y22590270D01*
X46263846Y22799530D01*
X46265429Y22860000D01*
X46246081Y23070560D01*
X46188686Y23274069D01*
X46177553Y23296646D01*
X46097719Y23458531D01*
X46095165Y23463710D01*
X45968651Y23633133D01*
X45821979Y23768715D01*
X45817622Y23772743D01*
X45817620Y23772745D01*
X45813381Y23776663D01*
X45808498Y23779744D01*
X45684190Y23858177D01*
X45637252Y23911444D01*
X45626564Y23981632D01*
X45655518Y24046456D01*
X45662331Y24053834D01*
X46711340Y25102843D01*
X46773652Y25136869D01*
X46800435Y25139748D01*
X48649009Y25139748D01*
X48663817Y25138875D01*
X48695374Y25135140D01*
X48704636Y25136832D01*
X48704645Y25136832D01*
X48749971Y25145111D01*
X48753879Y25145762D01*
X48762446Y25147050D01*
X48808703Y25154004D01*
X48814867Y25156964D01*
X48821596Y25158193D01*
X48870834Y25183770D01*
X48874350Y25185527D01*
X48915878Y25205468D01*
X48915882Y25205470D01*
X48924369Y25209546D01*
X48929391Y25214189D01*
X48935460Y25217341D01*
X48940238Y25221422D01*
X48975412Y25256596D01*
X48978978Y25260026D01*
X49011675Y25290251D01*
X49018590Y25296643D01*
X49022129Y25302735D01*
X49027083Y25308267D01*
X49620025Y25901210D01*
X49631116Y25911065D01*
X49648662Y25924897D01*
X49656065Y25930733D01*
X49687654Y25976439D01*
X49689860Y25979527D01*
X49722863Y26024208D01*
X49725129Y26030660D01*
X49729017Y26036286D01*
X49732686Y26047886D01*
X49745748Y26089190D01*
X49747002Y26092948D01*
X49750063Y26101662D01*
X49765377Y26145270D01*
X49765646Y26152106D01*
X49767707Y26158624D01*
X49768200Y26164888D01*
X49768200Y26214649D01*
X49768297Y26219595D01*
X49770044Y26264068D01*
X49770414Y26273481D01*
X49768608Y26280292D01*
X49768200Y26287707D01*
X49768200Y27156597D01*
X49769073Y27171406D01*
X49771700Y27193603D01*
X49772807Y27202955D01*
X49771115Y27212222D01*
X49762842Y27257522D01*
X49762192Y27261425D01*
X49755344Y27306975D01*
X49755343Y27306978D01*
X49753944Y27316284D01*
X49750984Y27322449D01*
X49749755Y27329177D01*
X49724178Y27378415D01*
X49722421Y27381931D01*
X49702480Y27423459D01*
X49702478Y27423463D01*
X49698402Y27431950D01*
X49693759Y27436972D01*
X49690607Y27443041D01*
X49686526Y27447819D01*
X49651351Y27482994D01*
X49647921Y27486560D01*
X49635580Y27499910D01*
X49611305Y27526171D01*
X49605213Y27529710D01*
X49599676Y27534669D01*
X49107223Y28027122D01*
X49097368Y28038212D01*
X49083530Y28055766D01*
X49083526Y28055770D01*
X49077696Y28063165D01*
X49069949Y28068519D01*
X49069947Y28068521D01*
X49040003Y28089216D01*
X48995336Y28144401D01*
X48987595Y28214975D01*
X49019238Y28278530D01*
X49031072Y28289743D01*
X49108081Y28353791D01*
X49108086Y28353796D01*
X49112518Y28357482D01*
X49192305Y28453415D01*
X49249908Y28522674D01*
X49249910Y28522677D01*
X49253602Y28527116D01*
X49361410Y28719621D01*
X49363266Y28725088D01*
X49363268Y28725093D01*
X49382729Y28782425D01*
X49423566Y28840501D01*
X49489319Y28867280D01*
X49559111Y28854259D01*
X49591137Y28831019D01*
X50658082Y27764074D01*
X50692108Y27701762D01*
X50687043Y27630947D01*
X50652064Y27580247D01*
X50560457Y27499910D01*
X50423863Y27326640D01*
X50321131Y27131380D01*
X50255703Y26920667D01*
X50229770Y26701560D01*
X50244200Y26481396D01*
X50245621Y26475800D01*
X50245622Y26475795D01*
X50296903Y26273878D01*
X50298511Y26267548D01*
X50300928Y26262306D01*
X50300928Y26262305D01*
X50339046Y26179621D01*
X50390883Y26067179D01*
X50518222Y25886998D01*
X50676264Y25733039D01*
X50681060Y25729834D01*
X50681063Y25729832D01*
X50784036Y25661028D01*
X50859717Y25610460D01*
X50865020Y25608182D01*
X50865023Y25608180D01*
X51056929Y25525731D01*
X51062436Y25523365D01*
X51142088Y25505342D01*
X51271995Y25475946D01*
X51272001Y25475945D01*
X51277632Y25474671D01*
X51283403Y25474444D01*
X51283405Y25474444D01*
X51351211Y25471780D01*
X51498098Y25466009D01*
X51622655Y25484069D01*
X51710738Y25496840D01*
X51710743Y25496841D01*
X51716452Y25497669D01*
X51721916Y25499524D01*
X51721921Y25499525D01*
X51919907Y25566732D01*
X51919912Y25566734D01*
X51925379Y25568590D01*
X51931708Y25572134D01*
X52046050Y25636169D01*
X52117884Y25676398D01*
X52118051Y25676537D01*
X52183803Y25698074D01*
X52252510Y25680188D01*
X52300640Y25627996D01*
X52313700Y25572134D01*
X52313700Y25422410D01*
X52312827Y25407602D01*
X52309092Y25376045D01*
X52310784Y25366783D01*
X52310784Y25366774D01*
X52319063Y25321448D01*
X52319714Y25317540D01*
X52327956Y25262716D01*
X52330916Y25256552D01*
X52332145Y25249823D01*
X52357722Y25200585D01*
X52359479Y25197069D01*
X52379420Y25155541D01*
X52379422Y25155537D01*
X52383498Y25147050D01*
X52388141Y25142028D01*
X52391293Y25135959D01*
X52395374Y25131181D01*
X52430549Y25096006D01*
X52433978Y25092441D01*
X52470595Y25052829D01*
X52476687Y25049290D01*
X52482224Y25044331D01*
X54153905Y23372650D01*
X54187931Y23310338D01*
X54185143Y23246191D01*
X54139820Y23100227D01*
X54114967Y22890246D01*
X54128796Y22679251D01*
X54130217Y22673655D01*
X54130218Y22673650D01*
X54152784Y22584800D01*
X54180845Y22474310D01*
X54269369Y22282286D01*
X54391405Y22109609D01*
X54542865Y21962063D01*
X54547661Y21958858D01*
X54547664Y21958856D01*
X54690936Y21863125D01*
X54718677Y21844589D01*
X54723985Y21842308D01*
X54723986Y21842308D01*
X54907650Y21763400D01*
X54907653Y21763399D01*
X54912953Y21761122D01*
X54918582Y21759848D01*
X54918583Y21759848D01*
X55113550Y21715731D01*
X55113553Y21715731D01*
X55119186Y21714456D01*
X55124957Y21714229D01*
X55124959Y21714229D01*
X55186989Y21711792D01*
X55330470Y21706154D01*
X55336179Y21706982D01*
X55336183Y21706982D01*
X55534015Y21735667D01*
X55534019Y21735668D01*
X55539730Y21736496D01*
X55646508Y21772742D01*
X55734483Y21802605D01*
X55734488Y21802607D01*
X55739955Y21804463D01*
X55744998Y21807287D01*
X55919395Y21904954D01*
X55919399Y21904957D01*
X55924442Y21907781D01*
X56087012Y22042988D01*
X56222219Y22205558D01*
X56225043Y22210601D01*
X56225046Y22210605D01*
X56322713Y22385002D01*
X56322714Y22385004D01*
X56325537Y22390045D01*
X56327393Y22395512D01*
X56327395Y22395517D01*
X56391647Y22584800D01*
X56393504Y22590270D01*
X56401785Y22647384D01*
X56431355Y22711928D01*
X56491126Y22750241D01*
X56562123Y22750157D01*
X56621803Y22711702D01*
X56648604Y22660319D01*
X56667784Y22584800D01*
X56695845Y22474310D01*
X56784369Y22282286D01*
X56906405Y22109609D01*
X57057865Y21962063D01*
X57062661Y21958858D01*
X57062664Y21958856D01*
X57205936Y21863125D01*
X57233677Y21844589D01*
X57238985Y21842308D01*
X57238986Y21842308D01*
X57282037Y21823812D01*
X57336730Y21778545D01*
X57358300Y21708044D01*
X57358300Y20840521D01*
X57338298Y20772400D01*
X57287905Y20727995D01*
X57287575Y20727873D01*
X57105856Y20619762D01*
X56946881Y20480345D01*
X56815976Y20314292D01*
X56813287Y20309181D01*
X56813285Y20309178D01*
X56799792Y20283531D01*
X56717523Y20127164D01*
X56654820Y19925227D01*
X56654141Y19919490D01*
X56640088Y19800761D01*
X56612217Y19735463D01*
X56553469Y19695599D01*
X56482494Y19693826D01*
X56421828Y19730705D01*
X56390730Y19794529D01*
X56389490Y19804042D01*
X56381610Y19889803D01*
X56381081Y19895560D01*
X56323686Y20099069D01*
X56312553Y20121646D01*
X56232719Y20283531D01*
X56230165Y20288710D01*
X56103651Y20458133D01*
X55973698Y20578260D01*
X55952622Y20597743D01*
X55952620Y20597745D01*
X55948381Y20601663D01*
X55909079Y20626461D01*
X55774434Y20711416D01*
X55774433Y20711416D01*
X55769554Y20714495D01*
X55573160Y20792848D01*
X55567503Y20793973D01*
X55567497Y20793975D01*
X55371442Y20832972D01*
X55371440Y20832972D01*
X55365775Y20834099D01*
X55360000Y20834175D01*
X55359996Y20834175D01*
X55253976Y20835563D01*
X55154346Y20836867D01*
X55148649Y20835888D01*
X55148648Y20835888D01*
X54951650Y20802038D01*
X54951649Y20802038D01*
X54945953Y20801059D01*
X54747575Y20727873D01*
X54742614Y20724921D01*
X54742613Y20724921D01*
X54688853Y20692937D01*
X54565856Y20619762D01*
X54406881Y20480345D01*
X54275976Y20314292D01*
X54273287Y20309181D01*
X54273285Y20309178D01*
X54259792Y20283531D01*
X54177523Y20127164D01*
X54114820Y19925227D01*
X54089967Y19715246D01*
X54103796Y19504251D01*
X54105217Y19498655D01*
X54105218Y19498650D01*
X54127784Y19409800D01*
X54155845Y19299310D01*
X54244369Y19107286D01*
X54366405Y18934609D01*
X54517865Y18787063D01*
X54522661Y18783858D01*
X54522664Y18783856D01*
X54643099Y18703384D01*
X54693677Y18669589D01*
X54698985Y18667308D01*
X54698986Y18667308D01*
X54742037Y18648812D01*
X54796730Y18603545D01*
X54818300Y18533044D01*
X54818300Y17665521D01*
X54798298Y17597400D01*
X54747905Y17552995D01*
X54747575Y17552873D01*
X54565856Y17444762D01*
X54406881Y17305345D01*
X54275976Y17139292D01*
X54273287Y17134181D01*
X54273285Y17134178D01*
X54259792Y17108531D01*
X54177523Y16952164D01*
X54114820Y16750227D01*
X54089967Y16540246D01*
X54103796Y16329251D01*
X54105217Y16323655D01*
X54105218Y16323650D01*
X54127784Y16234800D01*
X54155845Y16124310D01*
X54244369Y15932286D01*
X54366405Y15759609D01*
X54517865Y15612063D01*
X54522661Y15608858D01*
X54522664Y15608856D01*
X54665936Y15513125D01*
X54693677Y15494589D01*
X54698985Y15492308D01*
X54698986Y15492308D01*
X54882650Y15413400D01*
X54882653Y15413399D01*
X54887953Y15411122D01*
X54893582Y15409848D01*
X54893583Y15409848D01*
X55088550Y15365731D01*
X55088553Y15365731D01*
X55094186Y15364456D01*
X55099957Y15364229D01*
X55099959Y15364229D01*
X55161989Y15361792D01*
X55305470Y15356154D01*
X55311179Y15356982D01*
X55311183Y15356982D01*
X55509015Y15385667D01*
X55509019Y15385668D01*
X55514730Y15386496D01*
X55593987Y15413400D01*
X55709483Y15452605D01*
X55709488Y15452607D01*
X55714955Y15454463D01*
X55719998Y15457287D01*
X55894395Y15554954D01*
X55894399Y15554957D01*
X55899442Y15557781D01*
X56062012Y15692988D01*
X56197219Y15855558D01*
X56200043Y15860601D01*
X56200046Y15860605D01*
X56297713Y16035002D01*
X56297714Y16035004D01*
X56300537Y16040045D01*
X56302393Y16045512D01*
X56302395Y16045517D01*
X56366647Y16234800D01*
X56368504Y16240270D01*
X56398846Y16449530D01*
X56400429Y16510000D01*
X56381081Y16720560D01*
X56323686Y16924069D01*
X56312553Y16946646D01*
X56232719Y17108531D01*
X56230165Y17113710D01*
X56103651Y17283133D01*
X56003286Y17375910D01*
X55952622Y17422743D01*
X55952620Y17422745D01*
X55948381Y17426663D01*
X55885180Y17466540D01*
X55774434Y17536416D01*
X55774433Y17536416D01*
X55769554Y17539495D01*
X55751009Y17546894D01*
X55695152Y17590712D01*
X55671700Y17663923D01*
X55671700Y18531390D01*
X55691702Y18599511D01*
X55736134Y18641324D01*
X55749505Y18648812D01*
X55899442Y18732781D01*
X56062012Y18867988D01*
X56197219Y19030558D01*
X56200043Y19035601D01*
X56200046Y19035605D01*
X56297713Y19210002D01*
X56297714Y19210004D01*
X56300537Y19215045D01*
X56302393Y19220512D01*
X56302395Y19220517D01*
X56366647Y19409800D01*
X56368504Y19415270D01*
X56382242Y19510018D01*
X56390090Y19564140D01*
X56419660Y19628685D01*
X56479432Y19666997D01*
X56550429Y19666913D01*
X56610109Y19628458D01*
X56639525Y19563842D01*
X56640515Y19554305D01*
X56643796Y19504251D01*
X56645217Y19498655D01*
X56645218Y19498650D01*
X56667784Y19409800D01*
X56695845Y19299310D01*
X56784369Y19107286D01*
X56906405Y18934609D01*
X57057865Y18787063D01*
X57062661Y18783858D01*
X57062664Y18783856D01*
X57183099Y18703384D01*
X57233677Y18669589D01*
X57238985Y18667308D01*
X57238986Y18667308D01*
X57422650Y18588400D01*
X57422653Y18588399D01*
X57427953Y18586122D01*
X57433582Y18584848D01*
X57433583Y18584848D01*
X57628550Y18540731D01*
X57628553Y18540731D01*
X57634186Y18539456D01*
X57639957Y18539229D01*
X57639959Y18539229D01*
X57701989Y18536792D01*
X57845470Y18531154D01*
X57851179Y18531982D01*
X57851183Y18531982D01*
X58049015Y18560667D01*
X58049019Y18560668D01*
X58054730Y18561496D01*
X58133987Y18588400D01*
X58249483Y18627605D01*
X58249488Y18627607D01*
X58254955Y18629463D01*
X58259998Y18632287D01*
X58434395Y18729954D01*
X58434399Y18729957D01*
X58439442Y18732781D01*
X58602012Y18867988D01*
X58737219Y19030558D01*
X58740043Y19035601D01*
X58740046Y19035605D01*
X58837713Y19210002D01*
X58837714Y19210004D01*
X58840537Y19215045D01*
X58842393Y19220512D01*
X58842395Y19220517D01*
X58906647Y19409800D01*
X58908504Y19415270D01*
X58922243Y19510019D01*
X58938314Y19620860D01*
X58938314Y19620862D01*
X58938846Y19624530D01*
X58940429Y19685000D01*
X58921081Y19895560D01*
X58863686Y20099069D01*
X58852553Y20121646D01*
X58772719Y20283531D01*
X58770165Y20288710D01*
X58643651Y20458133D01*
X58513698Y20578260D01*
X58492622Y20597743D01*
X58492620Y20597745D01*
X58488381Y20601663D01*
X58449079Y20626461D01*
X58314434Y20711416D01*
X58314433Y20711416D01*
X58309554Y20714495D01*
X58291009Y20721894D01*
X58235152Y20765712D01*
X58211700Y20838923D01*
X58211700Y21706390D01*
X58231702Y21774511D01*
X58276134Y21816324D01*
X58289505Y21823812D01*
X58439442Y21907781D01*
X58602012Y22042988D01*
X58737219Y22205558D01*
X58740043Y22210601D01*
X58740046Y22210605D01*
X58837713Y22385002D01*
X58837714Y22385004D01*
X58840537Y22390045D01*
X58842393Y22395512D01*
X58842395Y22395517D01*
X58906647Y22584800D01*
X58908504Y22590270D01*
X58938846Y22799530D01*
X58940429Y22860000D01*
X58921081Y23070560D01*
X58863686Y23274069D01*
X58852553Y23296646D01*
X58772719Y23458531D01*
X58770165Y23463710D01*
X58643651Y23633133D01*
X58496979Y23768715D01*
X58492622Y23772743D01*
X58492620Y23772745D01*
X58488381Y23776663D01*
X58405237Y23829123D01*
X58314434Y23886416D01*
X58314433Y23886416D01*
X58309554Y23889495D01*
X58113160Y23967848D01*
X58107503Y23968973D01*
X58107497Y23968975D01*
X57911442Y24007972D01*
X57911440Y24007972D01*
X57905775Y24009099D01*
X57900000Y24009175D01*
X57899996Y24009175D01*
X57793976Y24010563D01*
X57694346Y24011867D01*
X57688649Y24010888D01*
X57688648Y24010888D01*
X57491650Y23977038D01*
X57491649Y23977038D01*
X57485953Y23976059D01*
X57287575Y23902873D01*
X57282614Y23899921D01*
X57282613Y23899921D01*
X57152954Y23822782D01*
X57105856Y23794762D01*
X56946881Y23655345D01*
X56815976Y23489292D01*
X56813287Y23484181D01*
X56813285Y23484178D01*
X56799792Y23458531D01*
X56717523Y23302164D01*
X56654820Y23100227D01*
X56654141Y23094490D01*
X56654141Y23094488D01*
X56653165Y23086244D01*
X56625296Y23020946D01*
X56566549Y22981081D01*
X56495575Y22979305D01*
X56434907Y23016183D01*
X56407664Y23071006D01*
X56406081Y23070560D01*
X56350255Y23268504D01*
X56348686Y23274069D01*
X56337553Y23296646D01*
X56257719Y23458531D01*
X56255165Y23463710D01*
X56128651Y23633133D01*
X55981979Y23768715D01*
X55977622Y23772743D01*
X55977620Y23772745D01*
X55973381Y23776663D01*
X55890237Y23829123D01*
X55799434Y23886416D01*
X55799433Y23886416D01*
X55794554Y23889495D01*
X55598160Y23967848D01*
X55592503Y23968973D01*
X55592497Y23968975D01*
X55396442Y24007972D01*
X55396440Y24007972D01*
X55390775Y24009099D01*
X55385000Y24009175D01*
X55384996Y24009175D01*
X55278976Y24010563D01*
X55179346Y24011867D01*
X55173649Y24010888D01*
X55173648Y24010888D01*
X54976650Y23977038D01*
X54976649Y23977038D01*
X54970953Y23976059D01*
X54890614Y23946420D01*
X54819781Y23941608D01*
X54757908Y23975537D01*
X53282381Y25451064D01*
X53248355Y25513376D01*
X53253420Y25584191D01*
X53295967Y25641027D01*
X53362487Y25665838D01*
X53422896Y25652771D01*
X53423677Y25654589D01*
X53612650Y25573400D01*
X53612653Y25573399D01*
X53617953Y25571122D01*
X53623582Y25569848D01*
X53623583Y25569848D01*
X53818550Y25525731D01*
X53818553Y25525731D01*
X53824186Y25524456D01*
X53829957Y25524229D01*
X53829959Y25524229D01*
X53884400Y25522090D01*
X54035470Y25516154D01*
X54041179Y25516982D01*
X54041183Y25516982D01*
X54239015Y25545667D01*
X54239019Y25545668D01*
X54244730Y25546496D01*
X54318136Y25571414D01*
X54439483Y25612605D01*
X54439488Y25612607D01*
X54444955Y25614463D01*
X54465672Y25626065D01*
X54624395Y25714954D01*
X54624399Y25714957D01*
X54629442Y25717781D01*
X54792012Y25852988D01*
X54927219Y26015558D01*
X54930043Y26020601D01*
X54930046Y26020605D01*
X55027713Y26195002D01*
X55027714Y26195004D01*
X55030537Y26200045D01*
X55032393Y26205512D01*
X55032395Y26205517D01*
X55094525Y26388548D01*
X55098504Y26400270D01*
X55098969Y26403478D01*
X67932273Y26403478D01*
X67979764Y26226239D01*
X67983510Y26215947D01*
X68075586Y26018489D01*
X68081069Y26008993D01*
X68206028Y25830533D01*
X68213084Y25822125D01*
X68367125Y25668084D01*
X68375533Y25661028D01*
X68553993Y25536069D01*
X68563489Y25530586D01*
X68760947Y25438510D01*
X68771239Y25434764D01*
X68943503Y25388606D01*
X68957599Y25388942D01*
X68961000Y25396884D01*
X68961000Y26397885D01*
X68956525Y26413124D01*
X68955135Y26414329D01*
X68947452Y26416000D01*
X67947033Y26416000D01*
X67933502Y26412027D01*
X67932273Y26403478D01*
X55098969Y26403478D01*
X55099935Y26410135D01*
X55128314Y26605860D01*
X55128314Y26605862D01*
X55128846Y26609530D01*
X55130429Y26670000D01*
X55111081Y26880560D01*
X55053686Y27084069D01*
X55043796Y27104125D01*
X54962719Y27268531D01*
X54960165Y27273710D01*
X54842002Y27431950D01*
X54837104Y27438509D01*
X54837103Y27438510D01*
X54833651Y27443133D01*
X54678381Y27586663D01*
X54673498Y27589744D01*
X54504434Y27696416D01*
X54504433Y27696416D01*
X54499554Y27699495D01*
X54303160Y27777848D01*
X54297503Y27778973D01*
X54297497Y27778975D01*
X54100234Y27818212D01*
X54037324Y27851119D01*
X54002192Y27912814D01*
X54005992Y27983709D01*
X54047517Y28041295D01*
X54106734Y28066487D01*
X54239015Y28085667D01*
X54239019Y28085668D01*
X54244730Y28086496D01*
X54323987Y28113400D01*
X54439483Y28152605D01*
X54439490Y28152608D01*
X54444955Y28154463D01*
X54449998Y28157287D01*
X54624395Y28254954D01*
X54624399Y28254957D01*
X54629442Y28257781D01*
X54792012Y28392988D01*
X54927219Y28555558D01*
X54930043Y28560601D01*
X54930046Y28560605D01*
X55027713Y28735002D01*
X55027714Y28735004D01*
X55030537Y28740045D01*
X55032393Y28745512D01*
X55032395Y28745517D01*
X55094525Y28928548D01*
X55098504Y28940270D01*
X55112410Y29036172D01*
X55128314Y29145860D01*
X55128314Y29145862D01*
X55128846Y29149530D01*
X55130429Y29210000D01*
X55111081Y29420560D01*
X55105899Y29438936D01*
X55079035Y29534188D01*
X55053686Y29624069D01*
X55042553Y29646646D01*
X54962719Y29808531D01*
X54960165Y29813710D01*
X54833651Y29983133D01*
X54678381Y30126663D01*
X54673498Y30129744D01*
X54673494Y30129747D01*
X54647053Y30146430D01*
X54600115Y30199696D01*
X54589425Y30269884D01*
X54618379Y30334708D01*
X54625193Y30342087D01*
X55396522Y31113416D01*
X55407612Y31123271D01*
X55425166Y31137109D01*
X55425170Y31137113D01*
X55432565Y31142943D01*
X55464157Y31188654D01*
X55466390Y31191777D01*
X55499362Y31236418D01*
X55501627Y31242868D01*
X55505517Y31248496D01*
X55508355Y31257471D01*
X55508358Y31257476D01*
X55522244Y31301385D01*
X55523497Y31305142D01*
X55538757Y31348594D01*
X55538758Y31348597D01*
X55541877Y31357480D01*
X55542146Y31364316D01*
X55544207Y31370834D01*
X55544700Y31377098D01*
X55544700Y31426859D01*
X55544797Y31431805D01*
X55546026Y31463079D01*
X55546914Y31485691D01*
X55545108Y31492502D01*
X55544700Y31499917D01*
X55544700Y33004761D01*
X55564702Y33072882D01*
X55581605Y33093856D01*
X62567644Y40079895D01*
X62629956Y40113921D01*
X62656739Y40116800D01*
X63543842Y40116800D01*
X63558650Y40115927D01*
X63590207Y40112192D01*
X63599469Y40113884D01*
X63599478Y40113884D01*
X63644804Y40122163D01*
X63648712Y40122814D01*
X63650741Y40123119D01*
X63703536Y40131056D01*
X63709700Y40134016D01*
X63716429Y40135245D01*
X63765667Y40160822D01*
X63769183Y40162579D01*
X63810711Y40182520D01*
X63810715Y40182522D01*
X63819202Y40186598D01*
X63824224Y40191241D01*
X63830293Y40194393D01*
X63835071Y40198474D01*
X63870246Y40233649D01*
X63873812Y40237079D01*
X63906508Y40267303D01*
X63913423Y40273695D01*
X63916962Y40279787D01*
X63921921Y40285324D01*
X67883105Y44246508D01*
X67945417Y44280534D01*
X68016232Y44275469D01*
X68073068Y44232922D01*
X68094322Y44188429D01*
X68096395Y44180270D01*
X68124423Y44069907D01*
X68124425Y44069902D01*
X68125845Y44064310D01*
X68128262Y44059067D01*
X68211951Y43877531D01*
X68214369Y43872286D01*
X68336405Y43699609D01*
X68487865Y43552063D01*
X68492661Y43548858D01*
X68492664Y43548856D01*
X68584616Y43487416D01*
X68663677Y43434589D01*
X68668985Y43432308D01*
X68668986Y43432308D01*
X68852650Y43353400D01*
X68852653Y43353399D01*
X68857953Y43351122D01*
X68863582Y43349848D01*
X68863583Y43349848D01*
X69058550Y43305731D01*
X69058553Y43305731D01*
X69064186Y43304456D01*
X69069958Y43304229D01*
X69075687Y43303475D01*
X69075327Y43300743D01*
X69131604Y43281784D01*
X69175950Y43226341D01*
X69183282Y43155724D01*
X69151271Y43092353D01*
X69090081Y43056349D01*
X69080704Y43054368D01*
X68921650Y43027038D01*
X68921649Y43027038D01*
X68915953Y43026059D01*
X68717575Y42952873D01*
X68712614Y42949921D01*
X68712613Y42949921D01*
X68577577Y42869583D01*
X68535856Y42844762D01*
X68376881Y42705345D01*
X68245976Y42539292D01*
X68243287Y42534181D01*
X68243285Y42534178D01*
X68219110Y42488229D01*
X68147523Y42352164D01*
X68084820Y42150227D01*
X68059967Y41940246D01*
X68063391Y41888007D01*
X68071786Y41759926D01*
X68073796Y41729251D01*
X68075217Y41723655D01*
X68075218Y41723650D01*
X68124424Y41529905D01*
X68125845Y41524310D01*
X68128262Y41519067D01*
X68211951Y41337531D01*
X68214369Y41332286D01*
X68336405Y41159609D01*
X68487865Y41012063D01*
X68492661Y41008858D01*
X68492664Y41008856D01*
X68584616Y40947416D01*
X68663677Y40894589D01*
X68668985Y40892308D01*
X68668986Y40892308D01*
X68852650Y40813400D01*
X68852653Y40813399D01*
X68857953Y40811122D01*
X68863582Y40809848D01*
X68863583Y40809848D01*
X69058550Y40765731D01*
X69058553Y40765731D01*
X69064186Y40764456D01*
X69069958Y40764229D01*
X69075687Y40763475D01*
X69075327Y40760743D01*
X69131604Y40741784D01*
X69175950Y40686341D01*
X69183282Y40615724D01*
X69151271Y40552353D01*
X69090081Y40516349D01*
X69080704Y40514368D01*
X68921650Y40487038D01*
X68921649Y40487038D01*
X68915953Y40486059D01*
X68717575Y40412873D01*
X68712614Y40409921D01*
X68712613Y40409921D01*
X68570862Y40325588D01*
X68535856Y40304762D01*
X68376881Y40165345D01*
X68245976Y39999292D01*
X68243287Y39994181D01*
X68243285Y39994178D01*
X68231023Y39970872D01*
X68147523Y39812164D01*
X68084820Y39610227D01*
X68059967Y39400246D01*
X68073796Y39189251D01*
X68075217Y39183655D01*
X68075218Y39183650D01*
X68124424Y38989905D01*
X68125845Y38984310D01*
X68128262Y38979067D01*
X68174107Y38879621D01*
X68214369Y38792286D01*
X68336405Y38619609D01*
X68340539Y38615582D01*
X68436689Y38521917D01*
X68487865Y38472063D01*
X68492661Y38468858D01*
X68492664Y38468856D01*
X68582537Y38408805D01*
X68663677Y38354589D01*
X68668985Y38352308D01*
X68668986Y38352308D01*
X68852650Y38273400D01*
X68852653Y38273399D01*
X68857953Y38271122D01*
X68863582Y38269848D01*
X68863583Y38269848D01*
X69058550Y38225731D01*
X69058553Y38225731D01*
X69064186Y38224456D01*
X69069958Y38224229D01*
X69075687Y38223475D01*
X69075327Y38220743D01*
X69131604Y38201784D01*
X69175950Y38146341D01*
X69183282Y38075724D01*
X69151271Y38012353D01*
X69090081Y37976349D01*
X69080704Y37974368D01*
X68921650Y37947038D01*
X68921649Y37947038D01*
X68915953Y37946059D01*
X68717575Y37872873D01*
X68712614Y37869921D01*
X68712613Y37869921D01*
X68577577Y37789583D01*
X68535856Y37764762D01*
X68376881Y37625345D01*
X68245976Y37459292D01*
X68243287Y37454181D01*
X68243285Y37454178D01*
X68231023Y37430872D01*
X68147523Y37272164D01*
X68084820Y37070227D01*
X68059967Y36860246D01*
X68073796Y36649251D01*
X68075217Y36643655D01*
X68075218Y36643650D01*
X68124424Y36449905D01*
X68125845Y36444310D01*
X68128262Y36439067D01*
X68174107Y36339621D01*
X68214369Y36252286D01*
X68336405Y36079609D01*
X68487865Y35932063D01*
X68492661Y35928858D01*
X68492664Y35928856D01*
X68625509Y35840092D01*
X68663677Y35814589D01*
X68668985Y35812308D01*
X68668986Y35812308D01*
X68852650Y35733400D01*
X68852653Y35733399D01*
X68857953Y35731122D01*
X68863582Y35729848D01*
X68863583Y35729848D01*
X69058550Y35685731D01*
X69058553Y35685731D01*
X69064186Y35684456D01*
X69069958Y35684229D01*
X69075687Y35683475D01*
X69075327Y35680743D01*
X69131604Y35661784D01*
X69175950Y35606341D01*
X69183282Y35535724D01*
X69151271Y35472353D01*
X69090081Y35436349D01*
X69080704Y35434368D01*
X68921650Y35407038D01*
X68921649Y35407038D01*
X68915953Y35406059D01*
X68717575Y35332873D01*
X68712614Y35329921D01*
X68712613Y35329921D01*
X68577577Y35249583D01*
X68535856Y35224762D01*
X68376881Y35085345D01*
X68245976Y34919292D01*
X68243287Y34914181D01*
X68243285Y34914178D01*
X68231023Y34890872D01*
X68147523Y34732164D01*
X68084820Y34530227D01*
X68059967Y34320246D01*
X68073796Y34109251D01*
X68075217Y34103655D01*
X68075218Y34103650D01*
X68124424Y33909905D01*
X68125845Y33904310D01*
X68128262Y33899067D01*
X68174107Y33799621D01*
X68214369Y33712286D01*
X68336405Y33539609D01*
X68487865Y33392063D01*
X68492661Y33388858D01*
X68492664Y33388856D01*
X68625509Y33300092D01*
X68663677Y33274589D01*
X68668985Y33272308D01*
X68668986Y33272308D01*
X68852650Y33193400D01*
X68852653Y33193399D01*
X68857953Y33191122D01*
X68863582Y33189848D01*
X68863583Y33189848D01*
X69058550Y33145731D01*
X69058553Y33145731D01*
X69064186Y33144456D01*
X69069958Y33144229D01*
X69075687Y33143475D01*
X69075327Y33140743D01*
X69131604Y33121784D01*
X69175950Y33066341D01*
X69183282Y32995724D01*
X69151271Y32932353D01*
X69090081Y32896349D01*
X69080704Y32894368D01*
X68921650Y32867038D01*
X68921649Y32867038D01*
X68915953Y32866059D01*
X68717575Y32792873D01*
X68712614Y32789921D01*
X68712613Y32789921D01*
X68577577Y32709583D01*
X68535856Y32684762D01*
X68376881Y32545345D01*
X68245976Y32379292D01*
X68243287Y32374181D01*
X68243285Y32374178D01*
X68231023Y32350872D01*
X68147523Y32192164D01*
X68084820Y31990227D01*
X68059967Y31780246D01*
X68073796Y31569251D01*
X68075217Y31563655D01*
X68075218Y31563650D01*
X68124424Y31369905D01*
X68125845Y31364310D01*
X68128262Y31359067D01*
X68174107Y31259621D01*
X68214369Y31172286D01*
X68336405Y30999609D01*
X68487865Y30852063D01*
X68492661Y30848858D01*
X68492664Y30848856D01*
X68625509Y30760092D01*
X68663677Y30734589D01*
X68668982Y30732310D01*
X68668986Y30732308D01*
X68852650Y30653400D01*
X68852653Y30653399D01*
X68857953Y30651122D01*
X68863582Y30649848D01*
X68863583Y30649848D01*
X69058550Y30605731D01*
X69058553Y30605731D01*
X69064186Y30604456D01*
X69069958Y30604229D01*
X69075687Y30603475D01*
X69075327Y30600743D01*
X69131604Y30581784D01*
X69175950Y30526341D01*
X69183282Y30455724D01*
X69151271Y30392353D01*
X69090081Y30356349D01*
X69080704Y30354368D01*
X68921650Y30327038D01*
X68921649Y30327038D01*
X68915953Y30326059D01*
X68717575Y30252873D01*
X68712614Y30249921D01*
X68712613Y30249921D01*
X68577577Y30169583D01*
X68535856Y30144762D01*
X68376881Y30005345D01*
X68245976Y29839292D01*
X68243287Y29834181D01*
X68243285Y29834178D01*
X68231023Y29810872D01*
X68147523Y29652164D01*
X68084820Y29450227D01*
X68059967Y29240246D01*
X68073796Y29029251D01*
X68075217Y29023655D01*
X68075218Y29023650D01*
X68124424Y28829905D01*
X68125845Y28824310D01*
X68128262Y28819067D01*
X68174107Y28719621D01*
X68214369Y28632286D01*
X68336405Y28459609D01*
X68487865Y28312063D01*
X68492661Y28308858D01*
X68492664Y28308856D01*
X68625509Y28220092D01*
X68663677Y28194589D01*
X68668985Y28192308D01*
X68668986Y28192308D01*
X68785940Y28142061D01*
X68840634Y28096793D01*
X68862171Y28029142D01*
X68843714Y27960586D01*
X68791123Y27912892D01*
X68776318Y27907380D01*
X68776413Y27907119D01*
X68760947Y27901490D01*
X68563489Y27809414D01*
X68553993Y27803931D01*
X68375533Y27678972D01*
X68367125Y27671916D01*
X68213084Y27517875D01*
X68206028Y27509467D01*
X68081069Y27331007D01*
X68075586Y27321511D01*
X67983510Y27124053D01*
X67979764Y27113761D01*
X67933606Y26941497D01*
X67933942Y26927401D01*
X67941884Y26924000D01*
X69343000Y26924000D01*
X69411121Y26903998D01*
X69457614Y26850342D01*
X69469000Y26798000D01*
X69469000Y25402033D01*
X69472973Y25388502D01*
X69481522Y25387273D01*
X69556378Y25407331D01*
X69627354Y25405641D01*
X69686150Y25365847D01*
X69714098Y25300583D01*
X69702325Y25230569D01*
X69678084Y25196529D01*
X68457834Y23976279D01*
X68395522Y23942253D01*
X68322050Y23948343D01*
X68296403Y23958575D01*
X68273160Y23967848D01*
X68267503Y23968973D01*
X68267497Y23968975D01*
X68071442Y24007972D01*
X68071440Y24007972D01*
X68065775Y24009099D01*
X68060000Y24009175D01*
X68059996Y24009175D01*
X67953976Y24010563D01*
X67854346Y24011867D01*
X67848649Y24010888D01*
X67848648Y24010888D01*
X67651650Y23977038D01*
X67651649Y23977038D01*
X67645953Y23976059D01*
X67447575Y23902873D01*
X67442614Y23899921D01*
X67442613Y23899921D01*
X67312954Y23822782D01*
X67265856Y23794762D01*
X67106881Y23655345D01*
X66975976Y23489292D01*
X66973287Y23484181D01*
X66973285Y23484178D01*
X66959792Y23458531D01*
X66877523Y23302164D01*
X66814820Y23100227D01*
X66789967Y22890246D01*
X66803796Y22679251D01*
X66805217Y22673655D01*
X66805218Y22673650D01*
X66827784Y22584800D01*
X66855845Y22474310D01*
X66944369Y22282286D01*
X67066405Y22109609D01*
X67217865Y21962063D01*
X67222661Y21958858D01*
X67222664Y21958856D01*
X67365936Y21863125D01*
X67393677Y21844589D01*
X67398985Y21842308D01*
X67398986Y21842308D01*
X67582650Y21763400D01*
X67582653Y21763399D01*
X67587953Y21761122D01*
X67593582Y21759848D01*
X67593583Y21759848D01*
X67788550Y21715731D01*
X67788553Y21715731D01*
X67794186Y21714456D01*
X67799957Y21714229D01*
X67799959Y21714229D01*
X67861989Y21711792D01*
X68005470Y21706154D01*
X68011179Y21706982D01*
X68011183Y21706982D01*
X68209015Y21735667D01*
X68209019Y21735668D01*
X68214730Y21736496D01*
X68321508Y21772742D01*
X68409483Y21802605D01*
X68409488Y21802607D01*
X68414955Y21804463D01*
X68473735Y21837381D01*
X68542942Y21853215D01*
X68609724Y21829118D01*
X68652877Y21772742D01*
X68661300Y21727447D01*
X68661300Y21056935D01*
X68641298Y20988814D01*
X68624395Y20967840D01*
X68457834Y20801279D01*
X68395522Y20767253D01*
X68322050Y20773343D01*
X68273160Y20792848D01*
X68267503Y20793973D01*
X68267497Y20793975D01*
X68071442Y20832972D01*
X68071440Y20832972D01*
X68065775Y20834099D01*
X68060000Y20834175D01*
X68059996Y20834175D01*
X67953976Y20835563D01*
X67854346Y20836867D01*
X67848649Y20835888D01*
X67848648Y20835888D01*
X67651650Y20802038D01*
X67651649Y20802038D01*
X67645953Y20801059D01*
X67447575Y20727873D01*
X67442614Y20724921D01*
X67442613Y20724921D01*
X67388853Y20692937D01*
X67265856Y20619762D01*
X67106881Y20480345D01*
X66975976Y20314292D01*
X66973287Y20309181D01*
X66973285Y20309178D01*
X66959792Y20283531D01*
X66877523Y20127164D01*
X66814820Y19925227D01*
X66789967Y19715246D01*
X66803796Y19504251D01*
X66805217Y19498655D01*
X66805218Y19498650D01*
X66827784Y19409800D01*
X66855845Y19299310D01*
X66944369Y19107286D01*
X67066405Y18934609D01*
X67217865Y18787063D01*
X67222661Y18783858D01*
X67222664Y18783856D01*
X67343099Y18703384D01*
X67393677Y18669589D01*
X67398985Y18667308D01*
X67398986Y18667308D01*
X67582650Y18588400D01*
X67582653Y18588399D01*
X67587953Y18586122D01*
X67593582Y18584848D01*
X67593583Y18584848D01*
X67788550Y18540731D01*
X67788553Y18540731D01*
X67794186Y18539456D01*
X67799957Y18539229D01*
X67799959Y18539229D01*
X67861989Y18536792D01*
X68005470Y18531154D01*
X68011179Y18531982D01*
X68011183Y18531982D01*
X68209015Y18560667D01*
X68209019Y18560668D01*
X68214730Y18561496D01*
X68293987Y18588400D01*
X68409483Y18627605D01*
X68409488Y18627607D01*
X68414955Y18629463D01*
X68419998Y18632287D01*
X68594395Y18729954D01*
X68594399Y18729957D01*
X68599442Y18732781D01*
X68762012Y18867988D01*
X68897219Y19030558D01*
X68900043Y19035601D01*
X68900046Y19035605D01*
X68997713Y19210002D01*
X68997714Y19210004D01*
X69000537Y19215045D01*
X69002393Y19220512D01*
X69002395Y19220517D01*
X69066647Y19409800D01*
X69068504Y19415270D01*
X69082243Y19510019D01*
X69098314Y19620860D01*
X69098314Y19620862D01*
X69098846Y19624530D01*
X69100429Y19685000D01*
X69081081Y19895560D01*
X69030274Y20075709D01*
X69031035Y20146701D01*
X69062449Y20199004D01*
X69366522Y20503077D01*
X69377612Y20512932D01*
X69395166Y20526770D01*
X69395170Y20526774D01*
X69402565Y20532604D01*
X69434157Y20578315D01*
X69436390Y20581438D01*
X69469362Y20626079D01*
X69471627Y20632529D01*
X69475517Y20638157D01*
X69478355Y20647132D01*
X69478358Y20647137D01*
X69492244Y20691046D01*
X69493497Y20694803D01*
X69508757Y20738255D01*
X69508758Y20738258D01*
X69511877Y20747141D01*
X69512146Y20753977D01*
X69514207Y20760495D01*
X69514700Y20766759D01*
X69514700Y20816520D01*
X69514797Y20821466D01*
X69516544Y20865939D01*
X69516914Y20875352D01*
X69515108Y20882163D01*
X69514700Y20889578D01*
X69514700Y23343013D01*
X69534702Y23411134D01*
X69551605Y23432108D01*
X70826922Y24707425D01*
X70838012Y24717280D01*
X70855566Y24731118D01*
X70855570Y24731122D01*
X70862965Y24736952D01*
X70894511Y24782596D01*
X70896806Y24785808D01*
X70924165Y24822849D01*
X70929762Y24830426D01*
X70932028Y24836877D01*
X70935917Y24842505D01*
X70952664Y24895461D01*
X70953900Y24899163D01*
X70969154Y24942599D01*
X70972276Y24951489D01*
X70972544Y24958321D01*
X70974607Y24964843D01*
X70975100Y24971107D01*
X70975100Y25020878D01*
X70975197Y25025825D01*
X70976944Y25070287D01*
X70977314Y25079700D01*
X70975508Y25086511D01*
X70975100Y25093925D01*
X70975100Y25511451D01*
X70995102Y25579572D01*
X71048758Y25626065D01*
X71119032Y25636169D01*
X71171099Y25616218D01*
X71172840Y25615055D01*
X71179717Y25610460D01*
X71185020Y25608182D01*
X71185023Y25608180D01*
X71376929Y25525731D01*
X71382436Y25523365D01*
X71462088Y25505342D01*
X71591995Y25475946D01*
X71592001Y25475945D01*
X71597632Y25474671D01*
X71603403Y25474444D01*
X71603405Y25474444D01*
X71671211Y25471780D01*
X71818098Y25466009D01*
X71942655Y25484069D01*
X72030738Y25496840D01*
X72030743Y25496841D01*
X72036452Y25497669D01*
X72041916Y25499524D01*
X72041921Y25499525D01*
X72239907Y25566732D01*
X72239912Y25566734D01*
X72245379Y25568590D01*
X72251708Y25572134D01*
X72366050Y25636169D01*
X72437884Y25676398D01*
X72457987Y25693117D01*
X72603086Y25813796D01*
X72607518Y25817482D01*
X72677154Y25901210D01*
X72744908Y25982674D01*
X72744910Y25982677D01*
X72748602Y25987116D01*
X72813606Y26103188D01*
X72853586Y26174578D01*
X72853587Y26174580D01*
X72856410Y26179621D01*
X72858266Y26185088D01*
X72858268Y26185093D01*
X72925475Y26383079D01*
X72925476Y26383084D01*
X72927331Y26388548D01*
X72928159Y26394257D01*
X72928160Y26394262D01*
X72929287Y26402034D01*
X73598257Y26402034D01*
X73628565Y26267554D01*
X73631645Y26257725D01*
X73711770Y26060397D01*
X73716413Y26051206D01*
X73827694Y25869612D01*
X73833777Y25861301D01*
X73973213Y25700333D01*
X73980580Y25693117D01*
X74144434Y25557084D01*
X74152881Y25551169D01*
X74336756Y25443721D01*
X74346042Y25439271D01*
X74545001Y25363297D01*
X74554899Y25360421D01*
X74658250Y25339394D01*
X74672299Y25340590D01*
X74676000Y25350935D01*
X74676000Y25351483D01*
X75184000Y25351483D01*
X75188064Y25337641D01*
X75201478Y25335607D01*
X75208184Y25336466D01*
X75218262Y25338608D01*
X75422255Y25399809D01*
X75431842Y25403567D01*
X75623095Y25497261D01*
X75631945Y25502536D01*
X75805328Y25626208D01*
X75813200Y25632861D01*
X75964052Y25783188D01*
X75970730Y25791035D01*
X76095003Y25963980D01*
X76100313Y25972817D01*
X76194670Y26163733D01*
X76198469Y26173328D01*
X76260377Y26377090D01*
X76262555Y26387163D01*
X76263986Y26398038D01*
X76261775Y26412222D01*
X76248617Y26416000D01*
X75202115Y26416000D01*
X75186876Y26411525D01*
X75185671Y26410135D01*
X75184000Y26402452D01*
X75184000Y25351483D01*
X74676000Y25351483D01*
X74676000Y26397885D01*
X74671525Y26413124D01*
X74670135Y26414329D01*
X74662452Y26416000D01*
X73613225Y26416000D01*
X73599694Y26412027D01*
X73598257Y26402034D01*
X72929287Y26402034D01*
X72958458Y26603228D01*
X72958991Y26606902D01*
X72960643Y26670000D01*
X72940454Y26889711D01*
X72929825Y26927401D01*
X72910509Y26995888D01*
X72880565Y27102064D01*
X72782980Y27299947D01*
X72759660Y27331176D01*
X72686559Y27429070D01*
X72661827Y27495620D01*
X72677001Y27564976D01*
X72698422Y27593554D01*
X73708190Y28603322D01*
X73770502Y28637348D01*
X73841317Y28632283D01*
X73900181Y28586948D01*
X74013222Y28426998D01*
X74171264Y28273039D01*
X74176060Y28269834D01*
X74176063Y28269832D01*
X74258163Y28214975D01*
X74354717Y28150460D01*
X74360020Y28148182D01*
X74360023Y28148180D01*
X74372546Y28142800D01*
X74427239Y28097531D01*
X74448776Y28029880D01*
X74430319Y27961325D01*
X74380988Y27915269D01*
X74208463Y27825458D01*
X74199738Y27819964D01*
X74029433Y27692095D01*
X74021726Y27685252D01*
X73874590Y27531283D01*
X73868104Y27523273D01*
X73748098Y27347351D01*
X73743000Y27338377D01*
X73653338Y27145217D01*
X73649775Y27135530D01*
X73594389Y26935817D01*
X73595912Y26927393D01*
X73608292Y26924000D01*
X76248344Y26924000D01*
X76261875Y26927973D01*
X76263180Y26937053D01*
X76221214Y27104125D01*
X76217894Y27113876D01*
X76132972Y27309186D01*
X76128105Y27318261D01*
X76012426Y27497074D01*
X76006136Y27505243D01*
X75862806Y27662760D01*
X75855273Y27669785D01*
X75688139Y27801778D01*
X75679552Y27807483D01*
X75493115Y27910402D01*
X75484687Y27914190D01*
X75430752Y27960359D01*
X75410340Y28028358D01*
X75429932Y28096598D01*
X75474771Y28139051D01*
X75484324Y28144401D01*
X75612884Y28216398D01*
X75630235Y28230828D01*
X75778086Y28353796D01*
X75782518Y28357482D01*
X75862305Y28453415D01*
X75919908Y28522674D01*
X75919910Y28522677D01*
X75923602Y28527116D01*
X76031410Y28719621D01*
X76033266Y28725088D01*
X76033268Y28725093D01*
X76100475Y28923079D01*
X76100476Y28923084D01*
X76102331Y28928548D01*
X76103159Y28934257D01*
X76103160Y28934262D01*
X76133458Y29143228D01*
X76133991Y29146902D01*
X76135643Y29210000D01*
X76115454Y29429711D01*
X76055565Y29642064D01*
X75957980Y29839947D01*
X75851058Y29983133D01*
X75829420Y30012109D01*
X75829420Y30012110D01*
X75825967Y30016733D01*
X75711286Y30122743D01*
X75668189Y30162582D01*
X75668186Y30162584D01*
X75663949Y30166501D01*
X75477350Y30284236D01*
X75274955Y30364983D01*
X75219096Y30408804D01*
X75195795Y30475868D01*
X75212451Y30544883D01*
X75263775Y30593937D01*
X75281144Y30601326D01*
X75414907Y30646732D01*
X75414912Y30646734D01*
X75420379Y30648590D01*
X75435236Y30656910D01*
X75569868Y30732308D01*
X75612884Y30756398D01*
X75659243Y30794954D01*
X75778086Y30893796D01*
X75782518Y30897482D01*
X75844256Y30971713D01*
X75919908Y31062674D01*
X75919910Y31062677D01*
X75923602Y31067116D01*
X76031410Y31259621D01*
X76033266Y31265088D01*
X76033268Y31265093D01*
X76100475Y31463079D01*
X76100476Y31463084D01*
X76102331Y31468548D01*
X76103159Y31474257D01*
X76103160Y31474262D01*
X76133458Y31683228D01*
X76133991Y31686902D01*
X76135643Y31750000D01*
X76115454Y31969711D01*
X76055565Y32182064D01*
X75957980Y32379947D01*
X75851058Y32523133D01*
X75829420Y32552109D01*
X75829420Y32552110D01*
X75825967Y32556733D01*
X75711286Y32662743D01*
X75668189Y32702582D01*
X75668186Y32702584D01*
X75663949Y32706501D01*
X75477350Y32824236D01*
X75274955Y32904983D01*
X75219096Y32948804D01*
X75195795Y33015868D01*
X75212451Y33084883D01*
X75263775Y33133937D01*
X75281144Y33141326D01*
X75414907Y33186732D01*
X75414912Y33186734D01*
X75420379Y33188590D01*
X75435236Y33196910D01*
X75586794Y33281787D01*
X75612884Y33296398D01*
X75659243Y33334954D01*
X75778086Y33433796D01*
X75782518Y33437482D01*
X75844256Y33511713D01*
X75919908Y33602674D01*
X75919910Y33602677D01*
X75923602Y33607116D01*
X76031410Y33799621D01*
X76033266Y33805088D01*
X76033268Y33805093D01*
X76100475Y34003079D01*
X76100476Y34003084D01*
X76102331Y34008548D01*
X76103159Y34014257D01*
X76103160Y34014262D01*
X76133458Y34223228D01*
X76133991Y34226902D01*
X76135643Y34290000D01*
X76115454Y34509711D01*
X76055565Y34722064D01*
X75957980Y34919947D01*
X75851058Y35063133D01*
X75829420Y35092109D01*
X75829420Y35092110D01*
X75825967Y35096733D01*
X75711286Y35202743D01*
X75668189Y35242582D01*
X75668186Y35242584D01*
X75663949Y35246501D01*
X75477350Y35364236D01*
X75274955Y35444983D01*
X75219096Y35488804D01*
X75195795Y35555868D01*
X75212451Y35624883D01*
X75263775Y35673937D01*
X75281144Y35681326D01*
X75414907Y35726732D01*
X75414912Y35726734D01*
X75420379Y35728590D01*
X75435236Y35736910D01*
X75586794Y35821787D01*
X75612884Y35836398D01*
X75659243Y35874954D01*
X75778086Y35973796D01*
X75782518Y35977482D01*
X75844256Y36051713D01*
X75919908Y36142674D01*
X75919910Y36142677D01*
X75923602Y36147116D01*
X76031410Y36339621D01*
X76033266Y36345088D01*
X76033268Y36345093D01*
X76100475Y36543079D01*
X76100476Y36543084D01*
X76102331Y36548548D01*
X76103159Y36554257D01*
X76103160Y36554262D01*
X76133458Y36763228D01*
X76133991Y36766902D01*
X76135643Y36830000D01*
X76115454Y37049711D01*
X76055565Y37262064D01*
X75957980Y37459947D01*
X75851058Y37603133D01*
X75829420Y37632109D01*
X75829420Y37632110D01*
X75825967Y37636733D01*
X75711286Y37742743D01*
X75668189Y37782582D01*
X75668186Y37782584D01*
X75663949Y37786501D01*
X75477350Y37904236D01*
X75274955Y37984983D01*
X75219096Y38028804D01*
X75195795Y38095868D01*
X75212451Y38164883D01*
X75263775Y38213937D01*
X75281144Y38221326D01*
X75414907Y38266732D01*
X75414912Y38266734D01*
X75420379Y38268590D01*
X75435236Y38276910D01*
X75586794Y38361787D01*
X75612884Y38376398D01*
X75644264Y38402496D01*
X75778086Y38513796D01*
X75782518Y38517482D01*
X75844256Y38591713D01*
X75919908Y38682674D01*
X75919910Y38682677D01*
X75923602Y38687116D01*
X76031410Y38879621D01*
X76033266Y38885088D01*
X76033268Y38885093D01*
X76100475Y39083079D01*
X76100476Y39083084D01*
X76102331Y39088548D01*
X76103159Y39094257D01*
X76103160Y39094262D01*
X76133458Y39303228D01*
X76133991Y39306902D01*
X76135643Y39370000D01*
X76115454Y39589711D01*
X76055565Y39802064D01*
X75957980Y39999947D01*
X75866452Y40122518D01*
X75829420Y40172109D01*
X75829420Y40172110D01*
X75825967Y40176733D01*
X75663949Y40326501D01*
X75665368Y40328036D01*
X75628961Y40377886D01*
X75624732Y40448757D01*
X75658433Y40509617D01*
X75670365Y40521549D01*
X75673931Y40524979D01*
X75706627Y40555203D01*
X75713542Y40561595D01*
X75717081Y40567687D01*
X75722040Y40573224D01*
X76897622Y41748806D01*
X76908712Y41758661D01*
X76926266Y41772499D01*
X76926270Y41772503D01*
X76933665Y41778333D01*
X76965207Y41823971D01*
X76967502Y41827183D01*
X76994868Y41864232D01*
X76994870Y41864236D01*
X77000463Y41871808D01*
X77002729Y41878260D01*
X77006617Y41883886D01*
X77023348Y41936790D01*
X77024602Y41940548D01*
X77024958Y41941560D01*
X77042977Y41992870D01*
X77043246Y41999706D01*
X77045307Y42006224D01*
X77045800Y42012488D01*
X77045800Y42062249D01*
X77045897Y42067195D01*
X77046444Y42081112D01*
X77048014Y42121081D01*
X77046208Y42127892D01*
X77045800Y42135307D01*
X77045800Y67184197D01*
X77046673Y67199006D01*
X77049300Y67221203D01*
X77050407Y67230555D01*
X77046265Y67253237D01*
X77040442Y67285122D01*
X77039792Y67289025D01*
X77032944Y67334575D01*
X77032943Y67334578D01*
X77031544Y67343884D01*
X77028584Y67350049D01*
X77027355Y67356777D01*
X77001778Y67406015D01*
X77000021Y67409531D01*
X76980080Y67451059D01*
X76980078Y67451063D01*
X76976002Y67459550D01*
X76971359Y67464572D01*
X76968207Y67470641D01*
X76964126Y67475419D01*
X76928951Y67510594D01*
X76925521Y67514160D01*
X76895297Y67546856D01*
X76895298Y67546856D01*
X76888905Y67553771D01*
X76882813Y67557310D01*
X76877276Y67562269D01*
X75694307Y68745238D01*
X75660281Y68807550D01*
X75665346Y68878365D01*
X75702832Y68931207D01*
X75778085Y68993795D01*
X75778086Y68993796D01*
X75782518Y68997482D01*
X75844256Y69071713D01*
X75919908Y69162674D01*
X75919910Y69162677D01*
X75923602Y69167116D01*
X76031410Y69359621D01*
X76033266Y69365088D01*
X76033268Y69365093D01*
X76100475Y69563079D01*
X76100476Y69563084D01*
X76102331Y69568548D01*
X76103159Y69574257D01*
X76103160Y69574262D01*
X76133458Y69783228D01*
X76133991Y69786902D01*
X76135643Y69850000D01*
X76115454Y70069711D01*
X76055565Y70282064D01*
X75957980Y70479947D01*
X75851058Y70623133D01*
X75829420Y70652109D01*
X75829420Y70652110D01*
X75825967Y70656733D01*
X75711286Y70762743D01*
X75668189Y70802582D01*
X75668186Y70802584D01*
X75663949Y70806501D01*
X75477350Y70924236D01*
X75274955Y71004983D01*
X75219096Y71048804D01*
X75195795Y71115868D01*
X75212451Y71184883D01*
X75263775Y71233937D01*
X75281144Y71241326D01*
X75414907Y71286732D01*
X75414912Y71286734D01*
X75420379Y71288590D01*
X75612884Y71396398D01*
X75659243Y71434954D01*
X75778086Y71533796D01*
X75782518Y71537482D01*
X75863453Y71634795D01*
X75919908Y71702674D01*
X75919910Y71702677D01*
X75923602Y71707116D01*
X75994991Y71834591D01*
X76028586Y71894578D01*
X76028587Y71894580D01*
X76031410Y71899621D01*
X76033266Y71905088D01*
X76033268Y71905093D01*
X76100475Y72103079D01*
X76100476Y72103084D01*
X76102331Y72108548D01*
X76103159Y72114257D01*
X76103160Y72114262D01*
X76133458Y72323228D01*
X76133991Y72326902D01*
X76135643Y72390000D01*
X76115454Y72609711D01*
X76055565Y72822064D01*
X75957980Y73019947D01*
X75851058Y73163133D01*
X75829420Y73192109D01*
X75829420Y73192110D01*
X75825967Y73196733D01*
X75711286Y73302743D01*
X75668189Y73342582D01*
X75668186Y73342584D01*
X75663949Y73346501D01*
X75477350Y73464236D01*
X75437348Y73480195D01*
X75421620Y73486470D01*
X75365760Y73530291D01*
X75342460Y73597355D01*
X75359116Y73666370D01*
X75410440Y73715424D01*
X75468310Y73729500D01*
X75813218Y73729500D01*
X75817768Y73730170D01*
X75817771Y73730170D01*
X75872426Y73738216D01*
X75872427Y73738216D01*
X75882112Y73739642D01*
X75956479Y73776154D01*
X75977507Y73786478D01*
X75977509Y73786479D01*
X75986855Y73791068D01*
X76069293Y73873650D01*
X76120536Y73978482D01*
X76127744Y74027888D01*
X76129840Y74042256D01*
X76129840Y74042260D01*
X76130500Y74046782D01*
X76130500Y75813218D01*
X76129145Y75822426D01*
X76121784Y75872426D01*
X76121784Y75872427D01*
X76120358Y75882112D01*
X76068932Y75986855D01*
X75986350Y76069293D01*
X75960627Y76081867D01*
X75944540Y76089730D01*
X75881518Y76120536D01*
X75851027Y76124984D01*
X75817744Y76129840D01*
X75817740Y76129840D01*
X75813218Y76130500D01*
X74046782Y76130500D01*
X74042232Y76129830D01*
X74042229Y76129830D01*
X73987574Y76121784D01*
X73987573Y76121784D01*
X73977888Y76120358D01*
X73927992Y76095860D01*
X73882493Y76073522D01*
X73882491Y76073521D01*
X73873145Y76068932D01*
X73790707Y75986350D01*
X73786134Y75976994D01*
X73786133Y75976993D01*
X73777580Y75959495D01*
X73739464Y75881518D01*
X73729500Y75813218D01*
X73729500Y74385135D01*
X73709498Y74317014D01*
X73692595Y74296040D01*
X73572778Y74176223D01*
X73561688Y74166368D01*
X73544134Y74152530D01*
X73544130Y74152526D01*
X73536735Y74146696D01*
X73505143Y74100985D01*
X73502910Y74097862D01*
X73469938Y74053221D01*
X73468066Y74047889D01*
X73465323Y74043373D01*
X73463799Y74041167D01*
X73461635Y74042662D01*
X73423274Y74000755D01*
X73354633Y73982616D01*
X73287083Y74004466D01*
X73268971Y74019474D01*
X72992405Y74296040D01*
X72958379Y74358352D01*
X72955500Y74385135D01*
X72955500Y75813218D01*
X72954145Y75822426D01*
X72946784Y75872426D01*
X72946784Y75872427D01*
X72945358Y75882112D01*
X72893932Y75986855D01*
X72811350Y76069293D01*
X72785627Y76081867D01*
X72769540Y76089730D01*
X72706518Y76120536D01*
X72676027Y76124984D01*
X72642744Y76129840D01*
X72642740Y76129840D01*
X72638218Y76130500D01*
X70871782Y76130500D01*
X70867232Y76129830D01*
X70867229Y76129830D01*
X70812574Y76121784D01*
X70812573Y76121784D01*
X70802888Y76120358D01*
X70752992Y76095860D01*
X70707493Y76073522D01*
X70707491Y76073521D01*
X70698145Y76068932D01*
X70615707Y75986350D01*
X70611134Y75976994D01*
X70611133Y75976993D01*
X70602580Y75959495D01*
X70564464Y75881518D01*
X70554500Y75813218D01*
X70554500Y75330243D01*
X70534498Y75262122D01*
X70480842Y75215629D01*
X70410568Y75205525D01*
X70345988Y75235019D01*
X70307231Y75296042D01*
X70295256Y75338504D01*
X70295254Y75338509D01*
X70293686Y75344069D01*
X70282553Y75366646D01*
X70202719Y75528531D01*
X70200165Y75533710D01*
X70073651Y75703133D01*
X69954562Y75813218D01*
X69922622Y75842743D01*
X69922620Y75842745D01*
X69918381Y75846663D01*
X69867471Y75878785D01*
X69744434Y75956416D01*
X69744433Y75956416D01*
X69739554Y75959495D01*
X69543160Y76037848D01*
X69537503Y76038973D01*
X69537497Y76038975D01*
X69341442Y76077972D01*
X69341440Y76077972D01*
X69335775Y76079099D01*
X69330000Y76079175D01*
X69329996Y76079175D01*
X69223976Y76080563D01*
X69124346Y76081867D01*
X69118649Y76080888D01*
X69118648Y76080888D01*
X68921650Y76047038D01*
X68921649Y76047038D01*
X68915953Y76046059D01*
X68717575Y75972873D01*
X68712614Y75969921D01*
X68712613Y75969921D01*
X68547750Y75871838D01*
X68535856Y75864762D01*
X68376881Y75725345D01*
X68245976Y75559292D01*
X68243287Y75554181D01*
X68243285Y75554178D01*
X68229792Y75528531D01*
X68147523Y75372164D01*
X68084820Y75170227D01*
X68059967Y74960246D01*
X68073796Y74749251D01*
X68075217Y74743655D01*
X68075218Y74743650D01*
X68096778Y74658760D01*
X68125845Y74544310D01*
X68214369Y74352286D01*
X68336405Y74179609D01*
X68340539Y74175582D01*
X68477402Y74042256D01*
X68487865Y74032063D01*
X68492661Y74028858D01*
X68492664Y74028856D01*
X68635936Y73933125D01*
X68663677Y73914589D01*
X68668985Y73912308D01*
X68668986Y73912308D01*
X68852650Y73833400D01*
X68852653Y73833399D01*
X68857953Y73831122D01*
X68863582Y73829848D01*
X68863583Y73829848D01*
X69058550Y73785731D01*
X69058553Y73785731D01*
X69064186Y73784456D01*
X69069958Y73784229D01*
X69075687Y73783475D01*
X69075327Y73780743D01*
X69131604Y73761784D01*
X69175950Y73706341D01*
X69183282Y73635724D01*
X69151271Y73572353D01*
X69090081Y73536349D01*
X69080705Y73534368D01*
X69051326Y73529320D01*
X68921650Y73507038D01*
X68921649Y73507038D01*
X68915953Y73506059D01*
X68717575Y73432873D01*
X68712614Y73429921D01*
X68712613Y73429921D01*
X68577577Y73349583D01*
X68535856Y73324762D01*
X68376881Y73185345D01*
X68245976Y73019292D01*
X68243287Y73014181D01*
X68243285Y73014178D01*
X68229792Y72988531D01*
X68147523Y72832164D01*
X68084820Y72630227D01*
X68059967Y72420246D01*
X68073796Y72209251D01*
X68075217Y72203655D01*
X68075218Y72203650D01*
X68107573Y72076255D01*
X68125845Y72004310D01*
X68128262Y71999067D01*
X68174107Y71899621D01*
X68214369Y71812286D01*
X68336405Y71639609D01*
X68340539Y71635582D01*
X68461611Y71517639D01*
X68487865Y71492063D01*
X68492661Y71488858D01*
X68492664Y71488856D01*
X68619500Y71404107D01*
X68663677Y71374589D01*
X68668985Y71372308D01*
X68668986Y71372308D01*
X68852650Y71293400D01*
X68852653Y71293399D01*
X68857953Y71291122D01*
X68863582Y71289848D01*
X68863583Y71289848D01*
X69058550Y71245731D01*
X69058553Y71245731D01*
X69064186Y71244456D01*
X69069958Y71244229D01*
X69075687Y71243475D01*
X69075327Y71240743D01*
X69131604Y71221784D01*
X69175950Y71166341D01*
X69183282Y71095724D01*
X69151271Y71032353D01*
X69090081Y70996349D01*
X69080704Y70994368D01*
X68921650Y70967038D01*
X68921649Y70967038D01*
X68915953Y70966059D01*
X68717575Y70892873D01*
X68712614Y70889921D01*
X68712613Y70889921D01*
X68577577Y70809583D01*
X68535856Y70784762D01*
X68376881Y70645345D01*
X68245976Y70479292D01*
X68243287Y70474181D01*
X68243285Y70474178D01*
X68229792Y70448531D01*
X68147523Y70292164D01*
X68084820Y70090227D01*
X68059967Y69880246D01*
X68073796Y69669251D01*
X68075217Y69663655D01*
X68075218Y69663650D01*
X68124424Y69469905D01*
X68125845Y69464310D01*
X68128262Y69459067D01*
X68174107Y69359621D01*
X68214369Y69272286D01*
X68336405Y69099609D01*
X68340539Y69095582D01*
X68461611Y68977639D01*
X68487865Y68952063D01*
X68492661Y68948858D01*
X68492664Y68948856D01*
X68598162Y68878365D01*
X68663677Y68834589D01*
X68668985Y68832308D01*
X68668986Y68832308D01*
X68852650Y68753400D01*
X68852653Y68753399D01*
X68857953Y68751122D01*
X68863582Y68749848D01*
X68863583Y68749848D01*
X69058550Y68705731D01*
X69058553Y68705731D01*
X69064186Y68704456D01*
X69069958Y68704229D01*
X69075687Y68703475D01*
X69075327Y68700743D01*
X69131604Y68681784D01*
X69175950Y68626341D01*
X69183282Y68555724D01*
X69151271Y68492353D01*
X69090081Y68456349D01*
X69080704Y68454368D01*
X68921650Y68427038D01*
X68921649Y68427038D01*
X68915953Y68426059D01*
X68717575Y68352873D01*
X68712614Y68349921D01*
X68712613Y68349921D01*
X68577577Y68269583D01*
X68535856Y68244762D01*
X68376881Y68105345D01*
X68245976Y67939292D01*
X68167810Y67790723D01*
X68118392Y67739752D01*
X68075033Y67724792D01*
X68068726Y67723844D01*
X68068724Y67723843D01*
X68059416Y67722444D01*
X68053251Y67719484D01*
X68046523Y67718255D01*
X67997285Y67692678D01*
X67993769Y67690921D01*
X67952241Y67670980D01*
X67952237Y67670978D01*
X67943750Y67666902D01*
X67938728Y67662259D01*
X67932659Y67659107D01*
X67927881Y67655026D01*
X67892706Y67619851D01*
X67889141Y67616422D01*
X67849529Y67579805D01*
X67845990Y67573713D01*
X67841031Y67568176D01*
X66776460Y66503605D01*
X66714148Y66469579D01*
X66687365Y66466700D01*
X55036265Y66466700D01*
X54968144Y66486702D01*
X54921651Y66540358D01*
X54911547Y66610632D01*
X54928763Y66654693D01*
X54927219Y66655558D01*
X55027713Y66835002D01*
X55027714Y66835004D01*
X55030537Y66840045D01*
X55032393Y66845512D01*
X55032395Y66845517D01*
X55096647Y67034800D01*
X55098504Y67040270D01*
X55112410Y67136172D01*
X55128314Y67245860D01*
X55128314Y67245862D01*
X55128846Y67249530D01*
X55130429Y67310000D01*
X55111081Y67520560D01*
X55105899Y67538936D01*
X55084046Y67616421D01*
X55053686Y67724069D01*
X55050276Y67730985D01*
X54962719Y67908531D01*
X54960165Y67913710D01*
X54833651Y68083133D01*
X54705006Y68202051D01*
X54682622Y68222743D01*
X54682620Y68222745D01*
X54678381Y68226663D01*
X54499554Y68339495D01*
X54303160Y68417848D01*
X54297503Y68418973D01*
X54297497Y68418975D01*
X54100234Y68458212D01*
X54037324Y68491119D01*
X54002192Y68552814D01*
X54005992Y68623709D01*
X54047517Y68681295D01*
X54106734Y68706487D01*
X54239015Y68725667D01*
X54239019Y68725668D01*
X54244730Y68726496D01*
X54323987Y68753400D01*
X54439483Y68792605D01*
X54439488Y68792607D01*
X54444955Y68794463D01*
X54449998Y68797287D01*
X54624395Y68894954D01*
X54624399Y68894957D01*
X54629442Y68897781D01*
X54792012Y69032988D01*
X54927219Y69195558D01*
X54930043Y69200601D01*
X54930046Y69200605D01*
X55027713Y69375002D01*
X55027714Y69375004D01*
X55030537Y69380045D01*
X55032393Y69385512D01*
X55032395Y69385517D01*
X55094525Y69568548D01*
X55098504Y69580270D01*
X55112410Y69676172D01*
X55128314Y69785860D01*
X55128314Y69785862D01*
X55128846Y69789530D01*
X55130429Y69850000D01*
X55111081Y70060560D01*
X55105899Y70078936D01*
X55055255Y70258504D01*
X55053686Y70264069D01*
X55042553Y70286646D01*
X54962719Y70448531D01*
X54960165Y70453710D01*
X54833651Y70623133D01*
X54678381Y70766663D01*
X54603244Y70814071D01*
X54504434Y70876416D01*
X54504433Y70876416D01*
X54499554Y70879495D01*
X54303160Y70957848D01*
X54297503Y70958973D01*
X54297497Y70958975D01*
X54100234Y70998212D01*
X54037324Y71031119D01*
X54002192Y71092814D01*
X54005992Y71163709D01*
X54047517Y71221295D01*
X54106734Y71246487D01*
X54239015Y71265667D01*
X54239019Y71265668D01*
X54244730Y71266496D01*
X54304435Y71286763D01*
X54439483Y71332605D01*
X54439488Y71332607D01*
X54444955Y71334463D01*
X54449998Y71337287D01*
X54624395Y71434954D01*
X54624399Y71434957D01*
X54629442Y71437781D01*
X54792012Y71572988D01*
X54927219Y71735558D01*
X54930043Y71740601D01*
X54930046Y71740605D01*
X55027713Y71915002D01*
X55027714Y71915004D01*
X55030537Y71920045D01*
X55032393Y71925512D01*
X55032395Y71925517D01*
X55094525Y72108548D01*
X55098504Y72120270D01*
X55128846Y72329530D01*
X55130429Y72390000D01*
X55111081Y72600560D01*
X55053686Y72804069D01*
X55047554Y72816505D01*
X54962719Y72988531D01*
X54960165Y72993710D01*
X54833651Y73163133D01*
X54678381Y73306663D01*
X54499554Y73419495D01*
X54303160Y73497848D01*
X54297503Y73498973D01*
X54297497Y73498975D01*
X54141916Y73529921D01*
X54079006Y73562828D01*
X54043874Y73624523D01*
X54047674Y73695418D01*
X54089199Y73753004D01*
X54155266Y73778998D01*
X54166497Y73779500D01*
X54808218Y73779500D01*
X54812768Y73780170D01*
X54812771Y73780170D01*
X54867426Y73788216D01*
X54867427Y73788216D01*
X54877112Y73789642D01*
X54927008Y73814140D01*
X54972507Y73836478D01*
X54972509Y73836479D01*
X54981855Y73841068D01*
X55052971Y73912308D01*
X55056935Y73916279D01*
X55056935Y73916280D01*
X55064293Y73923650D01*
X55115536Y74028482D01*
X55125500Y74096782D01*
X55125500Y75763218D01*
X55118818Y75808612D01*
X55116784Y75822426D01*
X55116784Y75822427D01*
X55115358Y75832112D01*
X55063932Y75936855D01*
X54981350Y76019293D01*
X54947769Y76035708D01*
X54930686Y76044058D01*
X54876518Y76070536D01*
X54846027Y76074984D01*
X54812744Y76079840D01*
X54812740Y76079840D01*
X54808218Y76080500D01*
X53141782Y76080500D01*
X53137232Y76079830D01*
X53137229Y76079830D01*
X53082574Y76071784D01*
X53082573Y76071784D01*
X53072888Y76070358D01*
X53022992Y76045860D01*
X52977493Y76023522D01*
X52977491Y76023521D01*
X52968145Y76018932D01*
X52885707Y75936350D01*
X52881134Y75926994D01*
X52881133Y75926993D01*
X52854627Y75872767D01*
X52806741Y75820350D01*
X52738119Y75802143D01*
X52670547Y75823927D01*
X52625928Y75878238D01*
X52625358Y75882112D01*
X52621046Y75890894D01*
X52621045Y75890898D01*
X52578522Y75977507D01*
X52578521Y75977509D01*
X52573932Y75986855D01*
X52491350Y76069293D01*
X52465627Y76081867D01*
X52449540Y76089730D01*
X52386518Y76120536D01*
X52356027Y76124984D01*
X52322744Y76129840D01*
X52322740Y76129840D01*
X52318218Y76130500D01*
X50551782Y76130500D01*
X50547232Y76129830D01*
X50547229Y76129830D01*
X50492574Y76121784D01*
X50492573Y76121784D01*
X50482888Y76120358D01*
X50432992Y76095860D01*
X50387493Y76073522D01*
X50387491Y76073521D01*
X50378145Y76068932D01*
X50295707Y75986350D01*
X50291134Y75976994D01*
X50291133Y75976993D01*
X50282580Y75959495D01*
X50244464Y75881518D01*
X50234500Y75813218D01*
X50234500Y74046782D01*
X50235170Y74042232D01*
X50235170Y74042229D01*
X50243216Y73987574D01*
X50244642Y73977888D01*
X50248958Y73969098D01*
X50276726Y73912541D01*
X50296068Y73873145D01*
X50378650Y73790707D01*
X50393062Y73783662D01*
X50445477Y73735779D01*
X50463685Y73667157D01*
X50441902Y73599584D01*
X50426823Y73581368D01*
X49599602Y72754147D01*
X49537290Y72720121D01*
X49466475Y72725186D01*
X49409639Y72767733D01*
X49389238Y72809039D01*
X49385565Y72822064D01*
X49287980Y73019947D01*
X49181058Y73163133D01*
X49159420Y73192109D01*
X49159420Y73192110D01*
X49155967Y73196733D01*
X49041286Y73302743D01*
X48998189Y73342582D01*
X48998186Y73342584D01*
X48993949Y73346501D01*
X48807350Y73464236D01*
X48767348Y73480195D01*
X48751620Y73486470D01*
X48695760Y73530291D01*
X48672460Y73597355D01*
X48689116Y73666370D01*
X48740440Y73715424D01*
X48798310Y73729500D01*
X49143218Y73729500D01*
X49147768Y73730170D01*
X49147771Y73730170D01*
X49202426Y73738216D01*
X49202427Y73738216D01*
X49212112Y73739642D01*
X49286479Y73776154D01*
X49307507Y73786478D01*
X49307509Y73786479D01*
X49316855Y73791068D01*
X49399293Y73873650D01*
X49450536Y73978482D01*
X49457744Y74027888D01*
X49459840Y74042256D01*
X49459840Y74042260D01*
X49460500Y74046782D01*
X49460500Y75813218D01*
X49459145Y75822426D01*
X49451784Y75872426D01*
X49451784Y75872427D01*
X49450358Y75882112D01*
X49398932Y75986855D01*
X49316350Y76069293D01*
X49290627Y76081867D01*
X49274540Y76089730D01*
X49211518Y76120536D01*
X49181027Y76124984D01*
X49147744Y76129840D01*
X49147740Y76129840D01*
X49143218Y76130500D01*
X47376782Y76130500D01*
X47372232Y76129830D01*
X47372229Y76129830D01*
X47317574Y76121784D01*
X47317573Y76121784D01*
X47307888Y76120358D01*
X47257992Y76095860D01*
X47212493Y76073522D01*
X47212491Y76073521D01*
X47203145Y76068932D01*
X47120707Y75986350D01*
X47116134Y75976994D01*
X47116133Y75976993D01*
X47107580Y75959495D01*
X47069464Y75881518D01*
X47059500Y75813218D01*
X47059500Y74046782D01*
X47060170Y74042232D01*
X47060170Y74042229D01*
X47068216Y73987574D01*
X47069642Y73977888D01*
X47073958Y73969098D01*
X47101726Y73912541D01*
X47121068Y73873145D01*
X47203650Y73790707D01*
X47213006Y73786134D01*
X47213007Y73786133D01*
X47216438Y73784456D01*
X47308482Y73739464D01*
X47338973Y73735016D01*
X47372256Y73730160D01*
X47372260Y73730160D01*
X47376782Y73729500D01*
X47716570Y73729500D01*
X47784691Y73709498D01*
X47831184Y73655842D01*
X47841288Y73585568D01*
X47811794Y73520988D01*
X47760180Y73485288D01*
X47751382Y73482042D01*
X47740957Y73478196D01*
X47735996Y73475244D01*
X47735995Y73475244D01*
X47608001Y73399095D01*
X47551341Y73365386D01*
X47385457Y73219910D01*
X47248863Y73046640D01*
X47146131Y72851380D01*
X47080703Y72640667D01*
X47054770Y72421560D01*
X47069200Y72201396D01*
X47070621Y72195800D01*
X47070622Y72195795D01*
X47122090Y71993143D01*
X47123511Y71987548D01*
X47125928Y71982306D01*
X47125928Y71982305D01*
X47164046Y71899621D01*
X47215883Y71787179D01*
X47343222Y71606998D01*
X47501264Y71453039D01*
X47506060Y71449834D01*
X47506063Y71449832D01*
X47590261Y71393573D01*
X47684717Y71330460D01*
X47690020Y71328182D01*
X47690023Y71328180D01*
X47880169Y71246487D01*
X47887436Y71243365D01*
X47893071Y71242090D01*
X47893074Y71242089D01*
X47894484Y71241770D01*
X47895083Y71241436D01*
X47898562Y71240306D01*
X47898340Y71239623D01*
X47956511Y71207228D01*
X47990016Y71144634D01*
X47984362Y71073863D01*
X47941344Y71017384D01*
X47910287Y71000665D01*
X47746376Y70940196D01*
X47746368Y70940192D01*
X47740957Y70938196D01*
X47735996Y70935244D01*
X47735995Y70935244D01*
X47566585Y70834455D01*
X47551341Y70825386D01*
X47385457Y70679910D01*
X47248863Y70506640D01*
X47146131Y70311380D01*
X47080703Y70100667D01*
X47054770Y69881560D01*
X47069200Y69661396D01*
X47070621Y69655800D01*
X47070622Y69655795D01*
X47122090Y69453143D01*
X47123511Y69447548D01*
X47125928Y69442306D01*
X47125928Y69442305D01*
X47164046Y69359621D01*
X47215883Y69247179D01*
X47343222Y69066998D01*
X47501264Y68913039D01*
X47506060Y68909834D01*
X47506063Y68909832D01*
X47590261Y68853573D01*
X47684717Y68790460D01*
X47690020Y68788182D01*
X47690023Y68788180D01*
X47847174Y68720663D01*
X47887436Y68703365D01*
X47893071Y68702090D01*
X47893074Y68702089D01*
X47894484Y68701770D01*
X47895083Y68701436D01*
X47898562Y68700306D01*
X47898340Y68699623D01*
X47956511Y68667228D01*
X47990016Y68604634D01*
X47984362Y68533863D01*
X47941344Y68477384D01*
X47910287Y68460665D01*
X47746376Y68400196D01*
X47746368Y68400192D01*
X47740957Y68398196D01*
X47735996Y68395244D01*
X47735995Y68395244D01*
X47587098Y68306659D01*
X47551341Y68285386D01*
X47385457Y68139910D01*
X47248863Y67966640D01*
X47146131Y67771380D01*
X47080703Y67560667D01*
X47054770Y67341560D01*
X47069200Y67121396D01*
X47070621Y67115800D01*
X47070622Y67115795D01*
X47122090Y66913143D01*
X47123511Y66907548D01*
X47125928Y66902306D01*
X47125928Y66902305D01*
X47164046Y66819621D01*
X47215883Y66707179D01*
X47343222Y66526998D01*
X47501264Y66373039D01*
X47506060Y66369834D01*
X47506063Y66369832D01*
X47590261Y66313573D01*
X47684717Y66250460D01*
X47690020Y66248182D01*
X47690023Y66248180D01*
X47839934Y66183773D01*
X47894405Y66138833D01*
X47899019Y66132044D01*
X47903098Y66123550D01*
X47907741Y66118528D01*
X47910893Y66112459D01*
X47914974Y66107681D01*
X47915353Y66107302D01*
X47919575Y66101037D01*
X47918587Y66100372D01*
X47946344Y66044415D01*
X47938499Y65973853D01*
X47893751Y65918734D01*
X47865876Y65904281D01*
X47746376Y65860196D01*
X47746368Y65860192D01*
X47740957Y65858196D01*
X47735996Y65855244D01*
X47735995Y65855244D01*
X47608001Y65779095D01*
X47551341Y65745386D01*
X47385457Y65599910D01*
X47248863Y65426640D01*
X47146131Y65231380D01*
X47080703Y65020667D01*
X47054770Y64801560D01*
X47069200Y64581396D01*
X47070621Y64575800D01*
X47070622Y64575795D01*
X47122090Y64373143D01*
X47123511Y64367548D01*
X47125928Y64362306D01*
X47125928Y64362305D01*
X47164046Y64279621D01*
X47215883Y64167179D01*
X47343222Y63986998D01*
X47501264Y63833039D01*
X47506060Y63829834D01*
X47506063Y63829832D01*
X47592976Y63771759D01*
X47684717Y63710460D01*
X47690020Y63708182D01*
X47690023Y63708180D01*
X47875514Y63628487D01*
X47887436Y63623365D01*
X47893071Y63622090D01*
X47893074Y63622089D01*
X47894484Y63621770D01*
X47895083Y63621436D01*
X47898562Y63620306D01*
X47898340Y63619623D01*
X47956511Y63587228D01*
X47990016Y63524634D01*
X47984362Y63453863D01*
X47941344Y63397384D01*
X47910287Y63380665D01*
X47746376Y63320196D01*
X47746368Y63320192D01*
X47740957Y63318196D01*
X47735996Y63315244D01*
X47735995Y63315244D01*
X47563146Y63212409D01*
X47551341Y63205386D01*
X47385457Y63059910D01*
X47248863Y62886640D01*
X47146131Y62691380D01*
X47080703Y62480667D01*
X47054770Y62261560D01*
X47069200Y62041396D01*
X47070621Y62035800D01*
X47070622Y62035795D01*
X47118408Y61847640D01*
X47123511Y61827548D01*
X47125928Y61822306D01*
X47125928Y61822305D01*
X47213464Y61632425D01*
X47213465Y61632424D01*
X47215883Y61627179D01*
X47219214Y61622466D01*
X47219219Y61622457D01*
X47254946Y61571906D01*
X47277928Y61504732D01*
X47260944Y61435797D01*
X47241145Y61410090D01*
X46293178Y60462123D01*
X46282088Y60452268D01*
X46264534Y60438430D01*
X46264530Y60438426D01*
X46257135Y60432596D01*
X46225543Y60386885D01*
X46223310Y60383762D01*
X46190338Y60339121D01*
X46188073Y60332671D01*
X46184183Y60327043D01*
X46181345Y60318068D01*
X46181342Y60318063D01*
X46167456Y60274154D01*
X46166203Y60270397D01*
X46150943Y60226945D01*
X46150942Y60226942D01*
X46147823Y60218059D01*
X46147554Y60211223D01*
X46145493Y60204705D01*
X46145000Y60198441D01*
X46145000Y60148680D01*
X46144903Y60143734D01*
X46142786Y60089848D01*
X46144592Y60083037D01*
X46145000Y60075622D01*
X46145000Y58004752D01*
X46124998Y57936631D01*
X46071342Y57890138D01*
X46001068Y57880034D01*
X45936488Y57909528D01*
X45926473Y57919354D01*
X45923651Y57923133D01*
X45892305Y57952109D01*
X45772622Y58062743D01*
X45772620Y58062745D01*
X45768381Y58066663D01*
X45589554Y58179495D01*
X45393160Y58257848D01*
X45387503Y58258973D01*
X45387497Y58258975D01*
X45191442Y58297972D01*
X45191440Y58297972D01*
X45185775Y58299099D01*
X45180000Y58299175D01*
X45179996Y58299175D01*
X45073976Y58300563D01*
X44974346Y58301867D01*
X44968649Y58300888D01*
X44968648Y58300888D01*
X44771650Y58267038D01*
X44771649Y58267038D01*
X44765953Y58266059D01*
X44567575Y58192873D01*
X44562614Y58189921D01*
X44562613Y58189921D01*
X44427577Y58109583D01*
X44385856Y58084762D01*
X44226881Y57945345D01*
X44095976Y57779292D01*
X44093284Y57774176D01*
X44093283Y57774174D01*
X44012201Y57620063D01*
X43962782Y57569090D01*
X43893649Y57552927D01*
X43826753Y57576706D01*
X43786498Y57625480D01*
X43704414Y57801511D01*
X43698931Y57811006D01*
X43662491Y57863048D01*
X43652012Y57871424D01*
X43638566Y57864356D01*
X41849923Y56075713D01*
X41843493Y56063938D01*
X41852789Y56051923D01*
X41903994Y56016069D01*
X41913489Y56010586D01*
X42110947Y55918510D01*
X42121239Y55914764D01*
X42331688Y55858375D01*
X42342481Y55856472D01*
X42559525Y55837483D01*
X42570474Y55837483D01*
X42667778Y55845996D01*
X42737383Y55832007D01*
X42788376Y55782607D01*
X42804566Y55713481D01*
X42780814Y55646576D01*
X42767855Y55631380D01*
X40261358Y53124882D01*
X40257549Y53121229D01*
X40211844Y53079201D01*
X40188901Y53042198D01*
X40182200Y53032448D01*
X40155888Y52997783D01*
X40150354Y52983805D01*
X40140293Y52963801D01*
X40132365Y52951014D01*
X40129968Y52942763D01*
X40129967Y52942761D01*
X40120225Y52909228D01*
X40116380Y52897998D01*
X40100364Y52857547D01*
X40099466Y52849006D01*
X40099466Y52849005D01*
X40098792Y52842592D01*
X40094480Y52820617D01*
X40090285Y52806175D01*
X40089500Y52795485D01*
X40089500Y52760783D01*
X40088810Y52747613D01*
X40084599Y52707546D01*
X40086031Y52699081D01*
X40086031Y52699072D01*
X40087735Y52689000D01*
X40089500Y52667987D01*
X40089500Y14885215D01*
X40069498Y14817094D01*
X40052595Y14796120D01*
X38538881Y13282405D01*
X38476569Y13248380D01*
X38449786Y13245500D01*
X3231500Y13245500D01*
X3163379Y13265502D01*
X3116886Y13319158D01*
X3105500Y13371500D01*
X3105500Y13578218D01*
X3096871Y13636838D01*
X3096784Y13637426D01*
X3096784Y13637427D01*
X3095358Y13647112D01*
X3043932Y13751855D01*
X2961350Y13834293D01*
X2856518Y13885536D01*
X2826027Y13889984D01*
X2792744Y13894840D01*
X2792740Y13894840D01*
X2788218Y13895500D01*
X1021782Y13895500D01*
X1017232Y13894830D01*
X1017229Y13894830D01*
X962574Y13886784D01*
X962573Y13886784D01*
X952888Y13885358D01*
X902992Y13860860D01*
X857493Y13838522D01*
X857491Y13838521D01*
X848145Y13833932D01*
X765707Y13751350D01*
X714464Y13646518D01*
X704500Y13578218D01*
X704500Y11811782D01*
X705170Y11807232D01*
X705170Y11807229D01*
X713216Y11752574D01*
X714642Y11742888D01*
X766068Y11638145D01*
X848650Y11555707D01*
X953482Y11504464D01*
X983973Y11500016D01*
X1017256Y11495160D01*
X1017260Y11495160D01*
X1021782Y11494500D01*
X1049508Y11494500D01*
X1117629Y11474498D01*
X1164122Y11420842D01*
X1174226Y11350568D01*
X1144732Y11285988D01*
X1125161Y11267740D01*
X1004433Y11177095D01*
X996726Y11170252D01*
X849590Y11016283D01*
X843104Y11008273D01*
X723098Y10832351D01*
X718000Y10823377D01*
X628338Y10630217D01*
X624775Y10620530D01*
X569389Y10420817D01*
X0Y10420817D01*
X0Y13947810D01*
X20002Y14015931D01*
X36905Y14036905D01*
X463095Y14463095D01*
X525407Y14497121D01*
X552190Y14500000D01*
X37000000Y14500000D01*
X37733571Y15233571D01*
X37734140Y15233002D01*
X37735265Y15234665D01*
X37739152Y15237175D01*
X37745600Y15245354D01*
X37748047Y15247581D01*
X37751770Y15251770D01*
X38000000Y15500000D01*
X38000000Y57144525D01*
X41252483Y57144525D01*
X41271472Y56927481D01*
X41273375Y56916688D01*
X41329764Y56706239D01*
X41333510Y56695947D01*
X41425586Y56498489D01*
X41431069Y56488994D01*
X41467509Y56436952D01*
X41477988Y56428576D01*
X41491434Y56435644D01*
X42192978Y57137188D01*
X42200592Y57151132D01*
X42200461Y57152965D01*
X42196210Y57159580D01*
X41490713Y57865077D01*
X41478938Y57871507D01*
X41466923Y57862211D01*
X41431069Y57811006D01*
X41425586Y57801511D01*
X41333510Y57604053D01*
X41329764Y57593761D01*
X41273375Y57383312D01*
X41271472Y57372519D01*
X41252483Y57155475D01*
X41252483Y57144525D01*
X38000000Y57144525D01*
X38000000Y58237012D01*
X41843576Y58237012D01*
X41850644Y58223566D01*
X42552188Y57522022D01*
X42566132Y57514408D01*
X42567965Y57514539D01*
X42574580Y57518790D01*
X43280077Y58224287D01*
X43286507Y58236062D01*
X43277211Y58248077D01*
X43226006Y58283931D01*
X43216511Y58289414D01*
X43019053Y58381490D01*
X43008761Y58385236D01*
X42798312Y58441625D01*
X42787519Y58443528D01*
X42570475Y58462517D01*
X42559525Y58462517D01*
X42342481Y58443528D01*
X42331688Y58441625D01*
X42121239Y58385236D01*
X42110947Y58381490D01*
X41913489Y58289414D01*
X41903994Y58283931D01*
X41851952Y58247491D01*
X41843576Y58237012D01*
X38000000Y58237012D01*
X38000000Y76447810D01*
X38020002Y76515931D01*
X38036905Y76536905D01*
X38463095Y76963095D01*
X38525407Y76997121D01*
X38552190Y77000000D01*
X82447810Y77000000D01*
X82515931Y76979998D01*
G37*
G04 #@! TD.AperFunction*
G04 #@! TA.AperFunction,Conductor*
G36*
X70507902Y29031574D02*
G01*
X70563814Y28987820D01*
X70583474Y28945505D01*
X70617090Y28813143D01*
X70618511Y28807548D01*
X70620928Y28802306D01*
X70620928Y28802305D01*
X70659046Y28719621D01*
X70710883Y28607179D01*
X70772080Y28520588D01*
X70795060Y28453415D01*
X70778076Y28384480D01*
X70758277Y28358773D01*
X70143347Y27743844D01*
X70081035Y27709819D01*
X70010219Y27714884D01*
X69981981Y27729727D01*
X69876007Y27803931D01*
X69866511Y27809414D01*
X69669050Y27901491D01*
X69653783Y27907048D01*
X69596611Y27949142D01*
X69571273Y28015463D01*
X69585814Y28084955D01*
X69635616Y28135554D01*
X69656368Y28144759D01*
X69684955Y28154463D01*
X69689998Y28157287D01*
X69864395Y28254954D01*
X69864399Y28254957D01*
X69869442Y28257781D01*
X70032012Y28392988D01*
X70167219Y28555558D01*
X70170043Y28560601D01*
X70170046Y28560605D01*
X70267713Y28735002D01*
X70267714Y28735004D01*
X70270537Y28740045D01*
X70272393Y28745512D01*
X70272395Y28745517D01*
X70336645Y28934793D01*
X70336647Y28934800D01*
X70338504Y28940270D01*
X70339098Y28944366D01*
X70374184Y29005473D01*
X70437211Y29038155D01*
X70507902Y29031574D01*
G37*
G04 #@! TD.AperFunction*
G04 #@! TA.AperFunction,Conductor*
G36*
X57349915Y49235698D02*
G01*
X57396408Y49182042D01*
X57400120Y49173000D01*
X57409270Y49147996D01*
X57497423Y49016812D01*
X57614322Y48910441D01*
X57620995Y48906818D01*
X57620999Y48906815D01*
X57739134Y48842674D01*
X57753220Y48835026D01*
X57906098Y48794919D01*
X57989448Y48793609D01*
X58056532Y48792555D01*
X58056535Y48792555D01*
X58064129Y48792436D01*
X58218191Y48827721D01*
X58359390Y48898737D01*
X58479573Y49001383D01*
X58491394Y49017834D01*
X58547387Y49061481D01*
X58618090Y49067928D01*
X58682811Y49033403D01*
X59556595Y48159619D01*
X59590621Y48097307D01*
X59593500Y48070524D01*
X59593500Y45956521D01*
X59592627Y45941713D01*
X59588892Y45910156D01*
X59590584Y45900894D01*
X59590584Y45900885D01*
X59598863Y45855559D01*
X59599514Y45851651D01*
X59607756Y45796827D01*
X59610716Y45790663D01*
X59611945Y45783934D01*
X59637522Y45734696D01*
X59639279Y45731180D01*
X59659220Y45689652D01*
X59659222Y45689648D01*
X59663298Y45681161D01*
X59667941Y45676139D01*
X59671093Y45670070D01*
X59675174Y45665292D01*
X59710349Y45630117D01*
X59713778Y45626552D01*
X59750395Y45586940D01*
X59756487Y45583401D01*
X59762024Y45578442D01*
X60623395Y44717071D01*
X60657421Y44654759D01*
X60660300Y44627976D01*
X60660300Y42988837D01*
X60640298Y42920716D01*
X60592090Y42876871D01*
X60522499Y42840952D01*
X60511064Y42835050D01*
X60505342Y42830058D01*
X60505340Y42830057D01*
X60496956Y42822743D01*
X60391962Y42731151D01*
X60360967Y42687049D01*
X60308495Y42612389D01*
X60301082Y42601842D01*
X60243670Y42454587D01*
X60242679Y42447058D01*
X60226487Y42324069D01*
X60223040Y42297888D01*
X60228275Y42250474D01*
X60238190Y42160667D01*
X60240384Y42140792D01*
X60242994Y42133661D01*
X60242994Y42133659D01*
X60258378Y42091619D01*
X60294699Y41992367D01*
X60298936Y41986061D01*
X60298938Y41986058D01*
X60325869Y41945981D01*
X60382852Y41861183D01*
X60499751Y41754812D01*
X60506428Y41751187D01*
X60506429Y41751186D01*
X60546716Y41729312D01*
X60597038Y41679229D01*
X60612294Y41609891D01*
X60587642Y41543312D01*
X60575689Y41529486D01*
X60549185Y41502982D01*
X60486873Y41468956D01*
X60424358Y41473723D01*
X60423919Y41471974D01*
X60303168Y41502305D01*
X60270630Y41510478D01*
X60263032Y41510518D01*
X60263030Y41510518D01*
X60191605Y41510892D01*
X60112581Y41511306D01*
X60105194Y41509532D01*
X60105190Y41509532D01*
X60000424Y41484379D01*
X59958897Y41474409D01*
X59952153Y41470928D01*
X59952150Y41470927D01*
X59882547Y41435002D01*
X59818450Y41401919D01*
X59699348Y41298020D01*
X59608468Y41168711D01*
X59551056Y41021456D01*
X59549397Y41008856D01*
X59531456Y40872577D01*
X59530426Y40864757D01*
X59536535Y40809425D01*
X59546573Y40718505D01*
X59547770Y40707661D01*
X59602085Y40559236D01*
X59606322Y40552930D01*
X59606324Y40552927D01*
X59641116Y40501153D01*
X59690238Y40428052D01*
X59705152Y40414481D01*
X59742074Y40353844D01*
X59740353Y40282868D01*
X59709448Y40232193D01*
X56770860Y37293605D01*
X56708548Y37259579D01*
X56681765Y37256700D01*
X55125809Y37256700D01*
X55057688Y37276702D01*
X55012803Y37326971D01*
X55003847Y37345133D01*
X54960165Y37433710D01*
X54833651Y37603133D01*
X54678381Y37746663D01*
X54499554Y37859495D01*
X54303160Y37937848D01*
X54297503Y37938973D01*
X54297497Y37938975D01*
X54100234Y37978212D01*
X54037324Y38011119D01*
X54002192Y38072814D01*
X54005992Y38143709D01*
X54047517Y38201295D01*
X54106734Y38226487D01*
X54239015Y38245667D01*
X54239019Y38245668D01*
X54244730Y38246496D01*
X54304562Y38266806D01*
X54439483Y38312605D01*
X54439488Y38312607D01*
X54444955Y38314463D01*
X54449998Y38317287D01*
X54624395Y38414954D01*
X54624399Y38414957D01*
X54629442Y38417781D01*
X54792012Y38552988D01*
X54927219Y38715558D01*
X54930043Y38720601D01*
X54930046Y38720605D01*
X55027713Y38895002D01*
X55027714Y38895004D01*
X55030537Y38900045D01*
X55032393Y38905512D01*
X55032395Y38905517D01*
X55094525Y39088548D01*
X55098504Y39100270D01*
X55112410Y39196172D01*
X55128314Y39305860D01*
X55128314Y39305862D01*
X55128846Y39309530D01*
X55130429Y39370000D01*
X55111081Y39580560D01*
X55105899Y39598936D01*
X55055255Y39778504D01*
X55053686Y39784069D01*
X55042553Y39806646D01*
X54962719Y39968531D01*
X54960165Y39973710D01*
X54833651Y40143133D01*
X54692410Y40273695D01*
X54682622Y40282743D01*
X54682620Y40282745D01*
X54678381Y40286663D01*
X54499554Y40399495D01*
X54311557Y40474498D01*
X54308524Y40475708D01*
X54303160Y40477848D01*
X54297503Y40478973D01*
X54297497Y40478975D01*
X54100234Y40518212D01*
X54037324Y40551119D01*
X54002192Y40612814D01*
X54005992Y40683709D01*
X54047517Y40741295D01*
X54106734Y40766487D01*
X54239015Y40785667D01*
X54239019Y40785668D01*
X54244730Y40786496D01*
X54304435Y40806763D01*
X54439483Y40852605D01*
X54439488Y40852607D01*
X54444955Y40854463D01*
X54449998Y40857287D01*
X54624395Y40954954D01*
X54624399Y40954957D01*
X54629442Y40957781D01*
X54792012Y41092988D01*
X54927219Y41255558D01*
X54930043Y41260601D01*
X54930046Y41260605D01*
X55027713Y41435002D01*
X55027714Y41435004D01*
X55030537Y41440045D01*
X55032393Y41445512D01*
X55032395Y41445517D01*
X55096647Y41634800D01*
X55098504Y41640270D01*
X55099577Y41647665D01*
X55128314Y41845860D01*
X55128314Y41845862D01*
X55128846Y41849530D01*
X55130429Y41910000D01*
X55111081Y42120560D01*
X55105899Y42138936D01*
X55061548Y42296191D01*
X55053686Y42324069D01*
X55042553Y42346646D01*
X54962719Y42508531D01*
X54960165Y42513710D01*
X54833651Y42683133D01*
X54678381Y42826663D01*
X54673002Y42830057D01*
X54504434Y42936416D01*
X54504433Y42936416D01*
X54499554Y42939495D01*
X54303160Y43017848D01*
X54297503Y43018973D01*
X54297497Y43018975D01*
X54100234Y43058212D01*
X54037324Y43091119D01*
X54002192Y43152814D01*
X54005992Y43223709D01*
X54047517Y43281295D01*
X54106734Y43306487D01*
X54239015Y43325667D01*
X54239019Y43325668D01*
X54244730Y43326496D01*
X54304936Y43346933D01*
X54439483Y43392605D01*
X54439488Y43392607D01*
X54444955Y43394463D01*
X54449998Y43397287D01*
X54624395Y43494954D01*
X54624399Y43494957D01*
X54629442Y43497781D01*
X54792012Y43632988D01*
X54927219Y43795558D01*
X54930043Y43800601D01*
X54930046Y43800605D01*
X55027713Y43975002D01*
X55027714Y43975004D01*
X55030537Y43980045D01*
X55032393Y43985512D01*
X55032395Y43985517D01*
X55096647Y44174800D01*
X55098504Y44180270D01*
X55099577Y44187665D01*
X55128314Y44385860D01*
X55128314Y44385862D01*
X55128846Y44389530D01*
X55130429Y44450000D01*
X55111081Y44660560D01*
X55105899Y44678936D01*
X55055255Y44858504D01*
X55053686Y44864069D01*
X55042259Y44887242D01*
X54962719Y45048531D01*
X54960165Y45053710D01*
X54833651Y45223133D01*
X54678381Y45366663D01*
X54610357Y45409583D01*
X54504434Y45476416D01*
X54504433Y45476416D01*
X54499554Y45479495D01*
X54303160Y45557848D01*
X54297503Y45558973D01*
X54297497Y45558975D01*
X54100234Y45598212D01*
X54037324Y45631119D01*
X54002192Y45692814D01*
X54005992Y45763709D01*
X54047517Y45821295D01*
X54106734Y45846487D01*
X54239015Y45865667D01*
X54239019Y45865668D01*
X54244730Y45866496D01*
X54304435Y45886763D01*
X54439483Y45932605D01*
X54439488Y45932607D01*
X54444955Y45934463D01*
X54450289Y45937450D01*
X54624395Y46034954D01*
X54624399Y46034957D01*
X54629442Y46037781D01*
X54792012Y46172988D01*
X54927219Y46335558D01*
X54930043Y46340601D01*
X54930046Y46340605D01*
X55027713Y46515002D01*
X55027714Y46515004D01*
X55030537Y46520045D01*
X55032393Y46525512D01*
X55032395Y46525517D01*
X55096647Y46714800D01*
X55098504Y46720270D01*
X55112410Y46816172D01*
X55128314Y46925860D01*
X55128314Y46925862D01*
X55128846Y46929530D01*
X55130429Y46990000D01*
X55111081Y47200560D01*
X55105899Y47218936D01*
X55088786Y47279612D01*
X55053686Y47404069D01*
X55050977Y47409564D01*
X54962719Y47588531D01*
X54960165Y47593710D01*
X54833651Y47763133D01*
X54694527Y47891738D01*
X54682622Y47902743D01*
X54682620Y47902745D01*
X54678381Y47906663D01*
X54610357Y47949583D01*
X54504434Y48016416D01*
X54504433Y48016416D01*
X54499554Y48019495D01*
X54303160Y48097848D01*
X54297503Y48098973D01*
X54297497Y48098975D01*
X54100234Y48138212D01*
X54037324Y48171119D01*
X54002192Y48232814D01*
X54005992Y48303709D01*
X54047517Y48361295D01*
X54106734Y48386487D01*
X54239015Y48405667D01*
X54239019Y48405668D01*
X54244730Y48406496D01*
X54323987Y48433400D01*
X54439483Y48472605D01*
X54439488Y48472607D01*
X54444955Y48474463D01*
X54510618Y48511236D01*
X54624395Y48574954D01*
X54624399Y48574957D01*
X54629442Y48577781D01*
X54792012Y48712988D01*
X54927219Y48875558D01*
X54930043Y48880601D01*
X54930046Y48880605D01*
X55027713Y49055002D01*
X55027714Y49055004D01*
X55030537Y49060045D01*
X55032393Y49065512D01*
X55032395Y49065517D01*
X55067930Y49170201D01*
X55108767Y49228278D01*
X55174520Y49255056D01*
X55187243Y49255700D01*
X57281794Y49255700D01*
X57349915Y49235698D01*
G37*
G04 #@! TD.AperFunction*
G04 #@! TA.AperFunction,Conductor*
G36*
X68065887Y56806976D02*
G01*
X68122723Y56764429D01*
X68136281Y56741671D01*
X68182189Y56642089D01*
X68214369Y56572286D01*
X68336405Y56399609D01*
X68487865Y56252063D01*
X68549663Y56210771D01*
X68553379Y56208288D01*
X68598906Y56153810D01*
X68607753Y56083367D01*
X68577112Y56019323D01*
X68554475Y55999552D01*
X68546250Y55995602D01*
X68541228Y55990959D01*
X68535159Y55987807D01*
X68530381Y55983726D01*
X68495206Y55948551D01*
X68491641Y55945122D01*
X68452029Y55908505D01*
X68448490Y55902413D01*
X68443531Y55896876D01*
X67072478Y54525823D01*
X67061388Y54515968D01*
X67043834Y54502130D01*
X67043830Y54502126D01*
X67036435Y54496296D01*
X67004843Y54450585D01*
X67002610Y54447462D01*
X66969638Y54402821D01*
X66967373Y54396371D01*
X66963483Y54390743D01*
X66960645Y54381768D01*
X66960642Y54381763D01*
X66946756Y54337854D01*
X66945508Y54334113D01*
X66943554Y54328548D01*
X66930243Y54290645D01*
X66930242Y54290642D01*
X66927123Y54281759D01*
X66926854Y54274923D01*
X66924793Y54268405D01*
X66924300Y54262141D01*
X66924300Y54212380D01*
X66924203Y54207434D01*
X66922086Y54153548D01*
X66923892Y54146737D01*
X66924300Y54139322D01*
X66924300Y49319646D01*
X66904298Y49251525D01*
X66881129Y49224697D01*
X66867887Y49213146D01*
X66867884Y49213142D01*
X66862162Y49208151D01*
X66771282Y49078842D01*
X66713870Y48931587D01*
X66711086Y48910441D01*
X66695566Y48792555D01*
X66693240Y48774888D01*
X66701912Y48696340D01*
X66708564Y48636090D01*
X66710584Y48617792D01*
X66713194Y48610661D01*
X66713194Y48610659D01*
X66725226Y48577781D01*
X66764899Y48469367D01*
X66769136Y48463061D01*
X66769138Y48463058D01*
X66790599Y48431122D01*
X66853052Y48338183D01*
X66969951Y48231812D01*
X66976624Y48228189D01*
X66976628Y48228186D01*
X67102176Y48160020D01*
X67108849Y48156397D01*
X67261727Y48116290D01*
X67298963Y48115705D01*
X67330880Y48115203D01*
X67398678Y48094133D01*
X67444322Y48039753D01*
X67454900Y47989219D01*
X67454900Y45508435D01*
X67434898Y45440314D01*
X67417995Y45419340D01*
X63681983Y41683328D01*
X63619671Y41649302D01*
X63548856Y41654367D01*
X63533929Y41661069D01*
X63491889Y41683328D01*
X63481733Y41688705D01*
X63328444Y41727209D01*
X63320846Y41727249D01*
X63320844Y41727249D01*
X63253840Y41727600D01*
X63185825Y41747959D01*
X63139614Y41801857D01*
X63128500Y41853598D01*
X63128500Y51921565D01*
X63148502Y51989686D01*
X63165405Y52010660D01*
X67932760Y56778015D01*
X67995072Y56812041D01*
X68065887Y56806976D01*
G37*
G04 #@! TD.AperFunction*
G04 #@! TA.AperFunction,Conductor*
G36*
X70450449Y46546735D02*
G01*
X70490607Y46494085D01*
X70536770Y46380397D01*
X70541413Y46371206D01*
X70652694Y46189612D01*
X70658777Y46181301D01*
X70798213Y46020333D01*
X70805580Y46013117D01*
X70969434Y45877084D01*
X70977881Y45871169D01*
X71161756Y45763721D01*
X71171043Y45759271D01*
X71193682Y45750626D01*
X71250186Y45707638D01*
X71274478Y45640927D01*
X71258847Y45571672D01*
X71213156Y45524631D01*
X71051306Y45428340D01*
X71046341Y45425386D01*
X70880457Y45279910D01*
X70743863Y45106640D01*
X70641131Y44911380D01*
X70628050Y44869251D01*
X70578206Y44708728D01*
X70538903Y44649603D01*
X70473873Y44621112D01*
X70403764Y44632302D01*
X70350834Y44679619D01*
X70336604Y44711891D01*
X70295255Y44858504D01*
X70293686Y44864069D01*
X70282259Y44887242D01*
X70202719Y45048531D01*
X70200165Y45053710D01*
X70073651Y45223133D01*
X69918381Y45366663D01*
X69850357Y45409583D01*
X69744434Y45476416D01*
X69744433Y45476416D01*
X69739554Y45479495D01*
X69543160Y45557848D01*
X69537503Y45558973D01*
X69537497Y45558975D01*
X69340234Y45598212D01*
X69277324Y45631119D01*
X69242192Y45692814D01*
X69245992Y45763709D01*
X69287517Y45821295D01*
X69346734Y45846487D01*
X69479015Y45865667D01*
X69479019Y45865668D01*
X69484730Y45866496D01*
X69544435Y45886763D01*
X69679483Y45932605D01*
X69679488Y45932607D01*
X69684955Y45934463D01*
X69690289Y45937450D01*
X69864395Y46034954D01*
X69864399Y46034957D01*
X69869442Y46037781D01*
X70032012Y46172988D01*
X70167219Y46335558D01*
X70263931Y46508249D01*
X70314667Y46557909D01*
X70384198Y46572256D01*
X70450449Y46546735D01*
G37*
G04 #@! TD.AperFunction*
G04 #@! TA.AperFunction,Conductor*
G36*
X56361086Y53084598D02*
G01*
X56382060Y53067695D01*
X58515960Y50933795D01*
X58549986Y50871483D01*
X58544921Y50800668D01*
X58502374Y50743832D01*
X58435854Y50719021D01*
X58426865Y50718700D01*
X55346935Y50718700D01*
X55278814Y50738702D01*
X55257840Y50755605D01*
X54858968Y51154477D01*
X54824942Y51216789D01*
X54830007Y51287604D01*
X54851189Y51324141D01*
X54907760Y51392161D01*
X54927219Y51415558D01*
X54930043Y51420601D01*
X54930046Y51420605D01*
X55027713Y51595002D01*
X55027714Y51595004D01*
X55030537Y51600045D01*
X55032393Y51605512D01*
X55032395Y51605517D01*
X55096647Y51794800D01*
X55098504Y51800270D01*
X55099577Y51807665D01*
X55128314Y52005860D01*
X55128314Y52005862D01*
X55128846Y52009530D01*
X55130429Y52070000D01*
X55111081Y52280560D01*
X55105899Y52298936D01*
X55078361Y52396578D01*
X55053686Y52484069D01*
X55047322Y52496975D01*
X54962719Y52668531D01*
X54960165Y52673710D01*
X54856517Y52812512D01*
X54837104Y52838509D01*
X54837103Y52838510D01*
X54833651Y52843133D01*
X54829413Y52847051D01*
X54829409Y52847055D01*
X54787197Y52886076D01*
X54750752Y52947004D01*
X54753033Y53017964D01*
X54793316Y53076426D01*
X54858811Y53103829D01*
X54872726Y53104600D01*
X56292965Y53104600D01*
X56361086Y53084598D01*
G37*
G04 #@! TD.AperFunction*
G04 #@! TA.AperFunction,Conductor*
G36*
X68240817Y66656906D02*
G01*
X68299681Y66611571D01*
X68333071Y66564326D01*
X68336405Y66559609D01*
X68487865Y66412063D01*
X68492661Y66408858D01*
X68492664Y66408856D01*
X68625195Y66320302D01*
X68663677Y66294589D01*
X68668985Y66292308D01*
X68668986Y66292308D01*
X68852650Y66213400D01*
X68852653Y66213399D01*
X68857953Y66211122D01*
X68863582Y66209848D01*
X68863583Y66209848D01*
X69058550Y66165731D01*
X69058553Y66165731D01*
X69064186Y66164456D01*
X69069958Y66164229D01*
X69075687Y66163475D01*
X69075327Y66160743D01*
X69131604Y66141784D01*
X69175950Y66086341D01*
X69183282Y66015724D01*
X69151271Y65952353D01*
X69090081Y65916349D01*
X69080704Y65914368D01*
X68921650Y65887038D01*
X68921649Y65887038D01*
X68915953Y65886059D01*
X68717575Y65812873D01*
X68712614Y65809921D01*
X68712613Y65809921D01*
X68577577Y65729583D01*
X68535856Y65704762D01*
X68376881Y65565345D01*
X68245976Y65399292D01*
X68243287Y65394181D01*
X68243285Y65394178D01*
X68213961Y65338441D01*
X68147523Y65212164D01*
X68084820Y65010227D01*
X68059967Y64800246D01*
X68073796Y64589251D01*
X68075217Y64583655D01*
X68075218Y64583650D01*
X68124424Y64389905D01*
X68125845Y64384310D01*
X68128262Y64379067D01*
X68174107Y64279621D01*
X68214369Y64192286D01*
X68336405Y64019609D01*
X68340547Y64015574D01*
X68342444Y64013353D01*
X68371477Y63948564D01*
X68360873Y63878363D01*
X68338410Y63847563D01*
X68338923Y63847152D01*
X68333031Y63839797D01*
X68326116Y63833405D01*
X68322577Y63827313D01*
X68317618Y63821776D01*
X67298278Y62802436D01*
X67287188Y62792581D01*
X67269634Y62778743D01*
X67269630Y62778739D01*
X67262235Y62772909D01*
X67230643Y62727198D01*
X67228410Y62724075D01*
X67195438Y62679434D01*
X67193173Y62672984D01*
X67189283Y62667356D01*
X67186445Y62658381D01*
X67186442Y62658376D01*
X67172556Y62614467D01*
X67171303Y62610710D01*
X67156043Y62567258D01*
X67156042Y62567255D01*
X67152923Y62558372D01*
X67152654Y62551536D01*
X67150593Y62545018D01*
X67150100Y62538754D01*
X67150100Y62488998D01*
X67150003Y62484052D01*
X67147886Y62430161D01*
X67149692Y62423350D01*
X67150100Y62415935D01*
X67150100Y58547591D01*
X67130098Y58479470D01*
X67113195Y58458496D01*
X61437778Y52783079D01*
X61426688Y52773224D01*
X61409134Y52759386D01*
X61409130Y52759382D01*
X61401735Y52753552D01*
X61370143Y52707841D01*
X61367910Y52704718D01*
X61334938Y52660077D01*
X61332673Y52653627D01*
X61328783Y52647999D01*
X61325945Y52639024D01*
X61325942Y52639019D01*
X61312056Y52595110D01*
X61310808Y52591369D01*
X61305388Y52575935D01*
X61295543Y52547901D01*
X61295542Y52547898D01*
X61292423Y52539015D01*
X61292154Y52532179D01*
X61290093Y52525661D01*
X61289600Y52519397D01*
X61289600Y52469636D01*
X61289503Y52464690D01*
X61287386Y52410804D01*
X61289192Y52403993D01*
X61289600Y52396578D01*
X61289600Y50972738D01*
X61269598Y50904617D01*
X61215942Y50858124D01*
X61145668Y50848020D01*
X61081088Y50877514D01*
X61074505Y50883643D01*
X55772005Y56186143D01*
X55737979Y56248455D01*
X55735100Y56275238D01*
X55735100Y57669502D01*
X55735973Y57684313D01*
X55738601Y57706516D01*
X55739708Y57715867D01*
X55729740Y57770448D01*
X55729090Y57774351D01*
X55722244Y57819886D01*
X55722244Y57819887D01*
X55720844Y57829197D01*
X55717884Y57835361D01*
X55716655Y57842090D01*
X55712315Y57850446D01*
X55712312Y57850453D01*
X55691075Y57891336D01*
X55689306Y57894875D01*
X55677029Y57920441D01*
X55665302Y57944863D01*
X55660658Y57949886D01*
X55657507Y57955953D01*
X55653427Y57960731D01*
X55618251Y57995907D01*
X55614821Y57999473D01*
X55584597Y58032169D01*
X55584598Y58032169D01*
X55578205Y58039084D01*
X55572113Y58042623D01*
X55566576Y58047582D01*
X54852236Y58761922D01*
X54842375Y58773019D01*
X54840570Y58775309D01*
X54814110Y58841190D01*
X54827469Y58910919D01*
X54842649Y58933872D01*
X54927219Y59035558D01*
X54930043Y59040601D01*
X54930046Y59040605D01*
X55027713Y59215002D01*
X55027714Y59215004D01*
X55030537Y59220045D01*
X55032393Y59225512D01*
X55032395Y59225517D01*
X55096647Y59414800D01*
X55098504Y59420270D01*
X55128846Y59629530D01*
X55130429Y59690000D01*
X55111081Y59900560D01*
X55053686Y60104069D01*
X55034126Y60143734D01*
X54962719Y60288531D01*
X54960165Y60293710D01*
X54881193Y60399466D01*
X54837104Y60458509D01*
X54837103Y60458510D01*
X54833651Y60463133D01*
X54705006Y60582051D01*
X54682622Y60602743D01*
X54682620Y60602745D01*
X54678381Y60606663D01*
X54551596Y60686659D01*
X54504434Y60716416D01*
X54504433Y60716416D01*
X54499554Y60719495D01*
X54303160Y60797848D01*
X54297503Y60798973D01*
X54297497Y60798975D01*
X54100234Y60838212D01*
X54037324Y60871119D01*
X54002192Y60932814D01*
X54005992Y61003709D01*
X54047517Y61061295D01*
X54106734Y61086487D01*
X54239015Y61105667D01*
X54239019Y61105668D01*
X54244730Y61106496D01*
X54323987Y61133400D01*
X54439483Y61172605D01*
X54439488Y61172607D01*
X54444955Y61174463D01*
X54449998Y61177287D01*
X54624395Y61274954D01*
X54624399Y61274957D01*
X54629442Y61277781D01*
X54792012Y61412988D01*
X54927219Y61575558D01*
X54930043Y61580601D01*
X54930046Y61580605D01*
X55027713Y61755002D01*
X55027714Y61755004D01*
X55030537Y61760045D01*
X55032393Y61765512D01*
X55032395Y61765517D01*
X55096647Y61954800D01*
X55098504Y61960270D01*
X55128846Y62169530D01*
X55130429Y62230000D01*
X55111081Y62440560D01*
X55053686Y62644069D01*
X55044235Y62663235D01*
X54962719Y62828531D01*
X54960165Y62833710D01*
X54833651Y63003133D01*
X54733286Y63095910D01*
X54682622Y63142743D01*
X54682620Y63142745D01*
X54678381Y63146663D01*
X54645014Y63167716D01*
X54504434Y63256416D01*
X54504433Y63256416D01*
X54499554Y63259495D01*
X54303160Y63337848D01*
X54297503Y63338973D01*
X54297497Y63338975D01*
X54100234Y63378212D01*
X54037324Y63411119D01*
X54002192Y63472814D01*
X54005992Y63543709D01*
X54047517Y63601295D01*
X54106734Y63626487D01*
X54239015Y63645667D01*
X54239019Y63645668D01*
X54244730Y63646496D01*
X54348465Y63681709D01*
X54439483Y63712605D01*
X54439488Y63712607D01*
X54444955Y63714463D01*
X54449998Y63717287D01*
X54624395Y63814954D01*
X54624399Y63814957D01*
X54629442Y63817781D01*
X54792012Y63952988D01*
X54927219Y64115558D01*
X54930043Y64120601D01*
X54930046Y64120605D01*
X55027713Y64295002D01*
X55027714Y64295004D01*
X55030537Y64300045D01*
X55032393Y64305512D01*
X55032395Y64305517D01*
X55096647Y64494800D01*
X55098504Y64500270D01*
X55112410Y64596172D01*
X55128314Y64705860D01*
X55128314Y64705862D01*
X55128846Y64709530D01*
X55130429Y64770000D01*
X55111081Y64980560D01*
X55105899Y64998936D01*
X55055255Y65178504D01*
X55053686Y65184069D01*
X55042553Y65206646D01*
X54962719Y65368531D01*
X54960165Y65373710D01*
X54931639Y65411911D01*
X54906907Y65478461D01*
X54922081Y65547817D01*
X54972343Y65597959D01*
X55032597Y65613300D01*
X66883490Y65613300D01*
X66898298Y65612427D01*
X66929855Y65608692D01*
X66939117Y65610384D01*
X66939126Y65610384D01*
X66984452Y65618663D01*
X66988360Y65619314D01*
X66990389Y65619619D01*
X67043184Y65627556D01*
X67049348Y65630516D01*
X67056077Y65631745D01*
X67105315Y65657322D01*
X67108831Y65659079D01*
X67150359Y65679020D01*
X67150363Y65679022D01*
X67158850Y65683098D01*
X67163872Y65687741D01*
X67169941Y65690893D01*
X67174719Y65694974D01*
X67209894Y65730149D01*
X67213460Y65733579D01*
X67246156Y65763803D01*
X67253071Y65770195D01*
X67256610Y65776287D01*
X67261569Y65781824D01*
X68107690Y66627945D01*
X68170002Y66661971D01*
X68240817Y66656906D01*
G37*
G04 #@! TD.AperFunction*
M02*
