G04 #@! TF.GenerationSoftware,KiCad,Pcbnew,(6.0.10-0)*
G04 #@! TF.CreationDate,2023-01-27T16:31:16+09:00*
G04 #@! TF.ProjectId,MEZ6502LED,4d455a36-3530-4324-9c45-442e6b696361,A*
G04 #@! TF.SameCoordinates,PX5ee3fe0PY8f872a0*
G04 #@! TF.FileFunction,Soldermask,Bot*
G04 #@! TF.FilePolarity,Negative*
%FSLAX46Y46*%
G04 Gerber Fmt 4.6, Leading zero omitted, Abs format (unit mm)*
G04 Created by KiCad (PCBNEW (6.0.10-0)) date 2023-01-27 16:31:16*
%MOMM*%
%LPD*%
G01*
G04 APERTURE LIST*
%ADD10R,1.600000X1.600000*%
%ADD11O,1.600000X1.600000*%
%ADD12C,1.600000*%
%ADD13R,1.700000X1.700000*%
%ADD14O,1.700000X1.700000*%
%ADD15C,0.605000*%
G04 APERTURE END LIST*
D10*
X53975000Y74930000D03*
D11*
X53975000Y72390000D03*
X53975000Y69850000D03*
X53975000Y67310000D03*
X53975000Y64770000D03*
X53975000Y62230000D03*
X53975000Y59690000D03*
X53975000Y57150000D03*
X53975000Y54610000D03*
X53975000Y52070000D03*
X53975000Y49530000D03*
X53975000Y46990000D03*
X53975000Y44450000D03*
X53975000Y41910000D03*
X53975000Y39370000D03*
X53975000Y36830000D03*
X53975000Y34290000D03*
X53975000Y31750000D03*
X53975000Y29210000D03*
X53975000Y26670000D03*
X69215000Y26670000D03*
X69215000Y29210000D03*
X69215000Y31750000D03*
X69215000Y34290000D03*
X69215000Y36830000D03*
X69215000Y39370000D03*
X69215000Y41910000D03*
X69215000Y44450000D03*
X69215000Y46990000D03*
X69215000Y49530000D03*
X69215000Y52070000D03*
X69215000Y54610000D03*
X69215000Y57150000D03*
X69215000Y59690000D03*
X69215000Y62230000D03*
X69215000Y64770000D03*
X69215000Y67310000D03*
X69215000Y69850000D03*
X69215000Y72390000D03*
X69215000Y74930000D03*
D12*
X57785000Y19685000D03*
D11*
X67945000Y19685000D03*
D12*
X57785000Y22860000D03*
D11*
X67945000Y22860000D03*
D12*
X55245000Y16510000D03*
D11*
X45085000Y16510000D03*
D12*
X55245000Y19685000D03*
D11*
X45085000Y19685000D03*
D12*
X55270000Y22860000D03*
D11*
X45110000Y22860000D03*
D13*
X1905000Y12695000D03*
D14*
X1905000Y10155000D03*
X1905000Y7615000D03*
X1905000Y5075000D03*
X1905000Y2535000D03*
D13*
X48260000Y74930000D03*
D14*
X48260000Y72390000D03*
X48260000Y69850000D03*
X48260000Y67310000D03*
X48260000Y64770000D03*
X48260000Y62230000D03*
X48260000Y59690000D03*
X48260000Y57150000D03*
X48260000Y54610000D03*
X48260000Y52070000D03*
X48260000Y49530000D03*
X48260000Y46990000D03*
X48260000Y44450000D03*
X48260000Y41910000D03*
X48260000Y39370000D03*
X48260000Y36830000D03*
X48260000Y34290000D03*
X48260000Y31750000D03*
X48260000Y29210000D03*
X48260000Y26670000D03*
D12*
X45065000Y57150000D03*
X42565000Y57150000D03*
D13*
X74930000Y74930000D03*
D14*
X74930000Y72390000D03*
X74930000Y69850000D03*
X74930000Y67310000D03*
X74930000Y64770000D03*
X74930000Y62230000D03*
X74930000Y59690000D03*
X74930000Y57150000D03*
X74930000Y54610000D03*
X74930000Y52070000D03*
X74930000Y49530000D03*
X74930000Y46990000D03*
X74930000Y44450000D03*
X74930000Y41910000D03*
X74930000Y39370000D03*
X74930000Y36830000D03*
X74930000Y34290000D03*
X74930000Y31750000D03*
X74930000Y29210000D03*
X74930000Y26670000D03*
D13*
X69215000Y12695000D03*
D14*
X69215000Y10155000D03*
X69215000Y7615000D03*
X69215000Y5075000D03*
X69215000Y2535000D03*
D13*
X71755000Y74930000D03*
D14*
X71755000Y72390000D03*
X71755000Y69850000D03*
X71755000Y67310000D03*
X71755000Y64770000D03*
X71755000Y62230000D03*
X71755000Y59690000D03*
X71755000Y57150000D03*
X71755000Y54610000D03*
X71755000Y52070000D03*
X71755000Y49530000D03*
X71755000Y46990000D03*
X71755000Y44450000D03*
X71755000Y41910000D03*
X71755000Y39370000D03*
X71755000Y36830000D03*
X71755000Y34290000D03*
X71755000Y31750000D03*
X71755000Y29210000D03*
X71755000Y26670000D03*
D13*
X51435000Y74930000D03*
D14*
X51435000Y72390000D03*
X51435000Y69850000D03*
X51435000Y67310000D03*
X51435000Y64770000D03*
X51435000Y62230000D03*
X51435000Y59690000D03*
X51435000Y57150000D03*
X51435000Y54610000D03*
X51435000Y52070000D03*
X51435000Y49530000D03*
X51435000Y46990000D03*
X51435000Y44450000D03*
X51435000Y41910000D03*
X51435000Y39370000D03*
X51435000Y36830000D03*
X51435000Y34290000D03*
X51435000Y31750000D03*
X51435000Y29210000D03*
X51435000Y26670000D03*
D15*
X39370000Y36830000D03*
X42545000Y25400000D03*
X42545000Y31750000D03*
X42545000Y52705000D03*
X66040000Y11430000D03*
X66040000Y1270000D03*
X65405000Y33020000D03*
X57785000Y33020000D03*
X56515000Y52070000D03*
X64770000Y50800000D03*
X64770000Y43815000D03*
X57150000Y47625000D03*
X57785000Y43815000D03*
X57785000Y39370000D03*
X65405000Y39370000D03*
X57785000Y55880000D03*
X65405000Y74930000D03*
X65405000Y58420000D03*
X57785000Y67310000D03*
X65405000Y67310000D03*
X57785000Y74930000D03*
X81915000Y26035000D03*
X38735000Y8255000D03*
X38100000Y11430000D03*
X38735000Y3810000D03*
X38100000Y1270000D03*
X38100000Y13970000D03*
X39370000Y76200000D03*
X81915000Y76200000D03*
X4445000Y6350000D03*
X4445000Y3810000D03*
X59121900Y50045124D03*
X57995371Y49446629D03*
X67351000Y48768000D03*
X63246000Y41074600D03*
X60880800Y42291000D03*
X60880800Y45814200D03*
X60439100Y49062700D03*
X60880100Y46698900D03*
X60188186Y40857869D03*
M02*
